<svg xmlns="http://www.w3.org/2000/svg" viewBox="0 0 153.51 49.83"><defs><style>.cls-1{fill:#10271c;}.cls-2{fill:#a6a8ab;}</style></defs><title>girar-logo-text</title><g id="Layer_2" data-name="Layer 2"><g id="Layer_1-2" data-name="Layer 1"><path class="cls-1" d="M27.17,25.05a25,25,0,0,1-10.9,2.37C7.22,27.42.72,22,.72,14.07S7.67.72,16.39.72c3.83,0,7.53.9,10.28,3.34L24.08,6.43a11.73,11.73,0,0,0-7.93-2.91C9.48,3.52,4.42,7.9,4.42,14.07s4.9,10.55,12,10.55a19.26,19.26,0,0,0,7.24-1.47V15.36H17v-2.8H27.17Z"/><path class="cls-1" d="M16.27,28.14C6.69,28.14,0,22.36,0,14.07S6.89,0,16.39,0c4.51,0,8.13,1.18,10.76,3.52l.61.53L24.08,7.42,23.59,7a11.06,11.06,0,0,0-7.44-2.71c-6.38,0-11,4.14-11,9.83S9.81,23.9,16.47,23.9A18.91,18.91,0,0,0,23,22.67V16.09h-6.7V11.84h11.6V25.5l-.41.2A25.77,25.77,0,0,1,16.27,28.14Zm.12-26.69C7.73,1.45,1.45,6.76,1.45,14.07S7.54,26.7,16.27,26.7a24.51,24.51,0,0,0,10.17-2.11V13.29H17.73v1.35h6.71v9l-.44.19a19.78,19.78,0,0,1-7.53,1.53C9.07,25.34,3.7,20.6,3.7,14.07S8.94,2.8,16.15,2.8a12.66,12.66,0,0,1,7.92,2.66l1.5-1.37A14.8,14.8,0,0,0,16.39,1.45Z"/><path class="cls-1" d="M42.63,1.37h3.46v25.4H42.63Z"/><path class="cls-1" d="M46.81,27.5h-4.9V.65h4.9Zm-3.45-1.45h2v-24h-2Z"/><path class="cls-1" d="M61.55,1.37H69c5.63,0,11.59.72,11.59,7,0,3.69-2.75,6.1-7.27,6.71l8.26,11.69H77.35l-7.9-11.41H65V26.77H61.55ZM65,12.56h3.08c3.83,0,8.8,0,8.8-4.19,0-3.66-3.66-4.2-7-4.2H65Z"/><path class="cls-1" d="M83,27.5H77l-7.9-11.41H65.73V27.5h-4.9V.65H69c4,0,12.32,0,12.32,7.72,0,3.66-2.5,6.3-6.75,7.22Zm-5.26-1.45h2.47L72,14.52l1.18-.16c4.23-.57,6.65-2.76,6.65-6,0-5.21-4.35-6.28-10.87-6.28H62.28v24h2V14.64h5.55ZM68.09,13.29H64.28V3.44h5.58c2.12,0,7.76,0,7.76,4.93S71.88,13.29,68.09,13.29Zm-2.36-1.45h2.36c4.58,0,8.08-.26,8.08-3.47,0-2.44-1.89-3.48-6.31-3.48H65.73Z"/><path class="cls-1" d="M104.37,1.37h3.25L120,26.77h-4l-3-6.24H98.44l-3,6.24h-3.9Zm1.56,3.87h-.08l-6,12.49h11.89Z"/><path class="cls-1" d="M121.15,27.5h-5.64l-3-6.25H98.9l-3,6.25H90.36L103.92.65h4.15Zm-4.73-1.45h2.42l-11.68-24h-2.35l-12.1,24H95l3-6.24h15.47Zm-3.6-7.6H98.65l6.74-13.93h1ZM101,17h9.6L105.87,6.85Z"/><path class="cls-1" d="M132.09,1.37h7.44c5.64,0,11.6.72,11.6,7,0,3.69-2.76,6.1-7.28,6.71l8.27,11.69h-4.24L140,15.36h-4.45V26.77h-3.45Zm3.45,11.19h3.09c3.82,0,8.8,0,8.8-4.19,0-3.66-3.66-4.2-7-4.2h-4.86Z"/><path class="cls-1" d="M153.51,27.5h-6l-7.89-11.41h-3.34V27.5h-4.9V.65h8.16c4,0,12.32,0,12.32,7.72,0,3.66-2.5,6.3-6.75,7.22Zm-5.25-1.45h2.46l-8.15-11.53,1.18-.16c4.23-.57,6.66-2.76,6.66-6,0-5.21-4.35-6.28-10.88-6.28h-6.72v24h2V14.64h5.54Zm-9.63-12.76h-3.81V3.44h5.58c2.12,0,7.75,0,7.75,4.93S142.42,13.29,138.63,13.29Zm-2.36-1.45h2.36c4.57,0,8.08-.26,8.08-3.47,0-2.44-1.89-3.48-6.31-3.48h-4.13Z"/><path class="cls-2" d="M3.28,49.6H2.18l4-9.22H7.1l4,9.22H10L9,47.18H4.29Zm1.36-3.28h4l-2-4.84Z"/><path class="cls-2" d="M15,40.38h2.68c1.88,0,3,.81,3,2.46s-1.16,2.48-3,2.48H15.9V49.6H15Zm.94,4.08h1.51c1.68,0,2.25-.73,2.25-1.62s-.57-1.6-2.25-1.6H15.9Z"/><path class="cls-2" d="M23.92,49.6H22.83l4-9.22h.92l4,9.22H30.66l-1-2.42H24.93Zm1.37-3.28h4l-2-4.84Z"/><path class="cls-2" d="M36.54,49.6h-.93V40.38h2.83c1.88,0,3,.81,3,2.46a2.34,2.34,0,0,1-2.36,2.38l2.66,4.38H40.63l-2.52-4.28H36.54Zm0-5.14h1.67c1.68,0,2.25-.73,2.25-1.62s-.57-1.6-2.25-1.6H36.54Z"/><path class="cls-2" d="M49,49.6H48V41.24H44.94v-.86h7.11v.86H49Z"/><path class="cls-2" d="M60.62,47.88l3.11-7.5h1.44V49.6h-.94v-8h0l-3.33,8h-.49l-3.34-8h0v8h-.94V40.38h1.43Z"/><path class="cls-2" d="M71.2,48.74h4.94v.86H70.27V40.38H76v.86H71.2v3.14h4.47v.86H71.2Z"/><path class="cls-2" d="M87.25,48.19h0V40.38h.94V49.6H87l-5.49-7.89h0V49.6h-.94V40.38h1.17Z"/><path class="cls-2" d="M96.27,49.6h-.94V41.24H92.25v-.86h7.11v.86H96.27Z"/><path class="cls-2" d="M107.75,41.91A2,2,0,0,0,106,41a1.76,1.76,0,0,0-2,1.66c0,2.49,4.73,1.18,4.73,4.49a2.87,2.87,0,0,1-3,2.67,3.49,3.49,0,0,1-2.91-1.36l.85-.62A2.31,2.31,0,0,0,105.73,49a1.84,1.84,0,0,0,2-1.68c0-2.6-4.72-1.15-4.72-4.52a2.69,2.69,0,0,1,3-2.62,3.16,3.16,0,0,1,2.6,1.12Z"/></g></g></svg>