<svg xmlns="http://www.w3.org/2000/svg" xmlns:xlink="http://www.w3.org/1999/xlink" viewBox="0 0 254.4 208.06"><defs><style>.cls-1{fill:#10281d;}.cls-2{font-size:13.02px;fill:#a7a9ac;font-family:AvenirLTStd-Book, Avenir LT Std;letter-spacing:0.2em;}.cls-3{letter-spacing:0.13em;}.cls-4{letter-spacing:0.2em;}.cls-5{letter-spacing:0.21em;}.cls-6{fill:url(#Dull_Brass);}.cls-7{fill:url(#Dull_Brass-2);}.cls-8{fill:url(#Dull_Brass-3);}.cls-9{fill:url(#Dull_Brass-4);}.cls-10{fill:url(#Dull_Brass-5);}.cls-11{fill:url(#Dull_Brass-6);}.cls-12{fill:url(#Dull_Brass-7);}.cls-13{fill:url(#Dull_Brass-8);}.cls-14{fill:url(#Dull_Brass-9);}.cls-15{fill:url(#Dull_Brass-10);}.cls-16{fill:url(#Dull_Brass-11);}.cls-17{fill:url(#Dull_Brass-12);}.cls-18{fill:url(#Dull_Brass-13);}.cls-19{fill:url(#Dull_Brass-14);}.cls-20{fill:url(#Dull_Brass-15);}.cls-21{fill:url(#Dull_Brass-16);}.cls-22{fill:url(#Dull_Brass-17);}.cls-23{fill:url(#Dull_Brass-18);}.cls-24{fill:url(#Dull_Brass-19);}.cls-25{fill:url(#Dull_Brass-20);}.cls-26{fill:url(#Dull_Brass-21);}.cls-27{fill:url(#Dull_Brass-22);}.cls-28{fill:url(#Dull_Brass-23);}.cls-29{fill:url(#Dull_Brass-24);}.cls-30{fill:url(#Dull_Brass-25);}.cls-31{fill:url(#Dull_Brass-26);}.cls-32{fill:url(#Dull_Brass-27);}.cls-33{fill:url(#Dull_Brass-28);}.cls-34{fill:url(#Dull_Brass-29);}.cls-35{fill:url(#Dull_Brass-30);}.cls-36{fill:url(#Dull_Brass-31);}.cls-37{fill:url(#Dull_Brass-32);}.cls-38{fill:url(#Dull_Brass-33);}.cls-39{fill:url(#Dull_Brass-34);}.cls-40{fill:url(#Dull_Brass-35);}.cls-41{fill:url(#Dull_Brass-36);}.cls-42{fill:url(#Dull_Brass-37);}.cls-43{fill:url(#Dull_Brass-38);}.cls-44{fill:url(#Dull_Brass-39);}.cls-45{fill:url(#Dull_Brass-40);}.cls-46{fill:url(#Dull_Brass-41);}.cls-47{fill:url(#Dull_Brass-42);}.cls-48{fill:url(#Dull_Brass-43);}.cls-49{fill:url(#Dull_Brass-44);}.cls-50{fill:url(#Dull_Brass-45);}.cls-51{fill:url(#Dull_Brass-46);}.cls-52{fill:url(#Dull_Brass-47);}.cls-53{fill:url(#Dull_Brass-48);}.cls-54{fill:url(#Dull_Brass-49);}.cls-55{fill:url(#Dull_Brass-50);}.cls-56{fill:url(#Dull_Brass-51);}.cls-57{fill:url(#Dull_Brass-52);}.cls-58{fill:url(#Dull_Brass-53);}.cls-59{fill:url(#Dull_Brass-54);}.cls-60{fill:url(#Dull_Brass-55);}.cls-61{fill:url(#Dull_Brass-56);}.cls-62{fill:url(#Dull_Brass-57);}.cls-63{fill:url(#Dull_Brass-58);}.cls-64{fill:url(#Dull_Brass-59);}.cls-65{fill:url(#Dull_Brass-60);}.cls-66{fill:url(#Dull_Brass-61);}.cls-67{fill:url(#Dull_Brass-62);}.cls-68{fill:url(#Dull_Brass-63);}.cls-69{fill:url(#Dull_Brass-64);}.cls-70{fill:url(#Dull_Brass-65);}.cls-71{fill:url(#Dull_Brass-66);}.cls-72{fill:url(#Dull_Brass-67);}.cls-73{fill:url(#Dull_Brass-68);}.cls-74{fill:url(#Dull_Brass-69);}.cls-75{fill:url(#Dull_Brass-70);}.cls-76{fill:url(#Dull_Brass-71);}.cls-77{fill:url(#Dull_Brass-72);}.cls-78{fill:url(#Dull_Brass-73);}.cls-79{fill:url(#Dull_Brass-74);}.cls-80{fill:url(#Dull_Brass-75);}.cls-81{fill:url(#Dull_Brass-76);}.cls-82{fill:url(#Dull_Brass-77);}.cls-83{fill:url(#Dull_Brass-78);}.cls-84{fill:url(#Dull_Brass-79);}.cls-85{fill:url(#Dull_Brass-80);}.cls-86{fill:url(#Dull_Brass-81);}.cls-87{fill:url(#Dull_Brass-82);}.cls-88{fill:url(#Dull_Brass-83);}.cls-89{fill:url(#Dull_Brass-84);}.cls-90{fill:url(#Dull_Brass-85);}.cls-91{fill:url(#Dull_Brass-86);}.cls-92{fill:url(#Dull_Brass-87);}.cls-93{fill:url(#Dull_Brass-88);}.cls-94{fill:url(#Dull_Brass-89);}.cls-95{fill:url(#Dull_Brass-90);}.cls-96{fill:url(#Dull_Brass-91);}.cls-97{fill:url(#Dull_Brass-92);}.cls-98{fill:url(#Dull_Brass-93);}.cls-99{fill:url(#Dull_Brass-94);}.cls-100{fill:url(#Dull_Brass-95);}.cls-101{fill:url(#Dull_Brass-96);}.cls-102{fill:url(#Dull_Brass-97);}</style><linearGradient id="Dull_Brass" x1="-13.35" y1="27.13" x2="295.76" y2="227.4" gradientUnits="userSpaceOnUse"><stop offset="0.01" stop-color="#ebc17d"/><stop offset="0.19" stop-color="#dfb77c"/><stop offset="0.6" stop-color="#c08329"/><stop offset="0.87" stop-color="#eabe81"/><stop offset="1" stop-color="#eedcc3"/></linearGradient><linearGradient id="Dull_Brass-2" x1="-4.57" y1="13.58" x2="304.54" y2="213.85" xlink:href="#Dull_Brass"/><linearGradient id="Dull_Brass-3" x1="-14.83" y1="29.41" x2="294.28" y2="229.68" xlink:href="#Dull_Brass"/><linearGradient id="Dull_Brass-4" x1="-29.47" y1="52.01" x2="279.64" y2="252.28" xlink:href="#Dull_Brass"/><linearGradient id="Dull_Brass-5" x1="-17.15" y1="33" x2="291.96" y2="233.27" xlink:href="#Dull_Brass"/><linearGradient id="Dull_Brass-6" x1="-22.1" y1="40.64" x2="287.01" y2="240.91" xlink:href="#Dull_Brass"/><linearGradient id="Dull_Brass-7" x1="-4.41" y1="13.34" x2="304.7" y2="213.61" xlink:href="#Dull_Brass"/><linearGradient id="Dull_Brass-8" x1="18.06" y1="-21.35" x2="327.17" y2="178.92" xlink:href="#Dull_Brass"/><linearGradient id="Dull_Brass-9" x1="25.47" y1="-32.79" x2="334.58" y2="167.48" xlink:href="#Dull_Brass"/><linearGradient id="Dull_Brass-10" x1="40.71" y1="-56.31" x2="349.82" y2="143.96" xlink:href="#Dull_Brass"/><linearGradient id="Dull_Brass-11" x1="27.69" y1="-36.21" x2="336.8" y2="164.06" xlink:href="#Dull_Brass"/><linearGradient id="Dull_Brass-12" x1="16.44" y1="-18.85" x2="325.55" y2="181.43" xlink:href="#Dull_Brass"/><linearGradient id="Dull_Brass-13" x1="27.89" y1="-36.53" x2="336.99" y2="163.73" xlink:href="#Dull_Brass"/><linearGradient id="Dull_Brass-14" x1="49.64" y1="-70.1" x2="358.76" y2="130.17" xlink:href="#Dull_Brass"/><linearGradient id="Dull_Brass-15" x1="31.74" y1="-42.47" x2="340.86" y2="157.8" xlink:href="#Dull_Brass"/><linearGradient id="Dull_Brass-16" x1="-13.78" y1="27.8" x2="295.33" y2="228.07" xlink:href="#Dull_Brass"/><linearGradient id="Dull_Brass-17" x1="9.67" y1="-8.4" x2="318.78" y2="191.87" xlink:href="#Dull_Brass"/><linearGradient id="Dull_Brass-18" x1="-6.24" y1="16.16" x2="302.87" y2="216.43" xlink:href="#Dull_Brass"/><linearGradient id="Dull_Brass-19" x1="25.12" y1="-32.25" x2="334.23" y2="168.02" xlink:href="#Dull_Brass"/><linearGradient id="Dull_Brass-20" x1="29.73" y1="-39.37" x2="338.85" y2="160.9" xlink:href="#Dull_Brass"/><linearGradient id="Dull_Brass-21" x1="1.63" y1="4" x2="310.75" y2="204.27" xlink:href="#Dull_Brass"/><linearGradient id="Dull_Brass-22" x1="49.11" y1="-69.28" x2="358.23" y2="130.99" xlink:href="#Dull_Brass"/><linearGradient id="Dull_Brass-23" x1="41.28" y1="-57.19" x2="350.39" y2="143.08" xlink:href="#Dull_Brass"/><linearGradient id="Dull_Brass-24" x1="48.8" y1="-68.79" x2="357.91" y2="131.48" xlink:href="#Dull_Brass"/><linearGradient id="Dull_Brass-25" x1="33.44" y1="-45.09" x2="342.55" y2="155.18" xlink:href="#Dull_Brass"/><linearGradient id="Dull_Brass-26" x1="17.04" y1="-19.78" x2="326.15" y2="180.49" xlink:href="#Dull_Brass"/><linearGradient id="Dull_Brass-27" x1="-38.16" y1="65.42" x2="270.95" y2="265.69" xlink:href="#Dull_Brass"/><linearGradient id="Dull_Brass-28" x1="21.46" y1="-26.6" x2="330.57" y2="173.67" xlink:href="#Dull_Brass"/><linearGradient id="Dull_Brass-29" x1="5.28" y1="-1.63" x2="314.39" y2="198.64" xlink:href="#Dull_Brass"/><linearGradient id="Dull_Brass-30" x1="-17.48" y1="33.5" x2="291.64" y2="233.77" xlink:href="#Dull_Brass"/><linearGradient id="Dull_Brass-31" x1="44.37" y1="-61.96" x2="353.48" y2="138.31" xlink:href="#Dull_Brass"/><linearGradient id="Dull_Brass-32" x1="-9.88" y1="21.77" x2="299.23" y2="222.04" xlink:href="#Dull_Brass"/><linearGradient id="Dull_Brass-33" x1="21.49" y1="-26.64" x2="330.6" y2="173.63" xlink:href="#Dull_Brass"/><linearGradient id="Dull_Brass-34" x1="37.32" y1="-51.08" x2="346.43" y2="149.19" xlink:href="#Dull_Brass"/><linearGradient id="Dull_Brass-35" x1="19.84" y1="-24.1" x2="328.95" y2="176.17" xlink:href="#Dull_Brass"/><linearGradient id="Dull_Brass-36" x1="-14.74" y1="29.28" x2="294.37" y2="229.55" xlink:href="#Dull_Brass"/><linearGradient id="Dull_Brass-37" x1="-10.28" y1="22.4" x2="298.83" y2="222.67" xlink:href="#Dull_Brass"/><linearGradient id="Dull_Brass-38" x1="-32.96" y1="57.39" x2="276.16" y2="257.66" xlink:href="#Dull_Brass"/><linearGradient id="Dull_Brass-39" x1="49.24" y1="-69.47" x2="358.35" y2="130.8" xlink:href="#Dull_Brass"/><linearGradient id="Dull_Brass-40" x1="-11.33" y1="24.01" x2="297.79" y2="224.28" xlink:href="#Dull_Brass"/><linearGradient id="Dull_Brass-41" x1="18.78" y1="-22.47" x2="327.9" y2="177.8" xlink:href="#Dull_Brass"/><linearGradient id="Dull_Brass-42" x1="48.24" y1="-67.94" x2="357.35" y2="132.33" xlink:href="#Dull_Brass"/><linearGradient id="Dull_Brass-43" x1="4.12" y1="0.16" x2="313.24" y2="200.43" xlink:href="#Dull_Brass"/><linearGradient id="Dull_Brass-44" x1="44.5" y1="-62.16" x2="353.61" y2="138.11" xlink:href="#Dull_Brass"/><linearGradient id="Dull_Brass-45" x1="44.18" y1="-61.67" x2="353.3" y2="138.6" xlink:href="#Dull_Brass"/><linearGradient id="Dull_Brass-46" x1="37.48" y1="-51.33" x2="346.59" y2="148.94" xlink:href="#Dull_Brass"/><linearGradient id="Dull_Brass-47" x1="53.37" y1="-75.85" x2="362.48" y2="124.42" xlink:href="#Dull_Brass"/><linearGradient id="Dull_Brass-48" x1="23.82" y1="-30.24" x2="332.93" y2="170.03" xlink:href="#Dull_Brass"/><linearGradient id="Dull_Brass-49" x1="30.65" y1="-40.78" x2="339.76" y2="159.49" xlink:href="#Dull_Brass"/><linearGradient id="Dull_Brass-50" x1="13.37" y1="-14.11" x2="322.48" y2="186.16" xlink:href="#Dull_Brass"/><linearGradient id="Dull_Brass-51" x1="22.42" y1="-28.08" x2="331.53" y2="172.19" xlink:href="#Dull_Brass"/><linearGradient id="Dull_Brass-52" x1="37.39" y1="-51.19" x2="346.51" y2="149.08" xlink:href="#Dull_Brass"/><linearGradient id="Dull_Brass-53" x1="-16.95" y1="32.68" x2="292.16" y2="232.95" xlink:href="#Dull_Brass"/><linearGradient id="Dull_Brass-54" x1="-1.41" y1="8.7" x2="307.71" y2="208.97" xlink:href="#Dull_Brass"/><linearGradient id="Dull_Brass-55" x1="57.03" y1="-81.49" x2="366.14" y2="118.78" xlink:href="#Dull_Brass"/><linearGradient id="Dull_Brass-56" x1="38.63" y1="-53.09" x2="347.74" y2="147.18" xlink:href="#Dull_Brass"/><linearGradient id="Dull_Brass-57" x1="40.95" y1="-56.69" x2="350.07" y2="143.58" xlink:href="#Dull_Brass"/><linearGradient id="Dull_Brass-58" x1="52.04" y1="-73.79" x2="361.15" y2="126.48" xlink:href="#Dull_Brass"/><linearGradient id="Dull_Brass-59" x1="1.13" y1="4.78" x2="310.24" y2="205.05" xlink:href="#Dull_Brass"/><linearGradient id="Dull_Brass-60" x1="27.35" y1="-35.69" x2="336.46" y2="164.58" xlink:href="#Dull_Brass"/><linearGradient id="Dull_Brass-61" x1="15.97" y1="-18.12" x2="325.08" y2="182.15" xlink:href="#Dull_Brass"/><linearGradient id="Dull_Brass-62" x1="-26.01" y1="46.66" x2="283.11" y2="246.93" xlink:href="#Dull_Brass"/><linearGradient id="Dull_Brass-63" x1="-24.78" y1="44.77" x2="284.33" y2="245.04" xlink:href="#Dull_Brass"/><linearGradient id="Dull_Brass-64" x1="-33.87" y1="58.8" x2="275.25" y2="259.07" xlink:href="#Dull_Brass"/><linearGradient id="Dull_Brass-65" x1="56.22" y1="-80.25" x2="365.33" y2="120.02" xlink:href="#Dull_Brass"/><linearGradient id="Dull_Brass-66" x1="11.91" y1="-11.86" x2="321.03" y2="188.41" xlink:href="#Dull_Brass"/><linearGradient id="Dull_Brass-67" x1="25.41" y1="-32.69" x2="334.52" y2="167.58" xlink:href="#Dull_Brass"/><linearGradient id="Dull_Brass-68" x1="-10.01" y1="21.97" x2="299.11" y2="222.24" xlink:href="#Dull_Brass"/><linearGradient id="Dull_Brass-69" x1="18.59" y1="-22.17" x2="327.7" y2="178.1" xlink:href="#Dull_Brass"/><linearGradient id="Dull_Brass-70" x1="-11.82" y1="24.77" x2="297.29" y2="225.04" xlink:href="#Dull_Brass"/><linearGradient id="Dull_Brass-71" x1="5.26" y1="-1.59" x2="314.37" y2="198.68" xlink:href="#Dull_Brass"/><linearGradient id="Dull_Brass-72" x1="28.56" y1="-37.56" x2="337.68" y2="162.71" xlink:href="#Dull_Brass"/><linearGradient id="Dull_Brass-73" x1="31.6" y1="-42.25" x2="340.72" y2="158.02" xlink:href="#Dull_Brass"/><linearGradient id="Dull_Brass-74" x1="-2.31" y1="10.09" x2="306.8" y2="210.36" xlink:href="#Dull_Brass"/><linearGradient id="Dull_Brass-75" x1="31.7" y1="-42.4" x2="340.81" y2="157.87" xlink:href="#Dull_Brass"/><linearGradient id="Dull_Brass-76" x1="4.39" y1="-0.25" x2="313.5" y2="200.03" xlink:href="#Dull_Brass"/><linearGradient id="Dull_Brass-77" x1="11.47" y1="-11.19" x2="320.59" y2="189.08" xlink:href="#Dull_Brass"/><linearGradient id="Dull_Brass-78" x1="-4.01" y1="12.71" x2="305.11" y2="212.98" xlink:href="#Dull_Brass"/><linearGradient id="Dull_Brass-79" x1="30.32" y1="-40.28" x2="339.44" y2="159.99" xlink:href="#Dull_Brass"/><linearGradient id="Dull_Brass-80" x1="3.27" y1="1.47" x2="312.39" y2="201.74" xlink:href="#Dull_Brass"/><linearGradient id="Dull_Brass-81" x1="1.87" y1="3.64" x2="310.98" y2="203.91" xlink:href="#Dull_Brass"/><linearGradient id="Dull_Brass-82" x1="37.2" y1="-50.89" x2="346.31" y2="149.38" xlink:href="#Dull_Brass"/><linearGradient id="Dull_Brass-83" x1="-23.82" y1="43.29" x2="285.29" y2="243.56" xlink:href="#Dull_Brass"/><linearGradient id="Dull_Brass-84" x1="18.74" y1="-22.41" x2="327.86" y2="177.86" xlink:href="#Dull_Brass"/><linearGradient id="Dull_Brass-85" x1="31.83" y1="-42.61" x2="340.95" y2="157.66" xlink:href="#Dull_Brass"/><linearGradient id="Dull_Brass-86" x1="-16.9" y1="32.61" x2="292.21" y2="232.88" xlink:href="#Dull_Brass"/><linearGradient id="Dull_Brass-87" x1="-31.24" y1="54.75" x2="277.87" y2="255.02" xlink:href="#Dull_Brass"/><linearGradient id="Dull_Brass-88" x1="43.02" y1="-59.88" x2="352.14" y2="140.39" xlink:href="#Dull_Brass"/><linearGradient id="Dull_Brass-89" x1="21.93" y1="-27.32" x2="331.04" y2="172.95" xlink:href="#Dull_Brass"/><linearGradient id="Dull_Brass-90" x1="13.61" y1="-14.48" x2="322.72" y2="185.79" xlink:href="#Dull_Brass"/><linearGradient id="Dull_Brass-91" x1="55.75" y1="-79.53" x2="364.87" y2="120.74" xlink:href="#Dull_Brass"/><linearGradient id="Dull_Brass-92" x1="11.46" y1="-11.16" x2="320.57" y2="189.11" xlink:href="#Dull_Brass"/><linearGradient id="Dull_Brass-93" x1="24.51" y1="-31.3" x2="333.62" y2="168.97" xlink:href="#Dull_Brass"/><linearGradient id="Dull_Brass-94" x1="12.95" y1="-13.47" x2="322.06" y2="186.81" xlink:href="#Dull_Brass"/><linearGradient id="Dull_Brass-95" x1="32.67" y1="-43.91" x2="341.79" y2="156.36" xlink:href="#Dull_Brass"/><linearGradient id="Dull_Brass-96" x1="45.32" y1="-63.43" x2="354.43" y2="136.84" xlink:href="#Dull_Brass"/><linearGradient id="Dull_Brass-97" x1="38.73" y1="-53.26" x2="347.84" y2="147.01" xlink:href="#Dull_Brass"/></defs><title>girar-logo-center</title><g id="Layer_2" data-name="Layer 2"><g id="Layer_1-2" data-name="Layer 1"><path class="cls-1" d="M77.29,183.28a25,25,0,0,1-10.9,2.37c-9,0-15.55-5.38-15.55-13.35S57.79,159,66.51,159c3.83,0,7.53.89,10.28,3.33l-2.59,2.37a11.73,11.73,0,0,0-7.93-2.91c-6.67,0-11.73,4.38-11.73,10.55s4.9,10.55,12.05,10.55a19.26,19.26,0,0,0,7.24-1.47v-7.79h-6.7V170.8H77.29Z"/><path class="cls-1" d="M66.39,186.37c-9.58,0-16.27-5.78-16.27-14.07S57,158.23,66.51,158.23c4.51,0,8.13,1.19,10.76,3.52l.6.53-3.68,3.37-.48-.46a11,11,0,0,0-7.44-2.71c-6.38,0-11,4.13-11,9.82s4.65,9.83,11.32,9.83a18.91,18.91,0,0,0,6.52-1.23v-6.58h-6.7v-4.25H78v13.67l-.41.19A25.77,25.77,0,0,1,66.39,186.37Zm.12-26.69c-8.66,0-14.94,5.31-14.94,12.62s6.09,12.63,14.82,12.63a24.51,24.51,0,0,0,10.17-2.11v-11.3H67.85v1.35h6.71v9l-.44.19a19.79,19.79,0,0,1-7.53,1.54c-7.4,0-12.77-4.75-12.77-11.28S59.05,161,66.27,161a12.72,12.72,0,0,1,7.92,2.66l1.5-1.37A14.86,14.86,0,0,0,66.51,159.68Z"/><path class="cls-1" d="M92.75,159.6h3.46V185H92.75Z"/><path class="cls-1" d="M96.93,185.73H92V158.88h4.9Zm-3.45-1.45h2v-24h-2Z"/><path class="cls-1" d="M111.67,159.6h7.45c5.63,0,11.59.72,11.59,7,0,3.69-2.75,6.1-7.28,6.71L131.7,185h-4.23l-7.9-11.41h-4.44V185h-3.46Zm3.46,11.2h3.08c3.83,0,8.8,0,8.8-4.2,0-3.66-3.66-4.2-7-4.2h-4.85Z"/><path class="cls-1" d="M133.1,185.73h-6l-7.9-11.41h-3.34v11.41H111V158.88h8.17c4,0,12.32,0,12.32,7.72,0,3.66-2.5,6.3-6.76,7.22Zm-5.26-1.45h2.46l-8.14-11.53,1.18-.16c4.23-.57,6.65-2.75,6.65-6,0-5.21-4.35-6.28-10.87-6.28H112.4v24h2V172.87H120Zm-9.63-12.76H114.4v-9.84H120c2.12,0,7.76,0,7.76,4.92S122,171.52,118.21,171.52Zm-2.36-1.45h2.36c4.58,0,8.08-.25,8.08-3.47,0-2.44-1.89-3.48-6.31-3.48h-4.13Z"/><path class="cls-1" d="M154.49,159.6h3.25L170.12,185h-4l-3-6.24H148.56l-3,6.24h-3.91Zm1.56,3.88H156L149.92,176h11.89Z"/><path class="cls-1" d="M171.27,185.73h-5.64l-3-6.25H149l-3,6.25h-5.54L154,158.88h4.15Zm-4.73-1.45H169l-11.68-24h-2.35l-12.1,24h2.28l3-6.24h15.47Zm-3.6-7.59H148.77l6.74-13.94h1Zm-11.87-1.45h9.61L156,165.08Z"/><path class="cls-1" d="M182.21,159.6h7.44c5.64,0,11.6.72,11.6,7,0,3.69-2.76,6.1-7.28,6.71L202.24,185H198l-7.9-11.41h-4.44V185h-3.45Zm3.45,11.2h3.09c3.82,0,8.8,0,8.8-4.2,0-3.66-3.66-4.2-7-4.2h-4.86Z"/><path class="cls-1" d="M203.63,185.73h-6l-7.89-11.41h-3.34v11.41h-4.91V158.88h8.17c4,0,12.32,0,12.32,7.72,0,3.66-2.5,6.3-6.75,7.22Zm-5.25-1.45h2.46l-8.15-11.53,1.18-.16c4.23-.57,6.66-2.75,6.66-6,0-5.21-4.35-6.28-10.88-6.28h-6.72v24h2V172.87h5.54Zm-9.63-12.76h-3.81v-9.84h5.58c2.12,0,7.75,0,7.75,4.92S192.54,171.52,188.75,171.52Zm-2.36-1.45h2.36c4.57,0,8.08-.25,8.08-3.47,0-2.44-1.89-3.48-6.31-3.48h-4.13Z"/><text class="cls-2" transform="translate(71.64 204.31)">A<tspan class="cls-3" x="11.53" y="0">P</tspan><tspan class="cls-4" x="20.64" y="0">A</tspan><tspan class="cls-5" x="32.17" y="0">R</tspan><tspan class="cls-4" x="42.57" y="0">TMENTS</tspan></text><path class="cls-6" d="M150.2,147l-15.65-.39c.11-1.27,2-3.06,2-4.3.06-7.26-1.88-6.65-6.32-11.07-4.69-4.67-4.55-6.49-6.2-7.7a14.53,14.53,0,0,1-4.4-4.47c-3.42-5.24-4.36-10.75-5.55-17.72-.37-2.13-.58-3.9-.76-5.47-.47-3.92-.7-5.32-2-6.3-1.77-1.35-4.63-1.3-7.4-1.25a18,18,0,0,0-4.47.63,9.3,9.3,0,0,1-5.22.15C89.66,87.89,87,84,86.05,82.4a12.84,12.84,0,0,1-1.73-5.73,8.76,8.76,0,0,0-.88-3.45c-.81-1.57-3.3-3.56-7-5.58a40.45,40.45,0,0,0-10.56-4c-1.83-.47-3.91-1-6.38-1.84a57.7,57.7,0,0,1-11.2-5A29.6,29.6,0,0,0,44,54.68a21.36,21.36,0,0,0-3.75-1,28.54,28.54,0,0,0-5.43-.47L21.42,50.74c8.86-1.87,15.95-2.1,19.58-1.44a28,28,0,0,1,4.62,1.23,33.53,33.53,0,0,1,4.84,2.39A53,53,0,0,0,60.89,57.6c2.32.78,4.24,1.28,6.09,1.76a44.14,44.14,0,0,1,11.57,4.36c4.7,2.56,7.6,5,8.86,7.46a12.85,12.85,0,0,1,1.35,5,8.48,8.48,0,0,0,1.15,4c.66,1.14,2.51,3.86,5.45,4.64a5,5,0,0,0,3-.16,22.21,22.21,0,0,1,5.46-.76C107,83.81,111,83.74,114,86s3.23,5.18,3.72,9.33c.18,1.51.38,3.23.73,5.25,1.1,6.46,4.6,11.57,7.52,16a10.4,10.4,0,0,0,3.29,3.31,72.72,72.72,0,0,1,9.34,8.14c4.22,4.2,7.79,8.15,8.78,14C147.65,143.71,150.34,145.35,150.2,147Z"/><path class="cls-7" d="M53,58.17c-.91-6-2.56-9.77-4.67-10.54a10.31,10.31,0,0,0-1.13-.28,16.91,16.91,0,0,1-3.85-1.2c-2.15-1-2.59-9.76-4.3-11.57l3.6,5.17c.56,0,.93,1.6,2.54,2.33a12.66,12.66,0,0,0,2.92.9,12.62,12.62,0,0,1,1.75.46c3.87,1.41,6.34,6,7.56,14.07Z"/><path class="cls-8" d="M33.46,78.54,25,79.17c5.63-2,13.57-5.84,19.46-6.9a69.21,69.21,0,0,1,10.42-1,79.91,79.91,0,0,0,8.94-.71,84.61,84.61,0,0,0,15.84-3.87l1.48,4.21A88.9,88.9,0,0,1,64.47,75a86.15,86.15,0,0,1-9.41.76,62.71,62.71,0,0,0-9.8.93C39.61,77.68,36.26,77.7,33.46,78.54Z"/><path class="cls-9" d="M36.7,112.48a30,30,0,0,1-6.09-.62,36.58,36.58,0,0,1-6.73-2.13,21.34,21.34,0,0,0-4.72-1.48,15.72,15.72,0,0,0-3.11-.13,17.63,17.63,0,0,0-2.05.23L.87,108.23c1.08-.52,8.89-4.29,14.93-4.57a23,23,0,0,1,4.23.21,25.74,25.74,0,0,1,5.51,1.71,32.23,32.23,0,0,0,6,1.91c7.79,1.58,14.51-.64,23.82-3.72a51.48,51.48,0,0,0,6.19-2.48c2-.91,4.81-2.17,9.92-4.27S81.9,92.84,87.08,91l1.53,4.2c-5.12,1.87-10.33,3.89-15.48,6s-7.78,3.31-9.78,4.21A57.51,57.51,0,0,1,56.72,108C49.37,110.44,43.21,112.48,36.7,112.48Z"/><path class="cls-10" d="M44.34,91.75c5.09.33,10.71-3.63,15-5.36A42.61,42.61,0,0,0,69,80.64c3.64-2.69,6.79-5,10.48-3.75,2.72.93,4.73,3.6,6,7.93l-4.3,1.23c-.79-2.76-1.89-4.51-3.11-4.93-1.41-.48-3.26.8-6.39,3.11a26.66,26.66,0,0,1-7.82,4.47c-.68.28-5.18,3-8.13,3"/><path class="cls-11" d="M46.66,75.6a34.67,34.67,0,0,0-16.08-8.78c-3-.67-5.93-1.29-8.91-.11a12.16,12.16,0,0,0-3,1.8,33.91,33.91,0,0,1-4,2.61c-2.53,1.42-2,.57-4.86,1.31l-6.81.19c2.47-.64,7.3-4.17,9.49-5.39A30.53,30.53,0,0,0,16,64.93a16.37,16.37,0,0,1,4-2.37c4.25-1.68,8.11-.84,11.51-.11a39,39,0,0,1,18.19,9.89Z"/><path class="cls-12" d="M101.56,147c.43-2,2.43-2.76,3.29-5.06,1-2.52,3.09-3.52,6.63-5.17l1.74-.81a19.3,19.3,0,0,0,5.57-3.71c1.42-1.47,4.06-3.15,3.95-6.48s2.39-7.19,4.26-12.08a14.79,14.79,0,0,1,3.44-5.56,6.1,6.1,0,0,0,1.73-2.92c1.09-3.61-.06-5.95-2-9.84a47.55,47.55,0,0,1-4.9-14.5c-.42-2.58-.43-8.72-.45-22.18,0-1.52.06-2.78.11-3.89a32.87,32.87,0,0,0-.06-5.5c-.33-3.13-.45-10.25-5.24-14.6a13.62,13.62,0,0,0-5.37-2.94L105,24.14c2.13,0,11.21.36,17.69,7.27a34.62,34.62,0,0,1,6.67,17.43,36.89,36.89,0,0,1,.08,6.17c0,1.11-.11,2.26-.11,3.65,0,12.43,0,19.27.39,21.51a42.92,42.92,0,0,0,4.51,13.23c2.06,4.19,3.84,7.81,2.23,13.11a10.31,10.31,0,0,1-2.74,4.67,10.5,10.5,0,0,0-2.53,4.11,24.45,24.45,0,0,0-1.34,10.34c.12,3.53.77,6.87-2.09,9.78-.83.85-1.94,1.65-8.11,4.58l-1.77.83c-2.87,1.33,9.49,1.69,10.19,2.15,2,1.3,12,1.3,13,3.49Z"/><polygon class="cls-13" points="152.41 74.03 144.79 61.71 145.02 52.57 156.21 71.68 152.41 74.03"/><path class="cls-14" d="M133,102.24,132.24,98c2.83-1.55,4.08-3.1,6.4-5.28s5.1-5.43,10.35-15a104,104,0,0,0,4.8-9.73,20,20,0,0,1,3.09-5.39,42.37,42.37,0,0,1,15.81-12.2c4.64-2.2,8-2.57,12.74-3.08,2.57-.28,5.77-.63,9.95-1.36,2.1-.37,4.6-.83,7.5-1.5,2.74-.62,6.18-1.49,10.11-2.69,1.61-.5,3-1,4-1.3l19-2.14c-4.32,1.74-12.77,5-21.7,7.71-5.41,1.63-9.33,2.53-10.42,2.78-3,.68-5.56,1.16-7.72,1.54-4.32.75-7.6,1.11-10.24,1.4-4.58.49-7.35.79-11.31,2.67a38.29,38.29,0,0,0-14.2,10.91,16.1,16.1,0,0,0-2.51,4.41,106,106,0,0,1-5,10.11C147.35,90,144.24,93.57,141.7,96A42.56,42.56,0,0,1,133,102.24Z"/><path class="cls-15" d="M220,68.71a12.18,12.18,0,0,1-5.74-1.34,17,17,0,0,1-3.85-3,10.72,10.72,0,0,0-5.53-3.35,12.54,12.54,0,0,0-6,.28c-2.12.46-4.52,1-7.36-.09-3.77-1.45-6.65-5.16-8.54-11l4.25-1.37c1.46,4.52,3.44,7.29,5.89,8.23,1.59.61,2.93.31,4.8-.1a16.94,16.94,0,0,1,7.94-.28,15.27,15.27,0,0,1,7.63,4.47,16.85,16.85,0,0,0,2.84,2.25c1.68,1.1,4.75,1.7,10.85-.87l18.41-6.16C234.93,64.63,226.48,68.71,220,68.71Z"/><path class="cls-16" d="M196.33,94.29c-8.49,0-15.23-4.53-16.62-5.53a27.82,27.82,0,0,1-7-7.58,38.32,38.32,0,0,0-7.87-8.77,46.37,46.37,0,0,0-7.22-4.87l2.14-3.92A51.25,51.25,0,0,1,167.68,69a42.44,42.44,0,0,1,8.7,9.67,23.71,23.71,0,0,0,5.94,6.51c.81.58,8.13,5.66,16.55,4.51a12.51,12.51,0,0,0,6.79-3.09,17.55,17.55,0,0,1,8.85-4.08c4.33-.71,7.21.08,10.26.91a35.66,35.66,0,0,0,5.39,1.16,29.62,29.62,0,0,0,4.39.17,30.62,30.62,0,0,0,4.83-.54l15,0c-8.53,3.36-15.63,4.9-19.69,5a34,34,0,0,1-5.2-.21,40.64,40.64,0,0,1-5.92-1.27c-2.79-.76-5-1.37-8.36-.82a13.34,13.34,0,0,0-6.85,3.22,16.8,16.8,0,0,1-8.91,4A24.12,24.12,0,0,1,196.33,94.29Z"/><path class="cls-17" d="M235.29,116.25c-5.73-.68-9.11-1.6-13.47-2.31,0,0-1.77.63-7.52-2.75a26.7,26.7,0,0,1-5.63-4.38,7.63,7.63,0,0,0-4.17-2.56,15.09,15.09,0,0,0-4.67-.31c-2.05.09-4.18.19-6.33-1.38-2.59-1.9-3.91-5.3-3.94-10.11l4.47,0c0,3.28.74,5.53,2.11,6.53.84.62,1.68.61,3.49.53a19.65,19.65,0,0,1,5.94.43,12.06,12.06,0,0,1,6.22,3.7c1.11,1.09,0,.9,2.37,2.32,4,2.34,2.7,2.91,7.19,3.75,1.54.29,4.54,1.57,5.31,1.7C230.25,113.34,231.7,114.29,235.29,116.25Z"/><path class="cls-18" d="M238.82,105.28c-.31-.32-.79-.79-1.41-1.33a28.77,28.77,0,0,0-7.2-4.58c-2.88-1.46-5.61-2.83-7.22-6a12.1,12.1,0,0,1-1.08-6.92l4.44.49a7.79,7.79,0,0,0,.63,4.42c.9,1.8,2.42,2.63,5.24,4,0,0,.91.47,8.13,5.21a33.84,33.84,0,0,1,9.76,10Z"/><path class="cls-19" d="M198.64,47.37,194.4,46a13.69,13.69,0,0,1,4.54-6.73,12.18,12.18,0,0,1,3.29-1.81,4.26,4.26,0,0,0,1.9-1.14,2.81,2.81,0,0,0,.73-2.06,7.34,7.34,0,0,1,1.4-4.19c1.6-2.21,3.72-2.74,6-3.31a31,31,0,0,0,3.82-1.14c1.29-.5,2.52-1.14,2.52-1.14l.48-.25,8.12-1.57a21.21,21.21,0,0,1-6.55,5.79,28.25,28.25,0,0,1-2.78,1.26,35,35,0,0,1-4.52,1.38c-2,.51-2.83.74-3.46,1.61a3.13,3.13,0,0,0-.55,1.92,7.09,7.09,0,0,1-1.87,4.69,8.5,8.5,0,0,1-3.55,2.3,8.09,8.09,0,0,0-2.21,1.18A9.45,9.45,0,0,0,198.64,47.37Z"/><path class="cls-20" d="M127,40.42l-2.41-3.76a43.86,43.86,0,0,0,5-3.78,43,43,0,0,0,3.28-3.2s.9-.94,2.84-2.72,10.52-5.09,22.74-8.49L144.78,26a17,17,0,0,1-2.65,2.25c-1.64,1.11-2.17,1-3.59,2.16a21.39,21.39,0,0,0-2.38,2.29,44.35,44.35,0,0,1-3.6,3.51A48.85,48.85,0,0,1,127,40.42Z"/><path class="cls-21" d="M112.07,110a32.58,32.58,0,0,1-3.95-.23,31.67,31.67,0,0,1-16.45-6.72,31.34,31.34,0,0,1-10.6-17.12l4.35-1a26.86,26.86,0,0,0,9.06,14.66,27.21,27.21,0,0,0,14.17,5.76,29.07,29.07,0,0,0,6.85,0l.53,4.43A32.87,32.87,0,0,1,112.07,110Z"/><path class="cls-22" d="M124.75,66a68.12,68.12,0,0,0-9-4.94c-2.48-1.14-4.39-1.82-5.91-2.37-2.77-1-4.77-1.72-7-3.93a14.38,14.38,0,0,1-3.53-5.55c-.5-1.28-.73-1.87-1.71-2.44-1.3-.77-2.32-.53-4.32,0a13.46,13.46,0,0,1-8.48.18c-2-.67-3-1.5-5.22-3.51-1.44-1.28-3.61-3.22-7.22-6.15-1.48-1.2-3-2.4-4.49-3.56l-5.57-3.53c1.53,1.18,11.36,2.4,12.88,3.62,3.68,3,5.9,5,7.37,6.29,2.13,1.9,2.52,2.23,3.64,2.59,2.32.76,4,.3,5.9-.23,2.24-.62,4.78-1.33,7.77.43a8.11,8.11,0,0,1,3.61,4.66,9.83,9.83,0,0,0,2.5,4c1.56,1.53,2.84,2,5.4,2.92,1.6.58,3.6,1.3,6.25,2.51a71.66,71.66,0,0,1,9.56,5.26Z"/><path class="cls-23" d="M126.66,106.59c-2-3.41-1.77-5.24.83-8.11C129.72,101.66,129.47,104.12,126.66,106.59Z"/><path class="cls-24" d="M136.88,44.49c-1.95-3.41-1.76-5.25.83-8.12C139.94,39.55,139.69,42,136.88,44.49Z"/><path class="cls-25" d="M114.1,19.61c-2-3.41-1.77-5.24.83-8.11C117.16,14.68,116.91,17.14,114.1,19.61Z"/><path class="cls-26" d="M84.11,61.76c-2-3.41-1.76-5.24.83-8.11C87.17,56.83,86.93,59.29,84.11,61.76Z"/><path class="cls-27" d="M210,39.7c.75-3.86,2.09-5.12,5.93-5.6C215.58,38,213.79,39.67,210,39.7Z"/><path class="cls-28" d="M207.08,55c.75-3.86,2.09-5.12,5.93-5.59C212.62,53.22,210.82,54.92,207.08,55Z"/><path class="cls-29" d="M224.05,49.47c.75-3.86,2.09-5.12,5.93-5.6C229.59,47.74,227.79,49.44,224.05,49.47Z"/><path class="cls-30" d="M163.19,43.69c.75-3.86,2.08-5.12,5.92-5.6C168.73,42,166.93,43.66,163.19,43.69Z"/><path class="cls-31" d="M92.13,33.59c.75-3.86,2.09-5.12,5.93-5.6C97.67,31.86,95.87,33.56,92.13,33.59Z"/><path class="cls-32" d="M5.74,97.1c2.88-2.76,4.72-3,8.19-1.18C11.35,98.9,8.87,99.26,5.74,97.1Z"/><path class="cls-33" d="M188.12,84.62c2.87-2.77,4.72-3,8.18-1.19C193.73,86.41,191.24,86.77,188.12,84.62Z"/><path class="cls-34" d="M148.05,94.11c2.87-2.76,4.72-3,8.18-1.18C153.66,95.91,151.17,96.27,148.05,94.11Z"/><path class="cls-35" d="M51.14,81.19c2.87-2.76,4.72-3,8.18-1.18C56.74,83,54.26,83.35,51.14,81.19Z"/><path class="cls-36" d="M240.09,68.08c2.87-2.76,4.72-3,8.18-1.18C245.69,69.88,243.21,70.24,240.09,68.08Z"/><path class="cls-37" d="M21.89,45.6c2.87-2.77,4.72-3,8.18-1.19C27.5,47.39,25,47.75,21.89,45.6Z"/><path class="cls-38" d="M205.76,96c2.88-2.77,4.72-3,8.19-1.19C211.37,97.78,208.89,98.14,205.76,96Z"/><path class="cls-39" d="M233.45,79.24c2.87-2.77,4.72-3,8.19-1.19C239.06,81,236.58,81.39,233.45,79.24Z"/><path class="cls-40" d="M133.3,52.65c2.87-2.77,4.72-3,8.18-1.19C138.9,54.44,136.42,54.8,133.3,52.65Z"/><path class="cls-41" d="M25,58.27c2.87-2.76,4.72-3,8.18-1.19C30.61,60.07,28.13,60.43,25,58.27Z"/><path class="cls-42" d="M54,67.3c2.87-2.77,4.72-3,8.18-1.19C59.62,69.09,57.14,69.45,54,67.3Z"/><path class="cls-43" d="M32,102.73c2.87-2.76,4.72-3,8.18-1.18C37.63,104.53,35.15,104.89,32,102.73Z"/><path class="cls-44" d="M192.43,26.54c2.87-2.76,4.72-3,8.19-1.18C198,28.34,195.56,28.7,192.43,26.54Z"/><path class="cls-45" d="M91.88,94.11c2.87-2.76,4.72-3,8.18-1.18C97.48,95.91,95,96.27,91.88,94.11Z"/><path class="cls-46" d="M82.82,22.26c2.87-2.77,4.72-3,8.19-1.19C88.43,24.05,86,24.41,82.82,22.26Z"/><path class="cls-47" d="M229.36,52.65c2.87-2.77,4.72-3,8.18-1.19C235,54.44,232.48,54.8,229.36,52.65Z"/><path class="cls-48" d="M139.68,80.81c1.54,5.74.56,8.35-4.34,11.54C133.31,86.84,134.62,83.34,139.68,80.81Z"/><path class="cls-49" d="M180.78,19c1.54,5.74.56,8.34-4.34,11.53C174.41,25,175.72,21.5,180.78,19Z"/><path class="cls-50" d="M157.06,4.29c1.54,5.73.56,8.34-4.34,11.53C150.69,10.31,152,6.81,157.06,4.29Z"/><path class="cls-51" d="M163.33,23c1.54,5.74.56,8.35-4.34,11.54C157,29.06,158.26,25.56,163.33,23Z"/><path class="cls-52" d="M244.8,46.43c-5.66,1.82-8.31,1-11.73-3.76C238.47,40.36,242,41.5,244.8,46.43Z"/><path class="cls-53" d="M157.4,49.14c1.54,5.73.56,8.34-4.34,11.53C151,55.16,152.34,51.66,157.4,49.14Z"/><path class="cls-54" d="M203,64.75c-.6,5-2.19,6.71-7,7.68C196.08,67.47,198.2,65.14,203,64.75Z"/><path class="cls-55" d="M163.08,76.77c-.6,5-2.18,6.72-7,7.68C156.19,79.49,158.32,77.17,163.08,76.77Z"/><path class="cls-56" d="M187.92,73c-.59,5-2.18,6.72-7,7.68C181,75.75,183.16,73.42,187.92,73Z"/><path class="cls-57" d="M232.37,69c-.59,5-2.18,6.72-7,7.68C225.48,71.74,227.61,69.41,232.37,69Z"/><path class="cls-58" d="M76.29,87c-.59,5-2.18,6.71-7,7.68C69.4,89.7,71.53,87.37,76.29,87Z"/><path class="cls-59" d="M107.9,72.42c-1.28,5.81-3.35,7.67-9.17,8.24C99.46,74.84,102.24,72.34,107.9,72.42Z"/><path class="cls-60" d="M214.63,13.53c-1.28,5.8-3.35,7.66-9.17,8.23C206.19,15.94,209,13.44,214.63,13.53Z"/><path class="cls-61" d="M131.77.17c-1.27,5.8-3.34,7.66-9.16,8.24C123.34,2.58,126.12.08,131.77.17Z"/><path class="cls-62" d="M194.31,35.58c-1.27,5.8-3.34,7.66-9.16,8.24C185.88,38,188.66,35.49,194.31,35.58Z"/><path class="cls-63" d="M185,5.25c-1.27,5.81-3.34,7.67-9.16,8.24C176.55,7.67,179.33,5.17,185,5.25Z"/><path class="cls-64" d="M76.12,46.45c2.27,5.49,1.63,8.2-2.81,12C70.58,53.25,71.43,49.61,76.12,46.45Z"/><path class="cls-65" d="M209.85,75.47c-1.27,5.8-3.34,7.66-9.16,8.24C201.42,77.88,204.2,75.38,209.85,75.47Z"/><path class="cls-66" d="M119.27,41.72c-1.27,5.81-3.34,7.67-9.16,8.24C110.84,44.13,113.62,41.63,119.27,41.72Z"/><path class="cls-67" d="M57.28,93.54c-1.27,5.8-3.34,7.66-9.16,8.24C48.85,96,51.63,93.45,57.28,93.54Z"/><path class="cls-68" d="M24.76,69.78c-1.27,5.81-3.34,7.67-9.16,8.24C16.33,72.19,19.11,69.7,24.76,69.78Z"/><path class="cls-69" d="M9.16,79.59C7.89,85.39,5.82,87.25,0,87.83.73,82,3.51,79.5,9.16,79.59Z"/><path class="cls-70" d="M233.44,27.48c-1.27,5.81-3.34,7.67-9.16,8.24C225,29.89,227.79,27.39,233.44,27.48Z"/><path class="cls-71" d="M137.88,62.81c2.2,5.52,1.53,8.22-3,12C132.25,69.53,133.15,65.91,137.88,62.81Z"/><path class="cls-72" d="M98.88,8c2.19,5.53,1.54,8.22-2.88,11.92C93.35,14.69,94.22,11.08,98.88,8Z"/><path class="cls-73" d="M103.31,94.47c4.16.45,5.61,1.76,6.45,5.79C105.63,100.18,103.68,98.43,103.31,94.47Z"/><path class="cls-74" d="M71.36,11.1c4.15.46,5.6,1.76,6.44,5.79C73.68,16.81,71.72,15.06,71.36,11.1Z"/><path class="cls-75" d="M40.55,57.78c4.15.45,5.6,1.76,6.44,5.78C42.87,63.49,40.91,61.74,40.55,57.78Z"/><path class="cls-76" d="M64.15,35.65c4.15.45,5.61,1.76,6.45,5.78C66.47,41.36,64.51,39.61,64.15,35.65Z"/><path class="cls-77" d="M178.49,58.43c5.16.57,7,2.19,8,7.19C181.37,65.53,178.94,63.35,178.49,58.43Z"/><path class="cls-78" d="M238.85,90.87c5.16.57,7,2.19,8,7.2C241.73,98,239.3,95.8,238.85,90.87Z"/><path class="cls-79" d="M119.8,84.51c4.75,3.58,5.57,6.23,3.67,11.76C118.48,93.18,117.37,89.61,119.8,84.51Z"/><path class="cls-80" d="M126,14c4.75,3.58,5.57,6.24,3.67,11.77C124.66,22.66,123.55,19.1,126,14Z"/><path class="cls-81" d="M113.76,65.92c4.75,3.58,5.58,6.24,3.67,11.77C112.44,74.6,111.33,71,113.76,65.92Z"/><path class="cls-82" d="M62.46,17.15c4.74,3.58,5.57,6.24,3.67,11.77C61.14,25.82,60,22.26,62.46,17.15Z"/><path class="cls-83" d="M31.5,31c4.74,3.58,5.57,6.23,3.67,11.76C30.18,39.69,29.06,36.12,31.5,31Z"/><path class="cls-84" d="M148.57,31.64c4.74,3.57,5.57,6.23,3.67,11.76C147.25,40.31,146.13,36.74,148.57,31.64Z"/><path class="cls-85" d="M94.9,56.14c4.75,3.58,5.58,6.24,3.68,11.77C93.58,64.82,92.47,61.25,94.9,56.14Z"/><path class="cls-86" d="M52.33,31.64C57.07,35.21,57.9,37.87,56,43.4,51,40.31,49.89,36.74,52.33,31.64Z"/><path class="cls-87" d="M174.7,33.5c4.75,3.58,5.58,6.23,3.68,11.76C173.38,42.17,172.27,38.6,174.7,33.5Z"/><path class="cls-88" d="M33,82.59c5.43-2.42,8.16-1.86,12.07,2.49C39.93,88,36.27,87.19,33,82.59Z"/><path class="cls-89" d="M104.85,28.69c4.74,3.57,5.57,6.23,3.67,11.76C103.53,37.36,102.41,33.79,104.85,28.69Z"/><path class="cls-90" d="M104.85,0c4.74,3.58,5.57,6.23,3.67,11.76C103.53,8.67,102.41,5.11,104.85,0Z"/><path class="cls-91" d="M13.91,47.88c4.75,3.58,5.57,6.23,3.67,11.76C12.59,56.55,11.48,53,13.91,47.88Z"/><path class="cls-92" d="M22.35,84.77C27.09,88.35,27.92,91,26,96.53,21,93.44,19.91,89.88,22.35,84.77Z"/><path class="cls-93" d="M219.23,49.58c4.74,3.58,5.57,6.24,3.67,11.77C217.91,58.25,216.79,54.69,219.23,49.58Z"/><path class="cls-94" d="M220.38,100.48c5.93.21,8.14,1.9,9.76,7.52C224.28,108.34,221.31,106.06,220.38,100.48Z"/><path class="cls-95" d="M77.28,22.08C82,25.66,82.86,28.31,81,33.84,76,30.75,74.85,27.18,77.28,22.08Z"/><path class="cls-96" d="M194.83,5.88c4.75,3.58,5.58,6.23,3.68,11.76C193.51,14.55,192.4,11,194.83,5.88Z"/><path class="cls-97" d="M145.29,79.39c-3.53-3-4.06-5-2.38-9.24C146.65,72.74,147.38,75.54,145.29,79.39Z"/><path class="cls-98" d="M174.24,69.55c-3.53-3-4.07-5-2.38-9.24C175.6,62.9,176.32,65.7,174.24,69.55Z"/><path class="cls-99" d="M168.31,91c-3.53-3-4.07-5-2.38-9.24C169.67,84.38,170.39,87.19,168.31,91Z"/><path class="cls-100" d="M217.05,79.39c-3.53-3-4.07-5-2.38-9.24C218.41,72.74,219.13,75.54,217.05,79.39Z"/><path class="cls-101" d="M168.83,20.44c-3.53-3-4.07-5-2.38-9.24C170.19,13.78,170.91,16.59,168.83,20.44Z"/><path class="cls-102" d="M143.72,18.61c-3.53-2.95-4.07-5-2.38-9.24C145.08,12,145.8,14.76,143.72,18.61Z"/></g></g></svg>