<svg xmlns="http://www.w3.org/2000/svg" xmlns:xlink="http://www.w3.org/1999/xlink" viewBox="0 0 321.8 73.66"><defs><style>.cls-1{fill:#10271c;}.cls-2{font-size:13.02px;fill:#a6a8ab;font-family:AvenirLTStd-Book, Avenir LT Std;letter-spacing:0.2em;}.cls-3{letter-spacing:0.13em;}.cls-4{letter-spacing:0.2em;}.cls-5{letter-spacing:0.21em;}.cls-6{fill:url(#Dull_Brass);}.cls-7{fill:url(#Dull_Brass-2);}.cls-8{fill:url(#Dull_Brass-3);}.cls-9{fill:url(#Dull_Brass-4);}.cls-10{fill:url(#Dull_Brass-5);}.cls-11{fill:url(#Dull_Brass-6);}.cls-12{fill:url(#Dull_Brass-7);}.cls-13{fill:url(#Dull_Brass-8);}.cls-14{fill:url(#Dull_Brass-9);}.cls-15{fill:url(#Dull_Brass-10);}.cls-16{fill:url(#Dull_Brass-11);}.cls-17{fill:url(#Dull_Brass-12);}.cls-18{fill:url(#Dull_Brass-13);}.cls-19{fill:url(#Dull_Brass-14);}.cls-20{fill:url(#Dull_Brass-15);}.cls-21{fill:url(#Dull_Brass-16);}.cls-22{fill:url(#Dull_Brass-17);}.cls-23{fill:url(#Dull_Brass-18);}.cls-24{fill:url(#Dull_Brass-19);}.cls-25{fill:url(#Dull_Brass-20);}.cls-26{fill:url(#Dull_Brass-21);}.cls-27{fill:url(#Dull_Brass-22);}.cls-28{fill:url(#Dull_Brass-23);}.cls-29{fill:url(#Dull_Brass-24);}.cls-30{fill:url(#Dull_Brass-25);}.cls-31{fill:url(#Dull_Brass-26);}.cls-32{fill:url(#Dull_Brass-27);}.cls-33{fill:url(#Dull_Brass-28);}.cls-34{fill:url(#Dull_Brass-29);}.cls-35{fill:url(#Dull_Brass-30);}.cls-36{fill:url(#Dull_Brass-31);}.cls-37{fill:url(#Dull_Brass-32);}.cls-38{fill:url(#Dull_Brass-33);}.cls-39{fill:url(#Dull_Brass-34);}.cls-40{fill:url(#Dull_Brass-35);}.cls-41{fill:url(#Dull_Brass-36);}.cls-42{fill:url(#Dull_Brass-37);}.cls-43{fill:url(#Dull_Brass-38);}.cls-44{fill:url(#Dull_Brass-39);}.cls-45{fill:url(#Dull_Brass-40);}.cls-46{fill:url(#Dull_Brass-41);}.cls-47{fill:url(#Dull_Brass-42);}.cls-48{fill:url(#Dull_Brass-43);}.cls-49{fill:url(#Dull_Brass-44);}.cls-50{fill:url(#Dull_Brass-45);}.cls-51{fill:url(#Dull_Brass-46);}.cls-52{fill:url(#Dull_Brass-47);}.cls-53{fill:url(#Dull_Brass-48);}.cls-54{fill:url(#Dull_Brass-49);}.cls-55{fill:url(#Dull_Brass-50);}.cls-56{fill:url(#Dull_Brass-51);}.cls-57{fill:url(#Dull_Brass-52);}.cls-58{fill:url(#Dull_Brass-53);}.cls-59{fill:url(#Dull_Brass-54);}.cls-60{fill:url(#Dull_Brass-55);}.cls-61{fill:url(#Dull_Brass-56);}.cls-62{fill:url(#Dull_Brass-57);}.cls-63{fill:url(#Dull_Brass-58);}.cls-64{fill:url(#Dull_Brass-59);}.cls-65{fill:url(#Dull_Brass-60);}.cls-66{fill:url(#Dull_Brass-61);}.cls-67{fill:url(#Dull_Brass-62);}.cls-68{fill:url(#Dull_Brass-63);}.cls-69{fill:url(#Dull_Brass-64);}.cls-70{fill:url(#Dull_Brass-65);}.cls-71{fill:url(#Dull_Brass-66);}.cls-72{fill:url(#Dull_Brass-67);}.cls-73{fill:url(#Dull_Brass-68);}.cls-74{fill:url(#Dull_Brass-69);}.cls-75{fill:url(#Dull_Brass-70);}.cls-76{fill:url(#Dull_Brass-71);}.cls-77{fill:url(#Dull_Brass-72);}.cls-78{fill:url(#Dull_Brass-73);}.cls-79{fill:url(#Dull_Brass-74);}.cls-80{fill:url(#Dull_Brass-75);}.cls-81{fill:url(#Dull_Brass-76);}.cls-82{fill:url(#Dull_Brass-77);}.cls-83{fill:url(#Dull_Brass-78);}.cls-84{fill:url(#Dull_Brass-79);}.cls-85{fill:url(#Dull_Brass-80);}.cls-86{fill:url(#Dull_Brass-81);}.cls-87{fill:url(#Dull_Brass-82);}.cls-88{fill:url(#Dull_Brass-83);}.cls-89{fill:url(#Dull_Brass-84);}.cls-90{fill:url(#Dull_Brass-85);}.cls-91{fill:url(#Dull_Brass-86);}.cls-92{fill:url(#Dull_Brass-87);}.cls-93{fill:url(#Dull_Brass-88);}.cls-94{fill:url(#Dull_Brass-89);}.cls-95{fill:url(#Dull_Brass-90);}.cls-96{fill:url(#Dull_Brass-91);}.cls-97{fill:url(#Dull_Brass-92);}.cls-98{fill:url(#Dull_Brass-93);}.cls-99{fill:url(#Dull_Brass-94);}.cls-100{fill:url(#Dull_Brass-95);}.cls-101{fill:url(#Dull_Brass-96);}.cls-102{fill:url(#Dull_Brass-97);}</style><linearGradient id="Dull_Brass" x1="-6.69" y1="13.6" x2="148.2" y2="113.94" gradientUnits="userSpaceOnUse"><stop offset="0.01" stop-color="#eac17d"/><stop offset="0.19" stop-color="#deb77c"/><stop offset="0.6" stop-color="#bf8229"/><stop offset="0.87" stop-color="#eabe80"/><stop offset="1" stop-color="#eddbc3"/></linearGradient><linearGradient id="Dull_Brass-2" x1="-2.29" y1="6.8" x2="152.6" y2="107.15" xlink:href="#Dull_Brass"/><linearGradient id="Dull_Brass-3" x1="-7.43" y1="14.74" x2="147.46" y2="115.09" xlink:href="#Dull_Brass"/><linearGradient id="Dull_Brass-4" x1="-14.77" y1="26.06" x2="140.12" y2="126.41" xlink:href="#Dull_Brass"/><linearGradient id="Dull_Brass-5" x1="-8.59" y1="16.53" x2="146.29" y2="116.88" xlink:href="#Dull_Brass"/><linearGradient id="Dull_Brass-6" x1="-11.08" y1="20.36" x2="143.81" y2="120.71" xlink:href="#Dull_Brass"/><linearGradient id="Dull_Brass-7" x1="-2.21" y1="6.68" x2="152.67" y2="107.03" xlink:href="#Dull_Brass"/><linearGradient id="Dull_Brass-8" x1="9.05" y1="-10.7" x2="163.94" y2="89.65" xlink:href="#Dull_Brass"/><linearGradient id="Dull_Brass-9" x1="12.76" y1="-16.43" x2="167.65" y2="83.92" xlink:href="#Dull_Brass"/><linearGradient id="Dull_Brass-10" x1="20.4" y1="-28.22" x2="175.28" y2="72.13" xlink:href="#Dull_Brass"/><linearGradient id="Dull_Brass-11" x1="13.87" y1="-18.15" x2="168.76" y2="82.2" xlink:href="#Dull_Brass"/><linearGradient id="Dull_Brass-12" x1="8.24" y1="-9.44" x2="163.12" y2="90.91" xlink:href="#Dull_Brass"/><linearGradient id="Dull_Brass-13" x1="13.97" y1="-18.3" x2="168.85" y2="82.04" xlink:href="#Dull_Brass"/><linearGradient id="Dull_Brass-14" x1="24.87" y1="-35.12" x2="179.76" y2="65.22" xlink:href="#Dull_Brass"/><linearGradient id="Dull_Brass-15" x1="15.91" y1="-21.28" x2="170.79" y2="79.07" xlink:href="#Dull_Brass"/><linearGradient id="Dull_Brass-16" x1="-6.91" y1="13.93" x2="147.98" y2="114.28" xlink:href="#Dull_Brass"/><linearGradient id="Dull_Brass-17" x1="4.84" y1="-4.21" x2="159.73" y2="96.14" xlink:href="#Dull_Brass"/><linearGradient id="Dull_Brass-18" x1="-3.13" y1="8.1" x2="151.76" y2="108.45" xlink:href="#Dull_Brass"/><linearGradient id="Dull_Brass-19" x1="12.59" y1="-16.16" x2="167.47" y2="84.19" xlink:href="#Dull_Brass"/><linearGradient id="Dull_Brass-20" x1="14.9" y1="-19.73" x2="169.79" y2="80.62" xlink:href="#Dull_Brass"/><linearGradient id="Dull_Brass-21" x1="0.82" y1="2" x2="155.71" y2="102.35" xlink:href="#Dull_Brass"/><linearGradient id="Dull_Brass-22" x1="24.61" y1="-34.72" x2="179.5" y2="65.63" xlink:href="#Dull_Brass"/><linearGradient id="Dull_Brass-23" x1="20.68" y1="-28.65" x2="175.57" y2="71.69" xlink:href="#Dull_Brass"/><linearGradient id="Dull_Brass-24" x1="24.45" y1="-34.47" x2="179.34" y2="65.88" xlink:href="#Dull_Brass"/><linearGradient id="Dull_Brass-25" x1="16.76" y1="-22.59" x2="171.64" y2="77.76" xlink:href="#Dull_Brass"/><linearGradient id="Dull_Brass-26" x1="8.54" y1="-9.91" x2="163.42" y2="90.44" xlink:href="#Dull_Brass"/><linearGradient id="Dull_Brass-27" x1="-19.12" y1="32.78" x2="135.77" y2="133.13" xlink:href="#Dull_Brass"/><linearGradient id="Dull_Brass-28" x1="10.75" y1="-13.33" x2="165.64" y2="87.02" xlink:href="#Dull_Brass"/><linearGradient id="Dull_Brass-29" x1="2.65" y1="-0.81" x2="157.53" y2="99.53" xlink:href="#Dull_Brass"/><linearGradient id="Dull_Brass-30" x1="-8.76" y1="16.78" x2="146.13" y2="117.13" xlink:href="#Dull_Brass"/><linearGradient id="Dull_Brass-31" x1="22.23" y1="-31.05" x2="177.12" y2="69.3" xlink:href="#Dull_Brass"/><linearGradient id="Dull_Brass-32" x1="-4.95" y1="10.91" x2="149.94" y2="111.26" xlink:href="#Dull_Brass"/><linearGradient id="Dull_Brass-33" x1="10.77" y1="-13.35" x2="165.65" y2="87" xlink:href="#Dull_Brass"/><linearGradient id="Dull_Brass-34" x1="18.7" y1="-25.59" x2="173.59" y2="74.76" xlink:href="#Dull_Brass"/><linearGradient id="Dull_Brass-35" x1="9.94" y1="-12.08" x2="164.83" y2="88.27" xlink:href="#Dull_Brass"/><linearGradient id="Dull_Brass-36" x1="-7.39" y1="14.67" x2="147.5" y2="115.02" xlink:href="#Dull_Brass"/><linearGradient id="Dull_Brass-37" x1="-5.15" y1="11.22" x2="149.73" y2="111.57" xlink:href="#Dull_Brass"/><linearGradient id="Dull_Brass-38" x1="-16.51" y1="28.76" x2="138.37" y2="129.11" xlink:href="#Dull_Brass"/><linearGradient id="Dull_Brass-39" x1="24.67" y1="-34.81" x2="179.56" y2="65.54" xlink:href="#Dull_Brass"/><linearGradient id="Dull_Brass-40" x1="-5.68" y1="12.03" x2="149.21" y2="112.38" xlink:href="#Dull_Brass"/><linearGradient id="Dull_Brass-41" x1="9.41" y1="-11.26" x2="164.3" y2="89.09" xlink:href="#Dull_Brass"/><linearGradient id="Dull_Brass-42" x1="24.17" y1="-34.04" x2="179.06" y2="66.31" xlink:href="#Dull_Brass"/><linearGradient id="Dull_Brass-43" x1="2.07" y1="0.08" x2="156.95" y2="100.43" xlink:href="#Dull_Brass"/><linearGradient id="Dull_Brass-44" x1="22.3" y1="-31.15" x2="177.18" y2="69.2" xlink:href="#Dull_Brass"/><linearGradient id="Dull_Brass-45" x1="22.14" y1="-30.9" x2="177.03" y2="69.45" xlink:href="#Dull_Brass"/><linearGradient id="Dull_Brass-46" x1="18.78" y1="-25.72" x2="173.67" y2="74.63" xlink:href="#Dull_Brass"/><linearGradient id="Dull_Brass-47" x1="26.74" y1="-38.01" x2="181.63" y2="62.34" xlink:href="#Dull_Brass"/><linearGradient id="Dull_Brass-48" x1="11.93" y1="-15.15" x2="166.82" y2="85.2" xlink:href="#Dull_Brass"/><linearGradient id="Dull_Brass-49" x1="15.36" y1="-20.43" x2="170.24" y2="79.92" xlink:href="#Dull_Brass"/><linearGradient id="Dull_Brass-50" x1="6.7" y1="-7.07" x2="161.58" y2="93.28" xlink:href="#Dull_Brass"/><linearGradient id="Dull_Brass-51" x1="11.23" y1="-14.07" x2="166.12" y2="86.28" xlink:href="#Dull_Brass"/><linearGradient id="Dull_Brass-52" x1="18.74" y1="-25.65" x2="173.62" y2="74.7" xlink:href="#Dull_Brass"/><linearGradient id="Dull_Brass-53" x1="-8.49" y1="16.38" x2="146.39" y2="116.73" xlink:href="#Dull_Brass"/><linearGradient id="Dull_Brass-54" x1="-0.71" y1="4.36" x2="154.18" y2="104.71" xlink:href="#Dull_Brass"/><linearGradient id="Dull_Brass-55" x1="28.57" y1="-40.83" x2="183.46" y2="59.51" xlink:href="#Dull_Brass"/><linearGradient id="Dull_Brass-56" x1="19.35" y1="-26.6" x2="174.24" y2="73.74" xlink:href="#Dull_Brass"/><linearGradient id="Dull_Brass-57" x1="20.52" y1="-28.41" x2="175.41" y2="71.94" xlink:href="#Dull_Brass"/><linearGradient id="Dull_Brass-58" x1="26.07" y1="-36.98" x2="180.96" y2="63.37" xlink:href="#Dull_Brass"/><linearGradient id="Dull_Brass-59" x1="0.57" y1="2.39" x2="155.45" y2="102.74" xlink:href="#Dull_Brass"/><linearGradient id="Dull_Brass-60" x1="13.7" y1="-17.88" x2="168.59" y2="82.47" xlink:href="#Dull_Brass"/><linearGradient id="Dull_Brass-61" x1="8" y1="-9.08" x2="162.89" y2="91.27" xlink:href="#Dull_Brass"/><linearGradient id="Dull_Brass-62" x1="-13.03" y1="23.38" x2="141.86" y2="123.73" xlink:href="#Dull_Brass"/><linearGradient id="Dull_Brass-63" x1="-12.42" y1="22.43" x2="142.47" y2="122.78" xlink:href="#Dull_Brass"/><linearGradient id="Dull_Brass-64" x1="-16.97" y1="29.46" x2="137.92" y2="129.81" xlink:href="#Dull_Brass"/><linearGradient id="Dull_Brass-65" x1="28.17" y1="-40.21" x2="183.06" y2="60.14" xlink:href="#Dull_Brass"/><linearGradient id="Dull_Brass-66" x1="5.97" y1="-5.94" x2="160.86" y2="94.4" xlink:href="#Dull_Brass"/><linearGradient id="Dull_Brass-67" x1="12.73" y1="-16.38" x2="167.62" y2="83.97" xlink:href="#Dull_Brass"/><linearGradient id="Dull_Brass-68" x1="-5.01" y1="11.01" x2="149.87" y2="111.36" xlink:href="#Dull_Brass"/><linearGradient id="Dull_Brass-69" x1="9.31" y1="-11.11" x2="164.2" y2="89.24" xlink:href="#Dull_Brass"/><linearGradient id="Dull_Brass-70" x1="-5.92" y1="12.41" x2="148.96" y2="112.76" xlink:href="#Dull_Brass"/><linearGradient id="Dull_Brass-71" x1="2.63" y1="-0.8" x2="157.52" y2="99.55" xlink:href="#Dull_Brass"/><linearGradient id="Dull_Brass-72" x1="14.31" y1="-18.82" x2="169.2" y2="81.53" xlink:href="#Dull_Brass"/><linearGradient id="Dull_Brass-73" x1="15.83" y1="-21.17" x2="170.72" y2="79.18" xlink:href="#Dull_Brass"/><linearGradient id="Dull_Brass-74" x1="-1.16" y1="5.06" x2="153.73" y2="105.4" xlink:href="#Dull_Brass"/><linearGradient id="Dull_Brass-75" x1="15.88" y1="-21.24" x2="170.77" y2="79.1" xlink:href="#Dull_Brass"/><linearGradient id="Dull_Brass-76" x1="2.2" y1="-0.12" x2="157.08" y2="100.23" xlink:href="#Dull_Brass"/><linearGradient id="Dull_Brass-77" x1="5.75" y1="-5.61" x2="160.64" y2="94.74" xlink:href="#Dull_Brass"/><linearGradient id="Dull_Brass-78" x1="-2.01" y1="6.37" x2="152.88" y2="106.72" xlink:href="#Dull_Brass"/><linearGradient id="Dull_Brass-79" x1="15.19" y1="-20.18" x2="170.08" y2="80.17" xlink:href="#Dull_Brass"/><linearGradient id="Dull_Brass-80" x1="1.64" y1="0.74" x2="156.53" y2="101.09" xlink:href="#Dull_Brass"/><linearGradient id="Dull_Brass-81" x1="0.94" y1="1.82" x2="155.82" y2="102.17" xlink:href="#Dull_Brass"/><linearGradient id="Dull_Brass-82" x1="18.64" y1="-25.5" x2="173.53" y2="74.85" xlink:href="#Dull_Brass"/><linearGradient id="Dull_Brass-83" x1="-11.94" y1="21.69" x2="142.95" y2="122.04" xlink:href="#Dull_Brass"/><linearGradient id="Dull_Brass-84" x1="9.39" y1="-11.23" x2="164.28" y2="89.12" xlink:href="#Dull_Brass"/><linearGradient id="Dull_Brass-85" x1="15.95" y1="-21.35" x2="170.84" y2="79" xlink:href="#Dull_Brass"/><linearGradient id="Dull_Brass-86" x1="-8.47" y1="16.34" x2="146.42" y2="116.69" xlink:href="#Dull_Brass"/><linearGradient id="Dull_Brass-87" x1="-15.65" y1="27.43" x2="139.23" y2="127.78" xlink:href="#Dull_Brass"/><linearGradient id="Dull_Brass-88" x1="21.56" y1="-30.01" x2="176.44" y2="70.34" xlink:href="#Dull_Brass"/><linearGradient id="Dull_Brass-89" x1="10.99" y1="-13.69" x2="165.87" y2="86.66" xlink:href="#Dull_Brass"/><linearGradient id="Dull_Brass-90" x1="6.82" y1="-7.26" x2="161.71" y2="93.09" xlink:href="#Dull_Brass"/><linearGradient id="Dull_Brass-91" x1="27.94" y1="-39.85" x2="182.82" y2="60.5" xlink:href="#Dull_Brass"/><linearGradient id="Dull_Brass-92" x1="5.74" y1="-5.59" x2="160.63" y2="94.75" xlink:href="#Dull_Brass"/><linearGradient id="Dull_Brass-93" x1="12.28" y1="-15.69" x2="167.17" y2="84.66" xlink:href="#Dull_Brass"/><linearGradient id="Dull_Brass-94" x1="6.49" y1="-6.75" x2="161.38" y2="93.6" xlink:href="#Dull_Brass"/><linearGradient id="Dull_Brass-95" x1="16.37" y1="-22" x2="171.26" y2="78.35" xlink:href="#Dull_Brass"/><linearGradient id="Dull_Brass-96" x1="22.71" y1="-31.78" x2="177.59" y2="68.57" xlink:href="#Dull_Brass"/><linearGradient id="Dull_Brass-97" x1="19.41" y1="-26.68" x2="174.29" y2="73.66" xlink:href="#Dull_Brass"/></defs><title>Asset 3</title><g id="Layer_2" data-name="Layer 2"><g id="Layer_1-2" data-name="Layer 1"><path class="cls-1" d="M195.45,39a25.13,25.13,0,0,1-10.9,2.37C175.5,41.41,169,36,169,28.06s7-13.35,15.67-13.35c3.82,0,7.52.9,10.28,3.34l-2.59,2.37a11.77,11.77,0,0,0-7.94-2.91c-6.66,0-11.72,4.38-11.72,10.55s4.89,10.55,12,10.55A19.3,19.3,0,0,0,192,37.14V29.35h-6.71v-2.8h10.16Z"/><path class="cls-1" d="M184.55,42.13c-9.58,0-16.27-5.79-16.27-14.07S175.18,14,184.68,14c4.5,0,8.12,1.18,10.76,3.52l.6.53-3.68,3.36-.49-.46a11,11,0,0,0-7.44-2.71c-6.37,0-11,4.13-11,9.83s4.66,9.82,11.33,9.82a18.58,18.58,0,0,0,6.51-1.23V30.07h-6.7V25.83h11.6V39.49l-.4.2A25.85,25.85,0,0,1,184.55,42.13Zm.13-26.7c-8.66,0-15,5.31-15,12.63s6.09,12.62,14.82,12.62a24.55,24.55,0,0,0,10.18-2.1V27.27H186v1.36h6.7v9l-.43.19a19.82,19.82,0,0,1-7.53,1.53c-7.4,0-12.78-4.74-12.78-11.27s5.24-11.27,12.45-11.27a12.71,12.71,0,0,1,7.93,2.66l1.49-1.37A14.77,14.77,0,0,0,184.68,15.43Z"/><path class="cls-1" d="M210.92,15.36h3.45v25.4h-3.45Z"/><path class="cls-1" d="M215.09,41.48h-4.9V14.63h4.9ZM211.64,40h2v-24h-2Z"/><path class="cls-1" d="M229.84,15.36h7.44c5.63,0,11.6.71,11.6,7,0,3.7-2.76,6.1-7.28,6.71l8.26,11.7h-4.23l-7.9-11.41h-4.44V40.76h-3.45Zm3.45,11.19h3.09c3.82,0,8.8,0,8.8-4.2,0-3.66-3.66-4.19-7-4.19h-4.85Z"/><path class="cls-1" d="M251.26,41.48h-6l-7.9-11.41H234V41.48h-4.9V14.63h8.17c4,0,12.32,0,12.32,7.72,0,3.67-2.5,6.31-6.75,7.23ZM246,40h2.46l-8.15-11.53,1.18-.16c4.23-.57,6.65-2.76,6.65-6,0-5.2-4.34-6.27-10.87-6.27h-6.72V40h2V28.63h5.54Zm-9.63-12.77h-3.81V17.43h5.57c2.12,0,7.76,0,7.76,4.92S240.17,27.27,236.38,27.27ZM234,25.83h2.37c4.57,0,8.07-.26,8.07-3.48,0-2.43-1.88-3.47-6.31-3.47H234Z"/><path class="cls-1" d="M272.65,15.36h3.25l12.38,25.4h-4l-3-6.24H266.73l-3,6.24h-3.91Zm1.56,3.87h-.08l-6,12.49H280Z"/><path class="cls-1" d="M289.44,41.48h-5.65l-3-6.24H267.18l-3,6.24h-5.54l13.57-26.85h4.14ZM284.71,40h2.41l-11.67-24H273.1L261,40h2.28l3-6.25h15.47Zm-3.61-7.6H266.93l6.75-13.93h1ZM269.24,31h9.6l-4.68-10.16Z"/><path class="cls-1" d="M300.37,15.36h7.45c5.63,0,11.59.71,11.59,7,0,3.7-2.75,6.1-7.28,6.71l8.27,11.7h-4.24l-7.89-11.41h-4.44V40.76h-3.46Zm3.46,11.19h3.08c3.83,0,8.8,0,8.8-4.2,0-3.66-3.66-4.19-7-4.19h-4.85Z"/><path class="cls-1" d="M321.8,41.48h-6l-7.9-11.41h-3.34V41.48h-4.9V14.63h8.17c4,0,12.32,0,12.32,7.72,0,3.67-2.5,6.31-6.76,7.23ZM316.54,40H319l-8.15-11.53,1.19-.16c4.23-.57,6.65-2.76,6.65-6,0-5.2-4.35-6.27-10.87-6.27h-6.73V40h2V28.63h5.55Zm-9.63-12.77H303.1V17.43h5.58c2.12,0,7.76,0,7.76,4.92S310.7,27.27,306.91,27.27Zm-2.36-1.44h2.36c4.58,0,8.08-.26,8.08-3.48,0-2.43-1.89-3.47-6.31-3.47h-4.13Z"/><text class="cls-2" transform="translate(168.8 60.06)">A<tspan class="cls-3" x="11.53" y="0">P</tspan><tspan class="cls-4" x="20.64" y="0">A</tspan><tspan class="cls-5" x="32.17" y="0">R</tspan><tspan class="cls-4" x="42.57" y="0">TMENTS</tspan></text><path class="cls-6" d="M75.26,73.66l-7.84-.2c0-.64,1-1.53,1-2.15,0-3.64-1-3.33-3.17-5.55S63,62.51,62.13,61.9a7.23,7.23,0,0,1-2.2-2.24c-1.71-2.62-2.19-5.38-2.78-8.88-.19-1.06-.29-2-.39-2.74-.23-2-.34-2.66-1-3.15-.89-.68-2.32-.65-3.71-.63a9,9,0,0,0-2.24.32,4.64,4.64,0,0,1-2.62.07,7.2,7.2,0,0,1-4.08-3.36,6.34,6.34,0,0,1-.87-2.88,4.47,4.47,0,0,0-.44-1.72,9.06,9.06,0,0,0-3.52-2.8,20.3,20.3,0,0,0-5.29-2c-.92-.24-2-.51-3.2-.93a29.4,29.4,0,0,1-5.62-2.51A14.34,14.34,0,0,0,22,27.4a10.69,10.69,0,0,0-1.88-.5,14,14,0,0,0-2.72-.23l-6.7-1.24a29,29,0,0,1,9.81-.73,14.22,14.22,0,0,1,2.32.62,15.58,15.58,0,0,1,2.42,1.2,27,27,0,0,0,5.23,2.34c1.16.39,2.12.64,3.05.89a22,22,0,0,1,5.8,2.18c2.35,1.28,3.81,2.5,4.44,3.74a6.41,6.41,0,0,1,.67,2.51,4.31,4.31,0,0,0,.58,2,5,5,0,0,0,2.73,2.33,2.52,2.52,0,0,0,1.5-.09A11.68,11.68,0,0,1,52,42c1.6,0,3.6-.06,5.1,1.08s1.62,2.6,1.87,4.68c.09.76.19,1.61.36,2.63.55,3.24,2.31,5.79,3.77,8a5.23,5.23,0,0,0,1.65,1.66,36.08,36.08,0,0,1,4.68,4.08c2.11,2.1,3.9,4.08,4.4,7C74,72,75.33,72.83,75.26,73.66Z"/><path class="cls-7" d="M26.57,29.15c-.46-3-1.29-4.9-2.34-5.28a4,4,0,0,0-.57-.14,8.67,8.67,0,0,1-1.93-.6c-1.07-.49-1.3-4.9-2.15-5.8l1.8,2.59c.28,0,.46.8,1.28,1.17a6.27,6.27,0,0,0,1.45.45,6,6,0,0,1,.88.23c1.94.7,3.18,3,3.79,7.05Z"/><path class="cls-8" d="M16.77,39.36l-4.24.31c2.82-1,6.8-2.92,9.75-3.46a34.84,34.84,0,0,1,5.22-.5A39,39,0,0,0,32,35.35a42,42,0,0,0,7.94-1.93l.74,2.11a45,45,0,0,1-8.36,2,42,42,0,0,1-4.71.38,32.61,32.61,0,0,0-4.91.46C19.85,38.93,18.17,38.93,16.77,39.36Z"/><path class="cls-9" d="M18.39,56.36a15.48,15.48,0,0,1-3.05-.31A17.7,17.7,0,0,1,12,55a11.4,11.4,0,0,0-2.37-.74A7.73,7.73,0,0,0,8,54.18a7.76,7.76,0,0,0-1,.11L.44,54.23C1,54,4.89,52.08,7.92,51.94a11.31,11.31,0,0,1,2.12.11,13.3,13.3,0,0,1,2.76.85,15.84,15.84,0,0,0,3,1c3.91.79,7.28-.32,11.94-1.86a29,29,0,0,0,3.1-1.24c1-.46,2.41-1.09,5-2.15s5.25-2.09,7.84-3l.77,2.11c-2.57.93-5.18,1.94-7.76,3s-3.9,1.66-4.9,2.11a25.75,25.75,0,0,1-3.32,1.33C24.74,55.34,21.65,56.36,18.39,56.36Z"/><path class="cls-10" d="M22.22,46c2.55.17,5.36-1.81,7.52-2.68a21.47,21.47,0,0,0,4.81-2.89c1.82-1.34,3.4-2.5,5.25-1.87,1.36.46,2.37,1.8,3,4l-2.15.62c-.4-1.39-1-2.26-1.56-2.47s-1.63.4-3.2,1.56A13.47,13.47,0,0,1,32,44.44c-.34.15-2.6,1.53-4.08,1.53"/><path class="cls-11" d="M23.38,37.88a17.41,17.41,0,0,0-8.06-4.4,7.31,7.31,0,0,0-4.46,0,6.23,6.23,0,0,0-1.49.9,17.31,17.31,0,0,1-2,1.31c-1.27.71-1,.28-2.44.65l-3.41.1c1.24-.32,3.66-2.09,4.76-2.71A14.14,14.14,0,0,0,8,32.53a8.18,8.18,0,0,1,2-1.18,9.33,9.33,0,0,1,5.77-.06,19.55,19.55,0,0,1,9.11,5Z"/><path class="cls-12" d="M50.89,73.66c.21-1,1.21-1.39,1.65-2.54s1.54-1.76,3.32-2.59l.87-.41a9.48,9.48,0,0,0,2.79-1.85c.71-.74,2-1.58,2-3.25s1.2-3.61,2.14-6.05a7.29,7.29,0,0,1,1.72-2.79,3.05,3.05,0,0,0,.87-1.46c.54-1.81,0-3-1-4.93a23.76,23.76,0,0,1-2.46-7.27c-.21-1.29-.21-4.37-.22-11.11,0-.77,0-1.4,0-1.95a16,16,0,0,0,0-2.76c-.16-1.57-.22-5.13-2.62-7.31a6.71,6.71,0,0,0-2.69-1.47L52.6,12.1a12.59,12.59,0,0,1,8.87,3.64,17.41,17.41,0,0,1,3.34,8.73,19.18,19.18,0,0,1,0,3.1c0,.55-.06,1.13-.06,1.82,0,6.23,0,9.66.2,10.78a21.33,21.33,0,0,0,2.26,6.63c1,2.1,1.92,3.92,1.12,6.57A5.19,5.19,0,0,1,67,55.71a5.21,5.21,0,0,0-1.26,2.06A12.29,12.29,0,0,0,65.05,63c.06,1.77.39,3.44-1,4.9-.42.43-1,.83-4.07,2.29l-.88.42c-1.44.67,4.75.85,5.1,1.08,1,.65,6,.65,6.51,1.74Z"/><polygon class="cls-13" points="76.37 37.09 72.55 30.92 72.67 26.34 78.27 35.92 76.37 37.09"/><path class="cls-14" d="M66.65,51.23l-.39-2.14a14,14,0,0,0,3.21-2.64c1.14-1.07,2.55-2.72,5.18-7.54A53.29,53.29,0,0,0,77.06,34a10,10,0,0,1,1.55-2.7,21.26,21.26,0,0,1,7.92-6.11,17.4,17.4,0,0,1,6.38-1.55c1.29-.14,2.89-.31,5-.68,1-.18,2.3-.41,3.76-.75s3.1-.74,5.06-1.35c.81-.24,1.49-.47,2-.64l9.52-1.08c-2.17.87-6.4,2.52-10.88,3.86-2.71.82-4.67,1.27-5.22,1.4-1.5.34-2.78.58-3.87.77-2.16.38-3.81.55-5.13.7a15.41,15.41,0,0,0-5.67,1.34,19.21,19.21,0,0,0-7.11,5.47,8,8,0,0,0-1.26,2.2A50.77,50.77,0,0,1,76.62,40c-2.79,5.1-4.35,6.9-5.62,8.1A21.28,21.28,0,0,1,66.65,51.23Z"/><path class="cls-15" d="M110.26,34.43a6.18,6.18,0,0,1-2.88-.67,8.8,8.8,0,0,1-1.93-1.49,5.35,5.35,0,0,0-2.77-1.68,6.25,6.25,0,0,0-3,.14A5.94,5.94,0,0,1,96,30.68c-1.9-.72-3.34-2.58-4.28-5.52l2.13-.69c.73,2.27,1.72,3.65,3,4.12a3.8,3.8,0,0,0,2.4-.05,8.53,8.53,0,0,1,4-.13A7.61,7.61,0,0,1,107,30.64a8.39,8.39,0,0,0,1.43,1.13c.84.55,2.38.85,5.43-.43l9.23-3.09C117.71,32.38,113.48,34.43,110.26,34.43Z"/><path class="cls-16" d="M98.38,47.25a15.07,15.07,0,0,1-8.33-2.78,13.91,13.91,0,0,1-3.51-3.79,18.88,18.88,0,0,0-3.94-4.4A23.42,23.42,0,0,0,79,33.84l1.08-2a25.21,25.21,0,0,1,4,2.67,21.32,21.32,0,0,1,4.36,4.85,11.68,11.68,0,0,0,3,3.26,12.54,12.54,0,0,0,8.29,2.26,6.27,6.27,0,0,0,3.4-1.55,8.88,8.88,0,0,1,4.43-2,10.84,10.84,0,0,1,5.14.45,18.12,18.12,0,0,0,2.7.59,16.12,16.12,0,0,0,2.2.08,15.7,15.7,0,0,0,2.42-.27h7.53a33.32,33.32,0,0,1-9.86,2.52,18.27,18.27,0,0,1-2.61-.11,19.32,19.32,0,0,1-3-.64,8.84,8.84,0,0,0-4.19-.41,6.75,6.75,0,0,0-3.43,1.61,8.36,8.36,0,0,1-4.46,2A12.2,12.2,0,0,1,98.38,47.25Z"/><path class="cls-17" d="M117.9,58.25c-2.87-.34-4.57-.8-6.76-1.16,0,0-.88.32-3.76-1.38a13,13,0,0,1-2.82-2.19,3.87,3.87,0,0,0-2.09-1.29,7.73,7.73,0,0,0-2.34-.15A4.51,4.51,0,0,1,97,51.39c-1.3-1-2-2.66-2-5.07h2.24c0,1.64.37,2.77,1.06,3.27.42.31.84.31,1.75.27a9.8,9.8,0,0,1,3,.21,6,6,0,0,1,3.12,1.86c.56.54,0,.45,1.19,1.16,2,1.17,1.35,1.46,3.6,1.88.77.14,2.28.78,2.66.85C115.37,56.79,116.1,57.27,117.9,58.25Z"/><path class="cls-18" d="M119.67,52.75c-.16-.16-.4-.39-.71-.66a14.53,14.53,0,0,0-3.61-2.3c-1.44-.73-2.81-1.42-3.62-3a6.16,6.16,0,0,1-.54-3.47l2.23.25a3.89,3.89,0,0,0,.31,2.21c.46.91,1.21,1.32,2.63,2,0,0,.45.24,4.07,2.61a16.8,16.8,0,0,1,4.89,5Z"/><path class="cls-19" d="M99.53,23.74,97.41,23a6.87,6.87,0,0,1,2.27-3.38,6.21,6.21,0,0,1,1.65-.91,2.09,2.09,0,0,0,1-.57,1.38,1.38,0,0,0,.37-1,3.69,3.69,0,0,1,.7-2.1,4.62,4.62,0,0,1,3-1.65,16.38,16.38,0,0,0,1.91-.58c.65-.25,1.27-.57,1.27-.57l.24-.12,4.07-.79a10.51,10.51,0,0,1-3.29,2.9,14.12,14.12,0,0,1-1.39.63,19.9,19.9,0,0,1-2.26.7c-1,.25-1.42.37-1.74.8a1.6,1.6,0,0,0-.27,1,3.52,3.52,0,0,1-.94,2.35,4.21,4.21,0,0,1-1.78,1.15,4.35,4.35,0,0,0-1.11.6A4.76,4.76,0,0,0,99.53,23.74Z"/><path class="cls-20" d="M63.64,20.25l-1.21-1.88A22.08,22.08,0,0,0,65,16.48a21.77,21.77,0,0,0,1.65-1.61s.45-.47,1.42-1.36S73.29,11,79.41,9.26l-6.86,3.79a9.23,9.23,0,0,1-1.33,1.12c-.82.56-1.09.52-1.8,1.09a11.63,11.63,0,0,0-1.19,1.14,20.91,20.91,0,0,1-1.81,1.76A22.44,22.44,0,0,1,63.64,20.25Z"/><path class="cls-21" d="M56.15,55.12a16.15,16.15,0,0,1-2-.11,16,16,0,0,1-8.25-3.37,15.72,15.72,0,0,1-5.31-8.58l2.18-.5a13.46,13.46,0,0,0,4.54,7.34,13.65,13.65,0,0,0,7.1,2.89,15.13,15.13,0,0,0,3.43,0L58.14,55A16.59,16.59,0,0,1,56.15,55.12Z"/><path class="cls-22" d="M62.51,33.09A34,34,0,0,0,58,30.61c-1.24-.57-2.19-.91-3-1.19a8.41,8.41,0,0,1-3.52-2,7.11,7.11,0,0,1-1.76-2.78c-.26-.64-.37-.93-.86-1.22-.65-.38-1.16-.27-2.16,0a6.73,6.73,0,0,1-4.25.09,6.65,6.65,0,0,1-2.62-1.76c-.72-.64-1.81-1.61-3.62-3.08-.74-.6-1.5-1.2-2.25-1.78l-2.79-1.77c.77.59,5.69,1.2,6.45,1.81,1.85,1.5,3,2.5,3.7,3.15,1.07,1,1.26,1.12,1.82,1.3a4.56,4.56,0,0,0,3-.12,4.53,4.53,0,0,1,3.89.22,4.08,4.08,0,0,1,1.81,2.33,4.92,4.92,0,0,0,1.25,2,6.36,6.36,0,0,0,2.71,1.46c.8.29,1.8.65,3.13,1.25a37.79,37.79,0,0,1,4.79,2.64Z"/><path class="cls-23" d="M63.46,53.41c-1-1.71-.88-2.63.42-4.07C65,50.94,64.87,52.17,63.46,53.41Z"/><path class="cls-24" d="M68.59,22.29c-1-1.71-.89-2.63.41-4.06C70.12,19.82,70,21.05,68.59,22.29Z"/><path class="cls-25" d="M57.17,9.83c-1-1.71-.88-2.63.42-4.07C58.71,7.36,58.58,8.59,57.17,9.83Z"/><path class="cls-26" d="M42.15,31c-1-1.71-.89-2.63.41-4.07C43.68,28.48,43.56,29.71,42.15,31Z"/><path class="cls-27" d="M105.25,19.89c.37-1.93,1-2.57,3-2.8C108,19,107.12,19.87,105.25,19.89Z"/><path class="cls-28" d="M103.76,27.54c.38-1.94,1-2.57,3-2.81C106.54,26.67,105.64,27.52,103.76,27.54Z"/><path class="cls-29" d="M112.26,24.79c.38-1.94,1-2.57,3-2.81C115,23.92,114.14,24.77,112.26,24.79Z"/><path class="cls-30" d="M81.77,21.89c.37-1.93,1-2.57,3-2.8C84.54,21,83.64,21.87,81.77,21.89Z"/><path class="cls-31" d="M46.16,16.83c.38-1.93,1.05-2.56,3-2.8C48.94,16,48,16.82,46.16,16.83Z"/><path class="cls-32" d="M2.88,48.66c1.44-1.39,2.36-1.52,4.1-.6C5.69,49.56,4.44,49.74,2.88,48.66Z"/><path class="cls-33" d="M94.26,42.4c1.44-1.39,2.37-1.52,4.1-.59C97.07,43.3,95.83,43.48,94.26,42.4Z"/><path class="cls-34" d="M74.18,47.16c1.44-1.39,2.37-1.52,4.1-.6C77,48.06,75.75,48.24,74.18,47.16Z"/><path class="cls-35" d="M25.62,40.68c1.44-1.38,2.37-1.52,4.1-.59C28.43,41.58,27.19,41.76,25.62,40.68Z"/><path class="cls-36" d="M120.3,34.11c1.44-1.38,2.36-1.51,4.1-.59C123.11,35,121.86,35.19,120.3,34.11Z"/><path class="cls-37" d="M11,22.85c1.44-1.39,2.36-1.52,4.1-.6C13.78,23.75,12.53,23.93,11,22.85Z"/><path class="cls-38" d="M103.1,48.1c1.44-1.39,2.37-1.52,4.1-.6C105.91,49,104.67,49.18,103.1,48.1Z"/><path class="cls-39" d="M117,39.7c1.44-1.38,2.37-1.52,4.11-.59C119.78,40.6,118.54,40.78,117,39.7Z"/><path class="cls-40" d="M66.79,26.38c1.44-1.38,2.37-1.52,4.1-.59C69.6,27.28,68.36,27.46,66.79,26.38Z"/><path class="cls-41" d="M12.53,29.2c1.44-1.39,2.37-1.52,4.1-.6C15.34,30.1,14.1,30.28,12.53,29.2Z"/><path class="cls-42" d="M27.07,33.72c1.44-1.39,2.36-1.52,4.1-.59C29.88,34.62,28.63,34.8,27.07,33.72Z"/><path class="cls-43" d="M16.05,51.48c1.44-1.39,2.36-1.52,4.1-.6C18.86,52.38,17.61,52.56,16.05,51.48Z"/><path class="cls-44" d="M96.42,13.3c1.44-1.39,2.37-1.52,4.1-.59C99.23,14.2,98,14.38,96.42,13.3Z"/><path class="cls-45" d="M46,47.16c1.44-1.39,2.36-1.52,4.1-.6C48.85,48.06,47.6,48.24,46,47.16Z"/><path class="cls-46" d="M41.5,11.15c1.44-1.38,2.36-1.52,4.1-.59C44.31,12.05,43.06,12.23,41.5,11.15Z"/><path class="cls-47" d="M114.92,26.38c1.44-1.38,2.37-1.52,4.11-.59C117.73,27.28,116.49,27.46,114.92,26.38Z"/><path class="cls-48" d="M70,40.49c.77,2.88.28,4.18-2.17,5.78C66.8,43.51,67.45,41.76,70,40.49Z"/><path class="cls-49" d="M90.58,9.5c.78,2.88.29,4.18-2.17,5.78C87.39,12.52,88.05,10.77,90.58,9.5Z"/><path class="cls-50" d="M78.7,2.15C79.47,5,79,6.33,76.52,7.93,75.5,5.17,76.16,3.41,78.7,2.15Z"/><path class="cls-51" d="M81.84,11.54c.77,2.88.28,4.18-2.18,5.78C78.64,14.56,79.3,12.81,81.84,11.54Z"/><path class="cls-52" d="M122.66,23.27c-2.83.91-4.16.48-5.88-1.89C119.49,20.22,121.27,20.8,122.66,23.27Z"/><path class="cls-53" d="M78.87,24.62c.77,2.88.28,4.18-2.18,5.78C75.67,27.64,76.33,25.89,78.87,24.62Z"/><path class="cls-54" d="M101.7,32.44c-.3,2.5-1.09,3.37-3.52,3.85C98.25,33.81,99.31,32.64,101.7,32.44Z"/><path class="cls-55" d="M81.71,38.47c-.3,2.5-1.09,3.36-3.52,3.85C78.26,39.83,79.33,38.67,81.71,38.47Z"/><path class="cls-56" d="M94.16,36.59c-.3,2.5-1.09,3.37-3.52,3.85C90.71,38,91.78,36.79,94.16,36.59Z"/><path class="cls-57" d="M116.43,34.58c-.29,2.5-1.09,3.37-3.52,3.85C113,35.94,114.05,34.78,116.43,34.58Z"/><path class="cls-58" d="M38.23,43.58c-.3,2.5-1.1,3.37-3.52,3.85C34.77,44.94,35.84,43.78,38.23,43.58Z"/><path class="cls-59" d="M54.06,36.29c-.64,2.91-1.67,3.84-4.59,4.13C49.84,37.5,51.23,36.25,54.06,36.29Z"/><path class="cls-60" d="M107.54,6.78c-.64,2.91-1.67,3.84-4.59,4.13C103.32,8,104.71,6.73,107.54,6.78Z"/><path class="cls-61" d="M66,.08C65.39,3,64.35,3.92,61.44,4.21,61.8,1.29,63.19,0,66,.08Z"/><path class="cls-62" d="M97.36,17.83c-.64,2.91-1.67,3.84-4.59,4.13C93.14,19,94.53,17.78,97.36,17.83Z"/><path class="cls-63" d="M92.69,2.63C92.05,5.54,91,6.47,88.1,6.76,88.46,3.84,89.86,2.59,92.69,2.63Z"/><path class="cls-64" d="M38.14,23.27c1.14,2.76.82,4.11-1.41,6C35.36,26.68,35.79,24.86,38.14,23.27Z"/><path class="cls-65" d="M105.15,37.81c-.64,2.91-1.67,3.84-4.59,4.13C100.93,39,102.32,37.77,105.15,37.81Z"/><path class="cls-66" d="M59.76,20.91c-.63,2.9-1.67,3.84-4.59,4.12C55.54,22.11,56.93,20.86,59.76,20.91Z"/><path class="cls-67" d="M28.7,46.87C28.06,49.78,27,50.71,24.11,51,24.48,48.08,25.87,46.82,28.7,46.87Z"/><path class="cls-68" d="M12.41,35c-.64,2.9-1.68,3.84-4.59,4.12C8.18,36.17,9.57,34.92,12.41,35Z"/><path class="cls-69" d="M4.59,39.88C4,42.79,2.92,43.72,0,44,.37,41.09,1.76,39.83,4.59,39.88Z"/><path class="cls-70" d="M117,13.77c-.64,2.91-1.68,3.84-4.59,4.13C112.74,15,114.14,13.73,117,13.77Z"/><path class="cls-71" d="M69.09,31.47c1.1,2.77.76,4.12-1.49,6C66.27,34.84,66.72,33,69.09,31.47Z"/><path class="cls-72" d="M49.54,4c1.1,2.76.78,4.11-1.44,6C46.77,7.36,47.21,5.55,49.54,4Z"/><path class="cls-73" d="M51.77,47.34c2.08.22,2.81.88,3.23,2.89C52.93,50.2,52,49.32,51.77,47.34Z"/><path class="cls-74" d="M35.75,5.56c2.08.23,2.81.88,3.23,2.9C36.92,8.42,35.94,7.55,35.75,5.56Z"/><path class="cls-75" d="M20.32,29c2.08.23,2.81.88,3.23,2.9C21.48,31.81,20.5,30.93,20.32,29Z"/><path class="cls-76" d="M32.14,17.86c2.08.23,2.81.88,3.23,2.9C33.31,20.72,32.33,19.85,32.14,17.86Z"/><path class="cls-77" d="M89.44,29.28c2.58.28,3.49,1.09,4,3.6C90.88,32.84,89.66,31.74,89.44,29.28Z"/><path class="cls-78" d="M119.68,45.53c2.58.29,3.49,1.1,4,3.61C121.12,49.09,119.9,48,119.68,45.53Z"/><path class="cls-79" d="M60,42.34c2.38,1.8,2.79,3.13,1.84,5.9C59.37,46.69,58.81,44.9,60,42.34Z"/><path class="cls-80" d="M63.12,7c2.38,1.79,2.8,3.12,1.85,5.9C62.46,11.36,61.9,9.57,63.12,7Z"/><path class="cls-81" d="M57,33c2.38,1.79,2.8,3.13,1.84,5.9C56.34,37.38,55.78,35.59,57,33Z"/><path class="cls-82" d="M31.3,8.59c2.37,1.8,2.79,3.13,1.84,5.9C30.63,12.94,30.08,11.15,31.3,8.59Z"/><path class="cls-83" d="M15.78,15.54c2.38,1.79,2.8,3.13,1.84,5.9C15.12,19.89,14.56,18.1,15.78,15.54Z"/><path class="cls-84" d="M74.44,15.85c2.38,1.79,2.79,3.13,1.84,5.9C73.78,20.2,73.22,18.41,74.44,15.85Z"/><path class="cls-85" d="M47.55,28.13c2.38,1.79,2.8,3.13,1.84,5.9C46.89,32.48,46.33,30.69,47.55,28.13Z"/><path class="cls-86" d="M26.22,15.85C28.6,17.64,29,19,28.06,21.75,25.56,20.2,25,18.41,26.22,15.85Z"/><path class="cls-87" d="M87.54,16.78c2.38,1.8,2.79,3.13,1.84,5.9C86.88,21.13,86.32,19.34,87.54,16.78Z"/><path class="cls-88" d="M16.53,41.38c2.72-1.21,4.08-.93,6,1.25C20,44.07,18.17,43.69,16.53,41.38Z"/><path class="cls-89" d="M52.54,14.37c2.37,1.8,2.79,3.13,1.84,5.9C51.87,18.72,51.31,16.93,52.54,14.37Z"/><path class="cls-90" d="M52.54,0c2.37,1.79,2.79,3.12,1.84,5.89C51.87,4.34,51.31,2.56,52.54,0Z"/><path class="cls-91" d="M7,24c2.38,1.79,2.79,3.13,1.84,5.9C6.31,28.34,5.75,26.55,7,24Z"/><path class="cls-92" d="M11.2,42.48C13.57,44.27,14,45.6,13,48.37,10.53,46.82,10,45,11.2,42.48Z"/><path class="cls-93" d="M109.85,24.84c2.37,1.8,2.79,3.13,1.84,5.9C109.19,29.19,108.63,27.4,109.85,24.84Z"/><path class="cls-94" d="M110.42,50.35c3,.1,4.08.95,4.9,3.77C112.38,54.29,110.89,53.14,110.42,50.35Z"/><path class="cls-95" d="M38.72,11.06c2.38,1.8,2.8,3.13,1.85,5.9C38.06,15.41,37.5,13.62,38.72,11.06Z"/><path class="cls-96" d="M97.62,3c2.38,1.79,2.8,3.12,1.84,5.89C97,7.29,96.4,5.51,97.62,3Z"/><path class="cls-97" d="M72.8,39.78c-1.77-1.48-2-2.52-1.19-4.63C73.48,36.45,73.85,37.85,72.8,39.78Z"/><path class="cls-98" d="M87.3,34.85c-1.76-1.48-2-2.52-1.19-4.63C88,31.52,88.35,32.92,87.3,34.85Z"/><path class="cls-99" d="M84.33,45.62c-1.76-1.48-2-2.53-1.19-4.63C85,42.28,85.38,43.69,84.33,45.62Z"/><path class="cls-100" d="M108.76,39.78c-1.77-1.48-2-2.52-1.2-4.63C109.44,36.45,109.8,37.85,108.76,39.78Z"/><path class="cls-101" d="M84.59,10.24c-1.77-1.48-2-2.52-1.19-4.63C85.27,6.91,85.64,8.31,84.59,10.24Z"/><path class="cls-102" d="M72,9.33C70.24,7.85,70,6.8,70.82,4.7,72.69,6,73.06,7.4,72,9.33Z"/></g></g></svg>