<svg xmlns="http://www.w3.org/2000/svg" viewBox="0 0 231.41 75.11"><defs><style>.cls-1,.cls-2{fill:#10271c;}.cls-2{opacity:0.75;font-size:19.62px;font-family:AvenirLTStd-Book, Avenir LT Std;letter-spacing:0.2em;}.cls-3{letter-spacing:0.13em;}.cls-4{letter-spacing:0.2em;}.cls-5{letter-spacing:0.21em;}</style></defs><title>girar-logo-text_2</title><g id="Layer_2" data-name="Layer 2"><g id="Layer_1-2" data-name="Layer 1"><path class="cls-1" d="M41,37.76a37.69,37.69,0,0,1-16.42,3.57c-13.64,0-23.44-8.11-23.44-20.12S11.57,1.09,24.71,1.09c5.77,0,11.35,1.35,15.5,5L36.3,9.69a17.74,17.74,0,0,0-12-4.38c-10,0-17.67,6.6-17.67,15.9,0,9.14,7.38,15.9,18.17,15.9A29.12,29.12,0,0,0,35.75,34.9V23.16H25.64V18.94H41Z"/><path class="cls-1" d="M24.52,42.42C10.09,42.42,0,33.7,0,21.21,0,8.92,10.39,0,24.71,0,31.5,0,37,1.78,40.93,5.3l.91.81-5.55,5.07-.73-.7A16.65,16.65,0,0,0,24.34,6.4c-9.61,0-16.58,6.23-16.58,14.81S14.78,36,24.84,36a28.38,28.38,0,0,0,9.82-1.85V24.25H24.55v-6.4H42v20.6l-.61.29A38.93,38.93,0,0,1,24.52,42.42Zm.19-40.24c-13,0-22.53,8-22.53,19,0,11.21,9.19,19,22.34,19a37,37,0,0,0,15.34-3.17V20H26.73v2H36.84V35.61l-.66.28A29.72,29.72,0,0,1,24.84,38.2c-11.16,0-19.26-7.14-19.26-17s7.89-17,18.76-17a19.16,19.16,0,0,1,12,4l2.26-2.07C35.07,3.52,30.42,2.18,24.71,2.18Z"/><path class="cls-1" d="M64.27,2.06h5.21v38.3H64.27Z"/><path class="cls-1" d="M70.57,41.45H63.18V1h7.39Zm-5.21-2.18h3V3.15h-3Z"/><path class="cls-1" d="M92.79,2.06H104c8.49,0,17.48,1.09,17.48,10.55,0,5.57-4.15,9.2-11,10.12L123,40.36H116.6l-11.91-17.2H98v17.2H92.79ZM98,18.94h4.65c5.76,0,13.26,0,13.26-6.33,0-5.52-5.52-6.33-10.6-6.33H98Z"/><path class="cls-1" d="M125.09,41.45H116l-11.9-17.2h-5v17.2H91.7V1H104c6,0,18.57,0,18.57,11.64,0,5.52-3.77,9.51-10.18,10.89Zm-7.92-2.18h3.71L108.59,21.89l1.78-.24c6.38-.86,10-4.16,10-9,0-7.85-6.55-9.46-16.39-9.46H93.88V39.27h3V22.07h8.35ZM102.65,20H96.91V5.19h8.4c3.2,0,11.69,0,11.69,7.42S108.36,20,102.65,20Zm-3.56-2.18h3.56c6.89,0,12.17-.39,12.17-5.24,0-3.67-2.84-5.24-9.51-5.24H99.09Z"/><path class="cls-1" d="M157.33,2.06h4.9l18.66,38.3h-6.08L170.35,31H148.4l-4.52,9.41H138Zm2.35,5.85h-.12l-9.11,18.82h17.91Z"/><path class="cls-1" d="M182.63,41.45h-8.51L169.66,32H149.09l-4.53,9.41h-8.35L156.66,1h6.25Zm-7.13-2.18h3.64L161.54,3.15H158L139.76,39.27h3.43l4.53-9.41H171Zm-5.43-11.45H148.71l10.17-21h1.5Zm-17.88-2.18h14.47L159.6,10.32Z"/><path class="cls-1" d="M199.12,2.06h11.22c8.49,0,17.48,1.09,17.48,10.55,0,5.57-4.15,9.2-11,10.12l12.46,17.63h-6.39L211,23.16h-6.7v17.2h-5.2Zm5.2,16.88H209c5.77,0,13.27,0,13.27-6.33,0-5.52-5.52-6.33-10.6-6.33h-7.32Z"/><path class="cls-1" d="M231.41,41.45h-9.06l-11.9-17.2h-5v17.2H198V1h12.31c6,0,18.57,0,18.57,11.64,0,5.52-3.77,9.51-10.18,10.89Zm-7.91-2.18h3.7L214.92,21.89l1.78-.24c6.38-.86,10-4.16,10-9,0-7.85-6.55-9.46-16.39-9.46H200.21V39.27h3V22.07h8.36ZM209,20h-5.74V5.19h8.41c3.2,0,11.69,0,11.69,7.42S214.69,20,209,20Zm-3.56-2.18H209c6.9,0,12.18-.39,12.18-5.24,0-3.67-2.84-5.24-9.51-5.24h-6.23Z"/><text class="cls-2" transform="translate(2.95 69.46)">A<tspan class="cls-3" x="17.38" y="0">P</tspan><tspan class="cls-4" x="31.12" y="0">A</tspan><tspan class="cls-5" x="48.5" y="0">R</tspan><tspan class="cls-4" x="64.18" y="0">TMENTS</tspan></text></g></g></svg>