<svg xmlns="http://www.w3.org/2000/svg" viewBox="0 0 186 186"><defs><style>.cls-1,.cls-4{fill:#fff;}.cls-1{opacity:0.28;}.cls-2,.cls-3{fill:none;stroke:#fff;stroke-width:5.18px;}.cls-3{stroke-linecap:round;stroke-linejoin:round;}</style></defs><title>3d tour_1</title><g id="Layer_2" data-name="Layer 2"><g id="Layer_1-2" data-name="Layer 1"><rect class="cls-1" width="186" height="186" rx="12"/><path class="cls-2" d="M60.69,89.35V68.61A20.73,20.73,0,0,1,81.42,47.88h27.65a20.74,20.74,0,0,1,20.74,20.73V89.35a20.74,20.74,0,0,1-20.74,20.73H81.42A20.73,20.73,0,0,1,60.69,89.35Z"/><path class="cls-3" d="M98.7,91.08V81.4m9.88,0c2.47,0,7.4,0,7.4-7.26s-4.93-7.26-7.4-7.26H98.7V81.4m9.88,0H98.7m9.88,0,7.4,9.68"/><path class="cls-3" d="M91.79,66.88,81.42,91.08,71.06,66.88"/><path class="cls-4" d="M56.17,156.36a7,7,0,0,1-2.86-.56,4.81,4.81,0,0,1-2-1.54,3.87,3.87,0,0,1-.74-2.26h3.13a1.61,1.61,0,0,0,.36.94,2.18,2.18,0,0,0,.87.63,3.24,3.24,0,0,0,1.23.22,3,3,0,0,0,1.26-.25,2,2,0,0,0,.85-.7,1.71,1.71,0,0,0,.31-1,1.73,1.73,0,0,0-.33-1,2.07,2.07,0,0,0-.93-.71,3.5,3.5,0,0,0-1.44-.26H54.53v-2.29H55.9a3.1,3.1,0,0,0,1.25-.24,2,2,0,0,0,.84-.68,1.75,1.75,0,0,0,.3-1,1.83,1.83,0,0,0-.26-1,1.8,1.8,0,0,0-.73-.66,2.41,2.41,0,0,0-1.1-.24,2.88,2.88,0,0,0-1.15.23,2.2,2.2,0,0,0-.85.64,1.67,1.67,0,0,0-.33,1h-3a3.79,3.79,0,0,1,.72-2.24,4.72,4.72,0,0,1,1.9-1.52,6.37,6.37,0,0,1,2.71-.55,6.16,6.16,0,0,1,2.66.55,4.45,4.45,0,0,1,1.78,1.49,3.71,3.71,0,0,1,.63,2.11,2.88,2.88,0,0,1-.77,2.06,3.5,3.5,0,0,1-2,1.05v.11A4,4,0,0,1,61,149.74a3.16,3.16,0,0,1,.84,2.28,3.55,3.55,0,0,1-.72,2.24,4.87,4.87,0,0,1-2,1.54A7.26,7.26,0,0,1,56.17,156.36Z"/><path class="cls-4" d="M69.38,156.15H64.16V141.44h5.26a7.9,7.9,0,0,1,3.82.88,6,6,0,0,1,2.47,2.53,8.29,8.29,0,0,1,.86,3.93,8.42,8.42,0,0,1-.86,4,6,6,0,0,1-2.48,2.53A7.88,7.88,0,0,1,69.38,156.15Zm-2.11-2.66h2a5,5,0,0,0,2.32-.49A3.12,3.12,0,0,0,73,151.47a6.45,6.45,0,0,0,.48-2.69,6.36,6.36,0,0,0-.48-2.66,3.06,3.06,0,0,0-1.42-1.52,4.92,4.92,0,0,0-2.32-.49h-2Z"/><path class="cls-4" d="M83,144v-2.57H95.09V144H90.58v12.14H87.51V144Z"/><path class="cls-4" d="M110,148.8a8.47,8.47,0,0,1-.91,4.09,6.28,6.28,0,0,1-2.47,2.58,7,7,0,0,1-3.51.89,6.91,6.91,0,0,1-3.52-.9,6.29,6.29,0,0,1-2.46-2.57,9.67,9.67,0,0,1,0-8.19,6.29,6.29,0,0,1,2.46-2.57,7.39,7.39,0,0,1,7,0A6.31,6.31,0,0,1,109,144.7,8.51,8.51,0,0,1,110,148.8Zm-3.15,0a6.58,6.58,0,0,0-.47-2.63,3.6,3.6,0,0,0-5.24-1.62,3.55,3.55,0,0,0-1.3,1.62,7.75,7.75,0,0,0,0,5.26,3.6,3.6,0,0,0,1.3,1.62,3.8,3.8,0,0,0,3.94,0,3.53,3.53,0,0,0,1.3-1.62A6.62,6.62,0,0,0,106.8,148.8Z"/><path class="cls-4" d="M121.34,141.44h3.11V151a5,5,0,0,1-2.9,4.69,8,8,0,0,1-6.4,0,5,5,0,0,1-2.9-4.69v-9.56h3.11v9.29a2.92,2.92,0,0,0,.37,1.49,2.67,2.67,0,0,0,1,1,3.17,3.17,0,0,0,1.57.38,3.21,3.21,0,0,0,1.58-.38,2.71,2.71,0,0,0,1-1,3,3,0,0,0,.37-1.49Z"/><path class="cls-4" d="M127,156.15V141.44h5.81a6.38,6.38,0,0,1,2.85.59,4.19,4.19,0,0,1,1.8,1.68,5,5,0,0,1,.62,2.54,4.83,4.83,0,0,1-.63,2.52,4.06,4.06,0,0,1-1.83,1.61,6.83,6.83,0,0,1-2.89.56h-3.89v-2.5h3.39a3.75,3.75,0,0,0,1.48-.25,1.77,1.77,0,0,0,.88-.73,2.36,2.36,0,0,0,.29-1.21,2.5,2.5,0,0,0-.29-1.24,1.86,1.86,0,0,0-.89-.76,3.59,3.59,0,0,0-1.49-.26h-2.09v12.16Zm7.95-6.69,3.66,6.69h-3.44l-3.57-6.69Z"/></g></g></svg>