<svg xmlns="http://www.w3.org/2000/svg" viewBox="0 0 141.3 141.29"><defs><style>.cls-1{fill:#444;stroke:#444;}</style></defs><title>check-big_1</title><g id="Layer_2" data-name="Layer 2"><g id="Layer_1-2" data-name="Layer 1"><path class="cls-1" d="M70.65.5A70.15,70.15,0,1,0,140.8,70.65,70.23,70.23,0,0,0,70.65.5Zm0,134.56a64.42,64.42,0,1,1,64.42-64.41A64.49,64.49,0,0,1,70.65,135.06Z"/><path class="cls-1" d="M70.65,6.23a64.42,64.42,0,1,0,64.42,64.42A64.49,64.49,0,0,0,70.65,6.23ZM110.5,49.68,66.77,104.75a10.57,10.57,0,0,1-16.54,0L30.81,80.3A10.58,10.58,0,0,1,32.5,65.44a10.71,10.71,0,0,1,6.57-2.29,10.54,10.54,0,0,1,8.29,4l11.13,14L93.94,36.55A10.57,10.57,0,1,1,110.5,49.68Z"/><path class="cls-1" d="M112.72,41.91a10.57,10.57,0,0,0-18.78-5.36L58.49,81.18l-11.13-14a10.54,10.54,0,0,0-8.29-4,10.71,10.71,0,0,0-6.57,2.29A10.58,10.58,0,0,0,30.81,80.3l19.42,24.45a10.57,10.57,0,0,0,16.54,0L110.5,49.68A10.5,10.5,0,0,0,112.72,41.91ZM106,46.13,62.29,101.18a5,5,0,0,1-7.58,0L35.29,76.73a4.85,4.85,0,0,1,.78-6.8,4.75,4.75,0,0,1,3-1.05,4.83,4.83,0,0,1,3.8,1.83L56.25,87.57a2.88,2.88,0,0,0,4.49,0l37.7-47.47a4.93,4.93,0,0,1,6.78-.78,4.77,4.77,0,0,1,1.8,3.24A4.83,4.83,0,0,1,106,46.13Z"/></g></g></svg>