<svg xmlns="http://www.w3.org/2000/svg" viewBox="0 0 23.28 23.28"><defs><style>.cls-1{fill:#444;}</style></defs><title>check_tiny</title><g id="Layer_2" data-name="Layer 2"><g id="Layer_1-2" data-name="Layer 1"><path class="cls-1" d="M11.64,0A11.64,11.64,0,1,0,23.28,11.64,11.65,11.65,0,0,0,11.64,0Zm0,22.33A10.69,10.69,0,1,1,22.33,11.64,10.71,10.71,0,0,1,11.64,22.33Z"/><path class="cls-1" d="M11.64,1A10.69,10.69,0,1,0,22.33,11.64,10.71,10.71,0,0,0,11.64,1Zm6.61,7.21L11,17.3a1.76,1.76,0,0,1-2.75,0L5,13.24a1.75,1.75,0,0,1,.28-2.46,1.81,1.81,0,0,1,2.47.28l1.84,2.33L15.5,6a1.76,1.76,0,0,1,1.38-.66,1.75,1.75,0,0,1,1.37,2.84Z"/></g></g></svg>