<svg xmlns="http://www.w3.org/2000/svg" viewBox="0 0 139.28 139.28"><defs><style>.cls-1{fill:#999;}.cls-2{fill:#fff;}</style></defs><title>done-big</title><g id="Layer_2" data-name="Layer 2"><g id="Layer_1-2" data-name="Layer 1"><path class="cls-1" d="M69.64,0a69.64,69.64,0,1,0,69.64,69.64A69.71,69.71,0,0,0,69.64,0Zm0,133.6a64,64,0,1,1,64-64A64.07,64.07,0,0,1,69.64,133.6Z"/><circle class="cls-1" cx="69.64" cy="69.64" r="63.96" transform="translate(-21.35 107.33) rotate(-67.5)"/><path class="cls-2" d="M65.28,124.64a2.11,2.11,0,0,1-2-1.46L38.52,46.39a2.1,2.1,0,1,1,4-1.29l24.76,76.79a2.1,2.1,0,0,1-1.36,2.65A2,2,0,0,1,65.28,124.64Z"/><path class="cls-2" d="M57.52,76a36,36,0,0,1-8.75-.94A2.1,2.1,0,0,1,49.86,71a40.58,40.58,0,0,0,20.82-1.28c3.77-1.22,6-3.18,8.31-5.26,4.44-4,9-8,23.14-6.24L94.77,35.38C81,33.19,77.26,36.5,73,40.31a25.88,25.88,0,0,1-9.82,6.12A44.08,44.08,0,0,1,40,47.77a2.1,2.1,0,1,1,1.09-4.06,40.75,40.75,0,0,0,20.8-1.28c3.78-1.22,6-3.18,8.32-5.26,4.78-4.26,9.72-8.65,26.55-5.73a2.12,2.12,0,0,1,1.64,1.43l8.8,27.3a2.11,2.11,0,0,1-2.36,2.72c-14.82-2.59-18.63.8-23,4.72A25.92,25.92,0,0,1,72,73.73,47.22,47.22,0,0,1,57.52,76Z"/></g></g></svg>