<svg xmlns="http://www.w3.org/2000/svg" viewBox="0 0 139.28 139.28"><defs><style>.cls-1{fill:#999;}.cls-2{fill:#fff;}</style></defs><title>in-progress-big</title><g id="Layer_2" data-name="Layer 2"><g id="Layer_1-2" data-name="Layer 1"><path class="cls-1" d="M69.64,0a69.64,69.64,0,1,0,69.64,69.64A69.71,69.71,0,0,0,69.64,0Zm0,133.6a64,64,0,1,1,64-64A64.07,64.07,0,0,1,69.64,133.6Z"/><circle class="cls-1" cx="69.64" cy="69.64" r="63.96" transform="translate(-14.14 121.42) rotate(-76.72)"/><path class="cls-2" d="M69.3,72.84a1.42,1.42,0,0,1-.5-.08L51.51,66.57a1.46,1.46,0,0,1-1-1.38V36.79A1.47,1.47,0,0,1,52,35.32H86.59a1.47,1.47,0,0,1,1.47,1.47v28.4a1.46,1.46,0,0,1-1,1.38L69.79,72.76A1.4,1.4,0,0,1,69.3,72.84ZM53.47,64.16,69.3,69.82l15.82-5.66V38.26H53.47Z"/><path class="cls-2" d="M86.59,107.43H52A1.47,1.47,0,0,1,50.53,106V77.57a1.45,1.45,0,0,1,1-1.38L68.8,70a1.41,1.41,0,0,1,1,0l17.29,6.19a1.45,1.45,0,0,1,1,1.38V106A1.47,1.47,0,0,1,86.59,107.43ZM53.47,104.5H85.12V78.6L69.3,72.93,53.47,78.6Z"/><path class="cls-2" d="M94.81,38.26H44.87a1.47,1.47,0,0,1,0-2.94H94.81a1.47,1.47,0,0,1,0,2.94Z"/><path class="cls-2" d="M94.27,107.43H44.32a1.47,1.47,0,0,1,0-2.93H94.27a1.47,1.47,0,0,1,0,2.93Z"/><path class="cls-2" d="M86.59,57.75H52a1.47,1.47,0,0,1,0-2.94H86.59a1.47,1.47,0,0,1,0,2.94Z"/><path class="cls-2" d="M69.84,81a2.47,2.47,0,1,1,2.46-2.47A2.47,2.47,0,0,1,69.84,81Zm0-2.94a.47.47,0,0,0-.47.47c0,.52.94.52.94,0A.47.47,0,0,0,69.84,78.06Z"/><path class="cls-2" d="M70,89a2.46,2.46,0,1,1,2.46-2.46A2.47,2.47,0,0,1,70,89Zm0-2.93a.47.47,0,0,0-.47.47c0,.52.94.52.94,0A.48.48,0,0,0,70,86.11Z"/><path class="cls-2" d="M52.28,107.43a1.46,1.46,0,0,1-.86-2.65L69,92.07a1.47,1.47,0,0,1,1.74,0l17,12.71A1.47,1.47,0,1,1,86,107.14L69.83,95.08l-16.7,12.07A1.44,1.44,0,0,1,52.28,107.43Z"/></g></g></svg>