<svg xmlns="http://www.w3.org/2000/svg" viewBox="0 0 36.07 36.07"><defs><style>.cls-1{fill:#fff;}</style></defs><title>instagram</title><g id="Layer_2" data-name="Layer 2"><g id="Layer_1-2" data-name="Layer 1"><rect width="36.07" height="36.07" rx="9.13"/><path class="cls-1" d="M23.56,11.36a1.22,1.22,0,1,0,1.23,1.22A1.22,1.22,0,0,0,23.56,11.36Z"/><path class="cls-1" d="M18.12,12.93a5.14,5.14,0,1,0,5.14,5.14A5.15,5.15,0,0,0,18.12,12.93Zm0,8.43a3.3,3.3,0,1,1,3.29-3.29A3.29,3.29,0,0,1,18.12,21.36Z"/><path class="cls-1" d="M22.2,28.51H13.86a6.27,6.27,0,0,1-6.27-6.27V13.9a6.27,6.27,0,0,1,6.27-6.27H22.2a6.28,6.28,0,0,1,6.28,6.27v8.34A6.28,6.28,0,0,1,22.2,28.51ZM13.86,9.59A4.32,4.32,0,0,0,9.55,13.9v8.34a4.32,4.32,0,0,0,4.31,4.31H22.2a4.32,4.32,0,0,0,4.31-4.31V13.9A4.31,4.31,0,0,0,22.2,9.59Z"/></g></g></svg>