<svg xmlns="http://www.w3.org/2000/svg" viewBox="0 0 186 186"><defs><style>.cls-1,.cls-3{fill:#fff;}.cls-1{opacity:0.28;}.cls-2{fill:none;stroke:#fff;stroke-linecap:round;stroke-linejoin:round;stroke-width:5.2px;}</style></defs><title>location_1</title><g id="Layer_2" data-name="Layer 2"><g id="Layer_1-2" data-name="Layer 1"><rect class="cls-1" width="186" height="186" rx="12"/><path class="cls-2" d="M79.22,105.57l-18.06,6a2.08,2.08,0,0,1-2.74-2V58.53a2.08,2.08,0,0,1,1.42-2L79.22,50.1m0,55.47L100,112.5m-20.8-6.93V50.1M100,112.5,119.39,106a2.08,2.08,0,0,0,1.43-2V53a2.09,2.09,0,0,0-2.74-2L100,57m0,55.46V57m0,0L79.22,50.1"/><path class="cls-3" d="M35.12,148.8a8.47,8.47,0,0,1-.91,4.09,6.28,6.28,0,0,1-2.47,2.58,7,7,0,0,1-3.51.89,6.91,6.91,0,0,1-3.52-.9,6.29,6.29,0,0,1-2.46-2.57,9.67,9.67,0,0,1,0-8.19,6.29,6.29,0,0,1,2.46-2.57,7.39,7.39,0,0,1,7,0,6.31,6.31,0,0,1,2.47,2.57A8.51,8.51,0,0,1,35.12,148.8Zm-3.15,0a6.58,6.58,0,0,0-.47-2.63,3.6,3.6,0,0,0-5.24-1.62,3.55,3.55,0,0,0-1.3,1.62,7.75,7.75,0,0,0,0,5.26,3.6,3.6,0,0,0,1.3,1.62,3.8,3.8,0,0,0,3.94,0,3.53,3.53,0,0,0,1.3-1.62A6.62,6.62,0,0,0,32,148.8Z"/><path class="cls-3" d="M46.51,141.44h3.11V151a5,5,0,0,1-2.91,4.69,7.13,7.13,0,0,1-3.19.67,7.22,7.22,0,0,1-3.21-.67A5,5,0,0,1,37.42,151v-9.56h3.11v9.29a2.92,2.92,0,0,0,.37,1.49,2.67,2.67,0,0,0,1.05,1,3.17,3.17,0,0,0,1.57.38,3.21,3.21,0,0,0,1.58-.38,2.71,2.71,0,0,0,1-1,3,3,0,0,0,.37-1.49Z"/><path class="cls-3" d="M52.17,156.15V141.44H58a6.38,6.38,0,0,1,2.85.59,4.19,4.19,0,0,1,1.8,1.68,5,5,0,0,1,.62,2.54,4.83,4.83,0,0,1-.63,2.52,4.06,4.06,0,0,1-1.83,1.61,6.8,6.8,0,0,1-2.89.56H54v-2.5H57.4a3.75,3.75,0,0,0,1.48-.25,1.77,1.77,0,0,0,.88-.73,2.36,2.36,0,0,0,.29-1.21,2.5,2.5,0,0,0-.29-1.24,1.86,1.86,0,0,0-.89-.76,3.59,3.59,0,0,0-1.49-.26H55.29v12.16Zm7.95-6.69,3.66,6.69H60.34l-3.57-6.69Z"/><path class="cls-3" d="M70.14,156.15V141.44h3.11v12.15h6.31v2.56Z"/><path class="cls-3" d="M94.57,148.8a8.58,8.58,0,0,1-.91,4.09,6.34,6.34,0,0,1-2.47,2.58,7,7,0,0,1-3.51.89,6.91,6.91,0,0,1-3.52-.9,6.38,6.38,0,0,1-2.47-2.57,9.77,9.77,0,0,1,0-8.19,6.38,6.38,0,0,1,2.47-2.57,7.39,7.39,0,0,1,7,0,6.38,6.38,0,0,1,2.47,2.57A8.62,8.62,0,0,1,94.57,148.8Zm-3.16,0a6.59,6.59,0,0,0-.46-2.63A3.39,3.39,0,0,0,87.68,144a3.48,3.48,0,0,0-2,.56,3.56,3.56,0,0,0-1.31,1.62,7.75,7.75,0,0,0,0,5.26,3.62,3.62,0,0,0,1.31,1.62,3.47,3.47,0,0,0,2,.55,3.52,3.52,0,0,0,2-.55,3.6,3.6,0,0,0,1.3-1.62A6.62,6.62,0,0,0,91.41,148.8Z"/><path class="cls-3" d="M109.85,146.59H106.7a3.17,3.17,0,0,0-.35-1.09,2.88,2.88,0,0,0-1.64-1.33,3.79,3.79,0,0,0-1.18-.18,3.5,3.5,0,0,0-2,.57,3.65,3.65,0,0,0-1.31,1.63,7.57,7.57,0,0,0,0,5.25,3.52,3.52,0,0,0,1.32,1.62,3.56,3.56,0,0,0,2,.54,3.92,3.92,0,0,0,1.16-.16,2.86,2.86,0,0,0,1-.49,2.76,2.76,0,0,0,.7-.78,3.07,3.07,0,0,0,.38-1h3.15a5.68,5.68,0,0,1-.61,2,5.8,5.8,0,0,1-1.3,1.67,6,6,0,0,1-1.94,1.17,7.23,7.23,0,0,1-2.54.43,6.91,6.91,0,0,1-3.52-.9,6.31,6.31,0,0,1-2.44-2.57,8.73,8.73,0,0,1-.89-4.09,8.62,8.62,0,0,1,.9-4.1,6.36,6.36,0,0,1,2.46-2.57,6.92,6.92,0,0,1,3.49-.89,7.55,7.55,0,0,1,2.37.36,6.12,6.12,0,0,1,2,1.05,5.49,5.49,0,0,1,1.38,1.67A6.22,6.22,0,0,1,109.85,146.59Z"/><path class="cls-3" d="M114.34,156.15H111l5.08-14.71h4l5.07,14.71h-3.33l-3.69-11.35H118Zm-.2-5.78H122v2.43h-7.87Z"/><path class="cls-3" d="M124.57,144v-2.57h12.08V144h-4.51v12.14h-3.07V144Z"/><path class="cls-3" d="M141.76,141.44v14.71h-3.11V141.44Z"/><path class="cls-3" d="M157.84,148.8a8.47,8.47,0,0,1-.91,4.09,6.28,6.28,0,0,1-2.47,2.58,7,7,0,0,1-3.51.89,6.91,6.91,0,0,1-3.52-.9,6.29,6.29,0,0,1-2.46-2.57,9.67,9.67,0,0,1,0-8.19,6.29,6.29,0,0,1,2.46-2.57,7.39,7.39,0,0,1,7,0,6.31,6.31,0,0,1,2.47,2.57A8.51,8.51,0,0,1,157.84,148.8Zm-3.15,0a6.58,6.58,0,0,0-.47-2.63,3.6,3.6,0,0,0-5.24-1.62,3.55,3.55,0,0,0-1.3,1.62,7.75,7.75,0,0,0,0,5.26,3.6,3.6,0,0,0,1.3,1.62,3.8,3.8,0,0,0,3.94,0,3.53,3.53,0,0,0,1.3-1.62A6.62,6.62,0,0,0,154.69,148.8Z"/><path class="cls-3" d="M172.45,141.44v14.71h-2.69l-6.4-9.26h-.11v9.26h-3.11V141.44h2.73l6.35,9.25h.13v-9.25Z"/></g></g></svg>