<svg xmlns="http://www.w3.org/2000/svg" xmlns:xlink="http://www.w3.org/1999/xlink" viewBox="0 0 92.4 53.59"><defs><style>.cls-1{fill:url(#Dull_Brass);}.cls-2{fill:url(#Dull_Brass-2);}.cls-3{fill:url(#Dull_Brass-3);}.cls-4{fill:url(#Dull_Brass-4);}</style><linearGradient id="Dull_Brass" x1="-38.66" y1="15.62" x2="324.22" y2="41.54" gradientUnits="userSpaceOnUse"><stop offset="0.01" stop-color="#eac17d"/><stop offset="0.19" stop-color="#deb77c"/><stop offset="0.6" stop-color="#bf8229"/><stop offset="0.87" stop-color="#eabe80"/><stop offset="1" stop-color="#eddbc3"/></linearGradient><linearGradient id="Dull_Brass-2" x1="-39.99" y1="34.19" x2="322.89" y2="60.11" xlink:href="#Dull_Brass"/><linearGradient id="Dull_Brass-3" x1="-40.29" y1="38.35" x2="322.59" y2="64.27" xlink:href="#Dull_Brass"/><linearGradient id="Dull_Brass-4" x1="-40.05" y1="35.02" x2="322.83" y2="60.94" xlink:href="#Dull_Brass"/></defs><title>parking</title><g id="Layer_2" data-name="Layer 2"><g id="Layer_1-2" data-name="Layer 1"><path class="cls-1" d="M88,41.88H81.56a1.31,1.31,0,1,1,0-2.61h5.85C89.85,36,89.82,31.79,89.78,27V25.26A22.67,22.67,0,0,0,67.13,2.61H46.93a22.8,22.8,0,0,0-21.7,16.15,1.29,1.29,0,0,1-1.25.93h-8.3A13.05,13.05,0,0,0,4.36,39.27H16.91a1.31,1.31,0,1,1,0,2.61H3.63a1.31,1.31,0,0,1-1.1-.6,15.66,15.66,0,0,1,13.15-24.2H23A25.44,25.44,0,0,1,46.93,0h20.2A25.29,25.29,0,0,1,92.39,25.26V27c0,5.31.08,10.33-3.34,14.44A1.31,1.31,0,0,1,88,41.88Z"/><path class="cls-2" d="M63.82,41.88H35a1.31,1.31,0,1,1,0-2.61H63.82a1.31,1.31,0,0,1,0,2.61Z"/><path class="cls-3" d="M25.78,53.59A10.52,10.52,0,1,1,36.31,43.07,10.53,10.53,0,0,1,25.78,53.59Zm0-18.43a7.91,7.91,0,1,0,7.91,7.91A7.92,7.92,0,0,0,25.78,35.16Z"/><path class="cls-4" d="M72.69,53.59A10.52,10.52,0,1,1,83.21,43.07,10.53,10.53,0,0,1,72.69,53.59Zm0-18.43a7.91,7.91,0,1,0,7.91,7.91A7.92,7.92,0,0,0,72.69,35.16Z"/></g></g></svg>