<svg xmlns="http://www.w3.org/2000/svg" xmlns:xlink="http://www.w3.org/1999/xlink" viewBox="0 0 77.06 77.04"><defs><style>.cls-1{fill:url(#Dull_Brass);}.cls-2{fill:url(#Dull_Brass-2);}.cls-3{fill:url(#Dull_Brass-3);}.cls-4{fill:url(#Dull_Brass-4);}.cls-5{fill:url(#Dull_Brass-5);}.cls-6{fill:url(#Dull_Brass-6);}.cls-7{fill:url(#Dull_Brass-7);}.cls-8{fill:url(#Dull_Brass-8);}.cls-9{fill:url(#Dull_Brass-9);}.cls-10{fill:url(#Dull_Brass-10);}.cls-11{fill:url(#Dull_Brass-11);}</style><linearGradient id="Dull_Brass" x1="-155.65" y1="-7.86" x2="377.87" y2="119.58" gradientUnits="userSpaceOnUse"><stop offset="0.01" stop-color="#eac17d"/><stop offset="0.19" stop-color="#deb77c"/><stop offset="0.6" stop-color="#bf8229"/><stop offset="0.87" stop-color="#eabe80"/><stop offset="1" stop-color="#eddbc3"/></linearGradient><linearGradient id="Dull_Brass-2" x1="-150.02" y1="-31.41" x2="383.5" y2="96.03" xlink:href="#Dull_Brass"/><linearGradient id="Dull_Brass-3" x1="-150.93" y1="-27.6" x2="382.59" y2="99.84" xlink:href="#Dull_Brass"/><linearGradient id="Dull_Brass-4" x1="-151.85" y1="-23.79" x2="381.67" y2="103.65" xlink:href="#Dull_Brass"/><linearGradient id="Dull_Brass-5" x1="-152.76" y1="-19.97" x2="380.76" y2="107.47" xlink:href="#Dull_Brass"/><linearGradient id="Dull_Brass-6" x1="-153.67" y1="-16.16" x2="379.85" y2="111.28" xlink:href="#Dull_Brass"/><linearGradient id="Dull_Brass-7" x1="-154.58" y1="-12.34" x2="378.94" y2="115.1" xlink:href="#Dull_Brass"/><linearGradient id="Dull_Brass-8" x1="-155.49" y1="-8.53" x2="378.03" y2="118.91" xlink:href="#Dull_Brass"/><linearGradient id="Dull_Brass-9" x1="-156.4" y1="-4.71" x2="377.12" y2="122.73" xlink:href="#Dull_Brass"/><linearGradient id="Dull_Brass-10" x1="-157.31" y1="-0.9" x2="376.21" y2="126.54" xlink:href="#Dull_Brass"/><linearGradient id="Dull_Brass-11" x1="-158.22" y1="2.91" x2="375.3" y2="130.35" xlink:href="#Dull_Brass"/></defs><title>ruler</title><g id="Layer_2" data-name="Layer 2"><g id="Layer_1-2" data-name="Layer 1"><path class="cls-1" d="M60,77a1.72,1.72,0,0,1-1.22-.5L.5,18.27A1.7,1.7,0,0,1,0,17.06a1.74,1.74,0,0,1,.5-1.22L15.86.48a1.78,1.78,0,0,1,2.43,0L76.56,58.75a1.72,1.72,0,0,1,0,2.43L61.2,76.54A1.72,1.72,0,0,1,60,77Zm-55.84-60L60,72.89,72.91,60,17.08,4.13Z"/><path class="cls-2" d="M17.9,13.19a1.71,1.71,0,0,1-1.21-.5,1.73,1.73,0,0,1,0-2.44l4.47-4.47a1.72,1.72,0,0,1,2.43,2.43l-4.47,4.48A1.75,1.75,0,0,1,17.9,13.19Z"/><path class="cls-3" d="M23.2,18.49A1.73,1.73,0,0,1,22,15.55l4.48-4.47a1.72,1.72,0,0,1,2.43,2.43L24.42,18A1.72,1.72,0,0,1,23.2,18.49Z"/><path class="cls-4" d="M28.5,23.78a1.75,1.75,0,0,1-1.22-.5,1.72,1.72,0,0,1,0-2.43l4.48-4.48a1.72,1.72,0,1,1,2.43,2.44l-4.48,4.47A1.71,1.71,0,0,1,28.5,23.78Z"/><path class="cls-5" d="M33.8,29.08a1.75,1.75,0,0,1-1.22-.5,1.73,1.73,0,0,1,0-2.44l4.47-4.47a1.72,1.72,0,1,1,2.43,2.43L35,28.58A1.71,1.71,0,0,1,33.8,29.08Z"/><path class="cls-6" d="M39.09,34.38a1.73,1.73,0,0,1-1.22-2.94L42.35,27a1.72,1.72,0,0,1,2.43,2.43L40.3,33.87A1.68,1.68,0,0,1,39.09,34.38Z"/><path class="cls-7" d="M44.39,39.67a1.75,1.75,0,0,1-1.22-.5,1.72,1.72,0,0,1,0-2.43l4.47-4.48a1.73,1.73,0,0,1,2.44,2.44L45.6,39.17A1.71,1.71,0,0,1,44.39,39.67Z"/><path class="cls-8" d="M49.68,45a1.71,1.71,0,0,1-1.21-.5,1.73,1.73,0,0,1,0-2.44l4.47-4.47A1.72,1.72,0,0,1,55.37,40L50.9,44.47A1.75,1.75,0,0,1,49.68,45Z"/><path class="cls-9" d="M55,50.27a1.73,1.73,0,0,1-1.22-2.94l4.47-4.47a1.72,1.72,0,0,1,2.44,2.43L56.2,49.76A1.72,1.72,0,0,1,55,50.27Z"/><path class="cls-10" d="M60.27,55.56a1.67,1.67,0,0,1-1.21-.5,1.72,1.72,0,0,1,0-2.43l4.48-4.47a1.7,1.7,0,0,1,2.43,0,1.72,1.72,0,0,1,0,2.43l-4.48,4.47A1.71,1.71,0,0,1,60.27,55.56Z"/><path class="cls-11" d="M65.57,60.86a1.72,1.72,0,0,1-1.21-2.94l4.47-4.47a1.72,1.72,0,0,1,2.43,2.43l-4.47,4.48A1.75,1.75,0,0,1,65.57,60.86Z"/></g></g></svg>