<svg xmlns="http://www.w3.org/2000/svg" viewBox="0 0 36.07 36.07"><defs><style>.cls-1{fill:#fff;}</style></defs><title>telegram</title><g id="Layer_2" data-name="Layer 2"><g id="Layer_1-2" data-name="Layer 1"><rect width="36.07" height="36.07" rx="9.13"/><path class="cls-1" d="M26.79,13c-.17,1.65-.42,3.37-.7,5.08-.48,2.87-1,5.75-1.47,8.62a3.56,3.56,0,0,1-.42,1.21,1.27,1.27,0,0,1-1.5.61A3.82,3.82,0,0,1,21.51,28L16,24.24a3.73,3.73,0,0,1-.6-.52.9.9,0,0,1,0-1.31,14.39,14.39,0,0,1,1.23-1.24l4.64-4.45c.09-.09.16-.18.25-.26s.32-.36.12-.58-.41-.12-.61,0c-2.47,1.64-5,3.21-7.4,4.93a4.4,4.4,0,0,1-4.32.61c-.74-.26-1.5-.46-2.25-.7a3.08,3.08,0,0,1-.53-.21.66.66,0,0,1-.14-1,1.64,1.64,0,0,1,.58-.35c3.69-1.66,7.42-3.24,11.14-4.82,2-.84,3.93-1.64,5.93-2.37a8.26,8.26,0,0,1,1.37-.4c.93-.19,1.42.2,1.41,1.15Z"/></g></g></svg>