<svg xmlns="http://www.w3.org/2000/svg" viewBox="0 0 186 186"><defs><style>.cls-1,.cls-3{fill:#fff;}.cls-1{opacity:0.28;}.cls-2{fill:none;stroke:#fff;stroke-linecap:round;stroke-linejoin:round;stroke-width:5.18px;}</style></defs><title>view</title><g id="Layer_2" data-name="Layer 2"><g id="Layer_1-2" data-name="Layer 1"><rect class="cls-1" width="186" height="186" rx="12"/><path class="cls-2" d="M131.34,58.86v44.82a2.68,2.68,0,0,1-3.54,2.52c-7.17-2.4-23.73-7.49-35.71-7.49s-28.55,5.09-35.72,7.49a2.68,2.68,0,0,1-3.53-2.52V58.86a2.68,2.68,0,0,1,3.53-2.53c7.17,2.41,23.73,7.49,35.72,7.49s28.54-5.08,35.71-7.49A2.69,2.69,0,0,1,131.34,58.86Z"/><path class="cls-3" d="M43.52,144v-2.57H55.6V144H51.1v12.14H48V144Z"/><path class="cls-3" d="M57.6,156.15V141.44h3.11v6.07H67v-6.07h3.11v14.71H67v-6.07H60.71v6.07Z"/><path class="cls-3" d="M72.69,156.15V141.44h9.92V144H75.8v3.5h6.3v2.57H75.8v3.51h6.83v2.56Z"/><path class="cls-3" d="M92.43,141.44,96,152.62h.13l3.57-11.18h3.45l-5.08,14.71h-4L89,141.44Z"/><path class="cls-3" d="M108,141.44v14.71H104.9V141.44Z"/><path class="cls-3" d="M110.58,156.15V141.44h9.91V144h-6.8v3.5H120v2.57h-6.29v3.51h6.83v2.56Z"/><path class="cls-3" d="M126.28,156.15l-4.21-14.71h3.4l2.43,10.22H128l2.68-10.22h2.91l2.68,10.25h.13l2.44-10.25h3.4l-4.21,14.71h-3l-2.8-9.61h-.11l-2.8,9.61Z"/></g></g></svg>