<svg xmlns="http://www.w3.org/2000/svg" viewBox="0 0 36.07 36.07"><defs><style>.cls-1,.cls-2{fill:#fff;}.cls-2{fill-rule:evenodd;}</style></defs><title>whatsapp</title><g id="Layer_2" data-name="Layer 2"><g id="Layer_1-2" data-name="Layer 1"><rect width="36.07" height="36.07" rx="9.13"/><path class="cls-1" d="M8.41,28.42l1.48-5.54A10.27,10.27,0,1,1,14,26.93Zm5.85-3.57.35.21a8.29,8.29,0,0,0,12.53-7.12,8.3,8.3,0,1,0-15.38,4.3l.21.35-.83,3.1Z"/><path class="cls-2" d="M22.65,19.36A1.74,1.74,0,0,0,21.18,19c-.38.15-.62.75-.87,1a.36.36,0,0,1-.47.11,6.66,6.66,0,0,1-3.31-2.84.4.4,0,0,1,0-.55,2.23,2.23,0,0,0,.6-1,2.07,2.07,0,0,0-.27-1.16,2.71,2.71,0,0,0-.85-1.28,1.17,1.17,0,0,0-1.27.18,2.59,2.59,0,0,0-.89,2,2.41,2.41,0,0,0,.08.65,5.17,5.17,0,0,0,.62,1.43,10.53,10.53,0,0,0,.65,1,10,10,0,0,0,2.81,2.61,8.62,8.62,0,0,0,1.76.84,4,4,0,0,0,2,.32,2.49,2.49,0,0,0,1.86-1.38,1.21,1.21,0,0,0,.08-.7C23.7,19.88,23,19.59,22.65,19.36Z"/></g></g></svg>