<?xml version="1.0" encoding="UTF-8"?>
<svg id="Layer_2" data-name="Layer 2" xmlns="http://www.w3.org/2000/svg" xmlns:xlink="http://www.w3.org/1999/xlink" viewBox="0 0 264.5 253.09">
  <defs>
    <style>
      .cls-1, .cls-2, .cls-3, .cls-4 {
        font-size: 11.25px;
      }

      .cls-1, .cls-5 {
        letter-spacing: 0em;
      }

      .cls-6 {
        letter-spacing: 0em;
      }

      .cls-7 {
        fill: url(#Dull_Brass-6);
      }

      .cls-8 {
        letter-spacing: .04em;
      }

      .cls-3, .cls-9 {
        fill: #939598;
        font-family: AvenirLTStd-Book, 'Avenir LT Std';
      }

      .cls-10 {
        fill: url(#Dull_Brass-4);
      }

      .cls-11 {
        letter-spacing: .02em;
      }

      .cls-12 {
        fill: url(#Dull_Brass-5);
      }

      .cls-13 {
        fill: url(#Dull_Brass-7);
      }

      .cls-14 {
        fill: #6d6e71;
      }

      .cls-15 {
        fill: #444;
      }

      .cls-4, .cls-16 {
        letter-spacing: .02em;
      }

      .cls-17 {
        fill: url(#Dull_Brass);
      }

      .cls-18 {
        font-size: 9px;
        letter-spacing: .02em;
      }

      .cls-19 {
        letter-spacing: -.09em;
      }

      .cls-20 {
        letter-spacing: .03em;
      }

      .cls-21 {
        fill: url(#Dull_Brass-2);
      }

      .cls-22 {
        letter-spacing: -.07em;
      }

      .cls-23 {
        letter-spacing: .05em;
      }

      .cls-24 {
        fill: url(#Dull_Brass-3);
      }
    </style>
    <linearGradient id="Dull_Brass" data-name="Dull Brass" x1="-13.8" y1="-1.24" x2="155.76" y2="68.96" gradientUnits="userSpaceOnUse">
      <stop offset="0" stop-color="#ebc17d"/>
      <stop offset=".19" stop-color="#dfb77c"/>
      <stop offset=".6" stop-color="#c08329"/>
      <stop offset=".87" stop-color="#eabe81"/>
      <stop offset="1" stop-color="#eedcc3"/>
    </linearGradient>
    <linearGradient id="Dull_Brass-2" data-name="Dull Brass" x1="-11.23" y1="-7.45" x2="158.33" y2="62.75" xlink:href="#Dull_Brass"/>
    <linearGradient id="Dull_Brass-3" data-name="Dull Brass" x1="-9.06" y1="-12.71" x2="160.5" y2="57.49" xlink:href="#Dull_Brass"/>
    <linearGradient id="Dull_Brass-4" data-name="Dull Brass" x1="-8.09" y1="-15.04" x2="161.47" y2="55.16" xlink:href="#Dull_Brass"/>
    <linearGradient id="Dull_Brass-5" data-name="Dull Brass" x1="-6.08" y1="-19.89" x2="163.48" y2="50.31" xlink:href="#Dull_Brass"/>
    <linearGradient id="Dull_Brass-6" data-name="Dull Brass" x1="-5.19" y1="-22.04" x2="164.37" y2="48.16" xlink:href="#Dull_Brass"/>
    <linearGradient id="Dull_Brass-7" data-name="Dull Brass" x1="-3.11" y1="-27.06" x2="166.45" y2="43.14" xlink:href="#Dull_Brass"/>
  </defs>
  <g id="Layer_1-2" data-name="Layer 1">
    <g>
      <g>
        <g>
          <path class="cls-17" d="m4.73.38h4.93c3.72,0,7.81,2.48,7.81,7.43s-4.09,7.43-7.81,7.43h-4.93V.38Zm1.51,13.48h2.94c4.54,0,6.66-2.98,6.66-6.05S13.71,1.76,9.18,1.76h-2.94v12.09Z"/>
          <path class="cls-21" d="m22.54,13.86h7.96v1.39h-9.47V.38h9.22v1.39h-7.71v5.06h7.2v1.39h-7.2v5.65Z"/>
          <path class="cls-24" d="m38.77,15.24h-1.51V1.76h-4.98V.38h11.46v1.39h-4.98v13.48Z"/>
          <path class="cls-10" d="m44.9,15.24h-1.76L49.6.38h1.47l6.47,14.87h-1.76l-1.64-3.91h-7.6l-1.64,3.91Zm2.2-5.29h6.45l-3.21-7.81-3.23,7.81Z"/>
          <path class="cls-12" d="m61.6,15.24h-1.51V.38h1.51v14.87Z"/>
          <path class="cls-7" d="m67.66,13.86h6.93v1.39h-8.44V.38h1.51v13.48Z"/>
          <path class="cls-13" d="m84.21,2.83c-.65-.97-1.62-1.45-2.88-1.45-1.55,0-3.17.82-3.17,2.69,0,4.01,7.62,1.89,7.62,7.24,0,2.71-2.54,4.3-4.89,4.3-1.81,0-3.55-.65-4.68-2.21l1.36-.99c.63,1.09,1.83,1.81,3.38,1.81s3.19-.97,3.19-2.71c0-4.2-7.62-1.87-7.62-7.31,0-2.88,2.39-4.22,4.81-4.22,1.68,0,3.02.46,4.2,1.81l-1.32,1.03Z"/>
        </g>
        <text class="cls-9" transform="translate(29.76 53.84)"><tspan class="cls-2"><tspan class="cls-16" x="0" y="0">3 Bed</tspan><tspan class="cls-6" x="31.01" y="0">r</tspan><tspan class="cls-16" x="34.83" y="0">ooms</tspan></tspan><tspan class="cls-4" x="0" y="28">2 &amp; </tspan><tspan class="cls-18" x="21.56" y="28">1/2</tspan><tspan class="cls-4" x="35.57" y="28" xml:space="preserve"> Bath</tspan><tspan class="cls-1" x="63.03" y="28">r</tspan><tspan class="cls-4" x="66.85" y="28">ooms</tspan><tspan class="cls-4"><tspan x="0" y="56">Living Room</tspan></tspan><tspan class="cls-2"><tspan class="cls-16" x="0" y="84">Dining A</tspan><tspan class="cls-5" x="46.23" y="84">r</tspan><tspan class="cls-16" x="50.04" y="84">ea</tspan></tspan><tspan class="cls-2"><tspan class="cls-16" x="0" y="112">Mode</tspan><tspan class="cls-8" x="30.95" y="112">r</tspan><tspan class="cls-20" x="35.17" y="112">n Kitchen</tspan></tspan><tspan class="cls-2"><tspan class="cls-22" x="0" y="140">T</tspan><tspan class="cls-16" x="5.71" y="140">raditional Kitchen</tspan></tspan><tspan class="cls-4"><tspan x="0" y="168">Laundry</tspan></tspan></text>
        <text class="cls-3" transform="translate(196.76 53.84)"><tspan class="cls-16" x="0" y="0">Maid</tspan><tspan class="cls-19" x="26.56" y="0">’</tspan><tspan class="cls-16" x="28.52" y="0">s Room</tspan><tspan class="cls-16"><tspan x="0" y="28">Elevator</tspan></tspan><tspan class="cls-16"><tspan x="0" y="56">Generator</tspan></tspan><tspan class="cls-23" x="0" y="84">W</tspan><tspan class="cls-11" x="11.17" y="84">ifi</tspan><tspan class="cls-16" x="0" y="112">24/7 Gua</tspan><tspan class="cls-5" x="49.17" y="112">r</tspan><tspan class="cls-11" x="52.98" y="112">d</tspan></text>
        <g>
          <path class="cls-14" d="m21.49,55.39H3.87c-.15,0-.26-.12-.26-.26v-3.54c0-.15.12-.26.26-.26s.26.12.26.26v3.28h17.09v-3.28c0-.15.12-.26.26-.26s.26.12.26.26v3.54c0,.15-.12.26-.26.26Z"/>
          <path class="cls-14" d="m19.77,50.12H5.6c-.15,0-.26-.12-.26-.26s.12-.26.26-.26h14.17c.15,0,.26.12.26.26s-.12.26-.26.26Z"/>
          <path class="cls-14" d="m5.94,57.15c-.15,0-.26-.12-.26-.26v-1.76c0-.15.12-.26.26-.26s.26.12.26.26v1.76c0,.15-.12.26-.26.26Z"/>
          <path class="cls-14" d="m19.68,57.15c-.15,0-.26-.12-.26-.26v-1.76c0-.15.12-.26.26-.26s.26.12.26.26v1.76c0,.15-.12.26-.26.26Z"/>
          <path class="cls-14" d="m11.34,50.12h-3.92c-.58,0-1.04-.47-1.04-1.04s.47-1.04,1.04-1.04h3.92c.58,0,1.04.47,1.04,1.04s-.47,1.04-1.04,1.04Zm-3.92-1.56c-.28,0-.51.23-.51.51s.23.51.51.51h3.92c.28,0,.51-.23.51-.51s-.23-.51-.51-.51h-3.92Z"/>
          <path class="cls-14" d="m18.24,50.12h-3.92c-.57,0-1.04-.47-1.04-1.04s.47-1.04,1.04-1.04h3.92c.57,0,1.04.47,1.04,1.04s-.47,1.04-1.04,1.04Zm-3.92-1.56c-.28,0-.51.23-.51.51s.23.51.51.51h3.92c.28,0,.51-.23.51-.51s-.23-.51-.51-.51h-3.92Z"/>
          <path class="cls-14" d="m3.87,51.85c-.15,0-.26-.12-.26-.26,0-1.1.89-1.99,1.99-1.99.15,0,.26.12.26.26s-.12.26-.26.26c-.81,0-1.46.66-1.46,1.46,0,.15-.12.26-.26.26Z"/>
          <path class="cls-14" d="m21.49,51.85c-.15,0-.26-.12-.26-.26,0-.81-.66-1.46-1.46-1.46-.15,0-.26-.12-.26-.26s.12-.26.26-.26c1.1,0,1.99.89,1.99,1.99,0,.15-.12.26-.26.26Z"/>
          <path class="cls-14" d="m21.49,51.85c-.15,0-.26-.12-.26-.26v-5.73H4.14v5.73c0,.15-.12.26-.26.26s-.26-.12-.26-.26v-5.99c0-.15.12-.26.26-.26h17.62c.15,0,.26.12.26.26v5.99c0,.15-.12.26-.26.26Z"/>
        </g>
        <g>
          <path class="cls-14" d="m18.53,108.39H6.24c-.13,0-.23-.1-.23-.23v-1.68c0-.13.1-.23.23-.23h12.29c.13,0,.23.1.23.23v1.68c0,.13-.1.23-.23.23Zm-12.06-.46h11.83v-1.22H6.47v1.22Z"/>
          <path class="cls-14" d="m6.24,115.26c-.13,0-.23-.1-.23-.23v-6.87c0-.13.1-.23.23-.23s.23.1.23.23v6.87c0,.13-.1.23-.23.23Z"/>
          <path class="cls-14" d="m18.53,115.26c-.13,0-.23-.1-.23-.23v-6.87c0-.13.1-.23.23-.23s.23.1.23.23v6.87c0,.13-.1.23-.23.23Z"/>
          <path class="cls-14" d="m16.48,104.7h-8.2c-.13,0-.23-.1-.23-.23v-4.92c0-.13.1-.23.23-.23h8.2c.13,0,.23.1.23.23v4.92c0,.13-.1.23-.23.23Zm-7.97-.46h7.74v-4.46h-7.74v4.46Z"/>
          <path class="cls-14" d="m13.99,106.57h-3.23c-.13,0-.23-.1-.23-.23v-.83c0-.13.1-.23.23-.23h3.23c.13,0,.23.1.23.23v.83c0,.13-.1.23-.23.23Zm-3-.46h2.77v-.37h-2.77v.37Z"/>
          <path class="cls-14" d="m13.05,105.74h-1.33c-.13,0-.23-.1-.23-.23v-.97c0-.13.1-.23.23-.23h1.33c.13,0,.23.1.23.23v.97c0,.13-.1.23-.23.23Zm-1.1-.46h.87v-.52h-.87v.52Z"/>
        </g>
        <g>
          <path class="cls-14" d="m15.32,86.28h-6.03c-.07,0-.13-.03-.18-.08-.04-.05-.06-.12-.05-.19l.84-3.93c.03-.12.15-.2.27-.18.12.03.2.15.18.27l-.78,3.66h5.46l-.78-3.66c-.03-.12.05-.24.18-.27.12-.03.24.05.27.18l.84,3.93c.01.07,0,.14-.05.19-.04.05-.11.08-.18.08Z"/>
          <path class="cls-14" d="m12.31,82.5c-2.5,0-4.54-2.04-4.54-4.54v-1.16c0-.13.1-.23.23-.23h8.63c.13,0,.23.1.23.23v1.16c0,2.5-2.04,4.54-4.54,4.54Zm-4.09-5.47v.93c0,2.25,1.83,4.09,4.09,4.09s4.09-1.83,4.09-4.09v-.93h-8.17Z"/>
          <path class="cls-14" d="m16.62,78.18H7.99c-.13,0-.23-.1-.23-.23s.1-.23.23-.23h8.63c.13,0,.23.1.23.23s-.1.23-.23.23Z"/>
          <path class="cls-14" d="m16.21,76.96c-.11,0-.21-.08-.22-.2l-.88-6.49h-5.59l-.89,6.49c-.02.12-.13.21-.26.19-.12-.02-.21-.13-.19-.26l.91-6.69c.02-.11.11-.2.23-.2h5.99c.11,0,.21.08.23.2l.91,6.69c.02.12-.07.24-.19.26-.01,0-.02,0-.03,0Z"/>
          <path class="cls-14" d="m12.31,71.37c-1.36,0-2.57-.1-3.25-.27-.12-.03-.2-.15-.17-.28.03-.12.15-.2.28-.17.63.16,1.83.26,3.14.26s2.5-.1,3.14-.26c.12-.03.25.04.28.17.03.12-.04.25-.16.28-.68.17-1.89.27-3.25.27Z"/>
        </g>
        <g>
          <path class="cls-14" d="m1.36,142.32c-.15,0-.26-.12-.26-.26v-4.67c0-.15.12-.26.26-.26s.26.12.26.26v4.67c0,.15-.12.26-.26.26Z"/>
          <path class="cls-14" d="m6.68,142.32c-.15,0-.26-.12-.26-.26v-4.67c0-.15.12-.26.26-.26s.26.12.26.26v4.67c0,.15-.12.26-.26.26Z"/>
          <path class="cls-14" d="m7.24,137.65H.8c-.23,0-.46-.1-.63-.29-.17-.19-.18-.66-.17-.9,0-.01,0-.02,0-.04v-5.55c0-.23.1-.46.29-.63.13-.12.4-.17.8-.17s.68.06.8.17c.19.17.29.4.29.63v4.59h5.05c.23,0,.46.1.63.29.23.25.23,1.35,0,1.6-.17.19-.4.29-.63.29Zm-6.71-1.27s0,.04,0,.06c-.01.29.02.53.05.59.03.03.12.1.23.1h6.43c.11,0,.19-.06.25-.12.05-.12.05-.77-.02-.91-.03-.03-.12-.1-.23-.1H1.92c-.15,0-.26-.12-.26-.26v-4.85c0-.11-.06-.19-.12-.24-.01,0-.17-.04-.44-.04s-.43.04-.47.05c-.03.03-.1.12-.1.23v5.51Z"/>
          <path class="cls-14" d="m16.36,132.31H5.84c-.15,0-.26-.12-.26-.26v-1.72c0-.15.12-.26.26-.26h10.52c.15,0,.26.12.26.26v1.72c0,.15-.12.26-.26.26Zm-10.26-.53h9.99v-1.19H6.1v1.19Z"/>
          <path class="cls-14" d="m11.1,142.32c-.15,0-.26-.12-.26-.26v-10c0-.15.12-.26.26-.26s.26.12.26.26v10c0,.15-.12.26-.26.26Z"/>
          <path class="cls-14" d="m20.84,142.32c-.15,0-.26-.12-.26-.26v-4.67c0-.15.12-.26.26-.26s.26.12.26.26v4.67c0,.15-.12.26-.26.26Z"/>
          <path class="cls-14" d="m15.52,142.32c-.15,0-.26-.12-.26-.26v-4.67c0-.15.12-.26.26-.26s.26.12.26.26v4.67c0,.15-.12.26-.26.26Z"/>
          <path class="cls-14" d="m21.4,137.65h-6.43c-.23,0-.46-.1-.63-.29-.23-.26-.23-1.35,0-1.61.17-.19.4-.29.63-.29h5.05v-4.59c0-.24.1-.46.29-.63.13-.12.4-.17.8-.17s.68.06.8.17c.19.17.29.4.29.63v5.55s0,.02,0,.04c0,.24,0,.71-.17.89-.17.19-.4.29-.63.29Zm-6.43-1.66c-.11,0-.19.07-.24.12-.05.12-.05.77.02.91.05.05.14.1.23.1h6.43c.11,0,.19-.06.24-.12,0-.03.04-.27.03-.56,0-.02,0-.04,0-.06v-5.5c0-.11-.06-.19-.12-.24h0s-.17-.04-.45-.04-.43.04-.47.05c-.03.03-.1.12-.1.23v4.85c0,.15-.12.26-.26.26h-5.32Z"/>
        </g>
        <g>
          <path class="cls-14" d="m17.88,194.64H2.58c-.19,0-.34-.15-.34-.34v-9.64c0-.19.15-.34.34-.34h15.3c.19,0,.34.15.34.34v9.64c0,.19-.15.34-.34.34Zm-14.96-.69h14.62v-8.95H2.92v8.95Z"/>
          <path class="cls-14" d="m10.23,194.64c-.19,0-.34-.15-.34-.34v-9.64c0-.19.15-.34.34-.34s.34.15.34.34v9.64c0,.19-.15.34-.34.34Z"/>
          <path class="cls-14" d="m8.45,188.69c-.19,0-.34-.15-.34-.34v-1.5c0-.19.15-.34.34-.34s.34.15.34.34v1.5c0,.19-.15.34-.34.34Z"/>
          <path class="cls-14" d="m12.01,188.69c-.19,0-.34-.15-.34-.34v-1.5c0-.19.15-.34.34-.34s.34.15.34.34v1.5c0,.19-.15.34-.34.34Z"/>
          <path class="cls-14" d="m18.42,185H2.05c-.19,0-.34-.15-.34-.34v-2.19c0-.19.15-.34.34-.34h16.37c.19,0,.34.15.34.34v2.19c0,.19-.15.34-.34.34Zm-16.03-.69h15.68v-1.5H2.39v1.5Z"/>
        </g>
        <g>
          <path class="cls-14" d="m15.65,168.45c-.13,0-.23-.1-.23-.23v-11.96c0-.13.1-.23.23-.23s.23.1.23.23v11.96c0,.13-.1.23-.23.23Z"/>
          <path class="cls-14" d="m10.56,168.45c-.13,0-.23-.1-.23-.23v-11.96c0-.13.1-.23.23-.23s.23.1.23.23v11.96c0,.13-.1.23-.23.23Z"/>
          <path class="cls-14" d="m5.47,168.45c-.13,0-.23-.1-.23-.23v-11.96c0-.13.1-.23.23-.23s.23.1.23.23v11.96c0,.13-.1.23-.23.23Z"/>
          <path class="cls-14" d="m20.74,168.45H.38c-.13,0-.23-.1-.23-.23v-11.96c0-.13.1-.23.23-.23h20.36c.13,0,.23.1.23.23v11.96c0,.13-.1.23-.23.23Zm-20.14-.46h19.91v-11.51H.61v11.51Z"/>
          <path class="cls-14" d="m14.32,163.06c-.13,0-.23-.1-.23-.23v-1.19c0-.13.1-.23.23-.23s.23.1.23.23v1.19c0,.13-.1.23-.23.23Z"/>
          <path class="cls-14" d="m16.98,163.06c-.13,0-.23-.1-.23-.23v-1.19c0-.13.1-.23.23-.23s.23.1.23.23v1.19c0,.13-.1.23-.23.23Z"/>
          <path class="cls-14" d="m4.14,163.06c-.13,0-.23-.1-.23-.23v-1.19c0-.13.1-.23.23-.23s.23.1.23.23v1.19c0,.13-.1.23-.23.23Z"/>
          <path class="cls-14" d="m10.59,163.79h-5.12c-.13,0-.23-.1-.23-.23s.1-.23.23-.23h5.12c.13,0,.23.1.23.23s-.1.23-.23.23Z"/>
          <path class="cls-14" d="m10.59,161.36h-5.12c-.13,0-.23-.1-.23-.23s.1-.23.23-.23h5.12c.13,0,.23.1.23.23s-.1.23-.23.23Z"/>
          <path class="cls-14" d="m10.59,158.92h-5.12c-.13,0-.23-.1-.23-.23s.1-.23.23-.23h5.12c.13,0,.23.1.23.23s-.1.23-.23.23Z"/>
          <path class="cls-14" d="m8.44,164.63h-.81c-.13,0-.23-.1-.23-.23s.1-.23.23-.23h.81c.13,0,.23.1.23.23s-.1.23-.23.23Z"/>
        </g>
        <g>
          <path class="cls-14" d="m18.65,227.95H3.45c-.16,0-.28-.13-.28-.28v-20.26c0-.16.13-.28.28-.28h15.2c.16,0,.28.13.28.28v20.26c0,.16-.13.28-.28.28Zm-14.92-.56h14.64v-19.7H3.73v19.7Z"/>
          <path class="cls-14" d="m11.04,223.27c-2.75,0-4.98-2.24-4.98-4.98s2.24-4.98,4.98-4.98,4.98,2.24,4.98,4.98-2.24,4.98-4.98,4.98Zm0-9.41c-2.44,0-4.42,1.98-4.42,4.42s1.98,4.42,4.42,4.42,4.42-1.98,4.42-4.42-1.98-4.42-4.42-4.42Z"/>
          <path class="cls-14" d="m11.04,221.9c-1.99,0-3.61-1.62-3.61-3.61s1.62-3.61,3.61-3.61,3.62,1.62,3.62,3.61-1.62,3.61-3.62,3.61Zm0-6.67c-1.68,0-3.05,1.37-3.05,3.05s1.37,3.05,3.05,3.05,3.05-1.37,3.05-3.05-1.37-3.05-3.05-3.05Z"/>
          <path class="cls-14" d="m18.65,211.16H3.45c-.16,0-.28-.13-.28-.28s.13-.28.28-.28h15.2c.16,0,.28.13.28.28s-.13.28-.28.28Z"/>
        </g>
      </g>
      <g>
        <path class="cls-15" d="m183.34,53.7h-13.52c-.14,0-.25-.11-.25-.25v-3.99c0-.14.11-.25.25-.25s.25.11.25.25v3.74h13.02v-3.74c0-.14.11-.25.25-.25s.25.11.25.25v3.99c0,.14-.11.25-.25.25Z"/>
        <path class="cls-15" d="m182.01,47.76h-10.87c-.14,0-.25-.11-.25-.25s.11-.25.25-.25h10.87c.14,0,.25.11.25.25s-.11.25-.25.25Z"/>
        <path class="cls-15" d="m171.4,55.68c-.14,0-.25-.11-.25-.25v-1.98c0-.14.11-.25.25-.25s.25.11.25.25v1.98c0,.14-.11.25-.25.25Z"/>
        <path class="cls-15" d="m181.95,55.68c-.14,0-.25-.11-.25-.25v-1.98c0-.14.11-.25.25-.25s.25.11.25.25v1.98c0,.14-.11.25-.25.25Z"/>
        <path class="cls-15" d="m178.79,47.77h-4.42c-.62,0-1.12-.5-1.12-1.12s.5-1.12,1.12-1.12h4.42c.62,0,1.12.5,1.12,1.12s-.5,1.12-1.12,1.12Zm-4.42-1.75c-.35,0-.63.28-.63.63s.28.63.63.63h4.42c.35,0,.63-.28.63-.63s-.28-.63-.63-.63h-4.42Z"/>
        <path class="cls-15" d="m169.82,49.71c-.14,0-.25-.11-.25-.25,0-1.21.7-2.19,1.57-2.19.14,0,.25.11.25.25s-.11.25-.25.25c-.58,0-1.08.78-1.08,1.7,0,.14-.11.25-.25.25Z"/>
        <path class="cls-15" d="m183.34,49.71c-.14,0-.25-.11-.25-.25,0-.92-.49-1.7-1.08-1.7-.14,0-.25-.11-.25-.25s.11-.25.25-.25c.87,0,1.57.98,1.57,2.19,0,.14-.11.25-.25.25Z"/>
        <path class="cls-15" d="m183.34,49.71c-.14,0-.25-.11-.25-.25v-6.5h-13.02v6.5c0,.14-.11.25-.25.25s-.25-.11-.25-.25v-6.75c0-.14.11-.25.25-.25h13.52c.14,0,.25.11.25.25v6.75c0,.14-.11.25-.25.25Z"/>
      </g>
      <path class="cls-14" d="m176.41,113.38s-.08,0-.12-.03c-.12-.06-.18-.2-.14-.33l1.66-5.67h-3.88c-.09,0-.17-.04-.22-.11-.05-.07-.07-.16-.05-.24l1.74-7.07c.03-.12.14-.21.27-.21h4.57c.09,0,.17.04.23.12.05.07.07.17.04.25l-1.57,4.48h3.64c.11,0,.2.06.25.15.05.09.04.21-.03.29l-6.14,8.25c-.05.07-.14.11-.22.11Zm-2.14-6.58h3.9c.09,0,.17.04.22.11.05.07.07.16.04.25l-1.33,4.54,4.88-6.56h-3.48c-.09,0-.17-.04-.23-.12-.05-.07-.07-.17-.04-.25l1.57-4.48h-3.96l-1.6,6.52Z"/>
      <g>
        <path class="cls-14" d="m182.1,140.85c-.16,0-.29-.13-.29-.29,0-3.05-2.57-8.75-8.75-8.75-.16,0-.29-.13-.29-.29s.13-.29.29-.29c6.59,0,9.33,6.08,9.33,9.33,0,.16-.13.29-.29.29Z"/>
        <path class="cls-14" d="m186.62,140.76c-.16,0-.29-.13-.29-.29,0-4.63-3.89-13.26-13.26-13.26-.16,0-.29-.13-.29-.29s.13-.29.29-.29c9.79,0,13.85,9.02,13.85,13.85,0,.16-.13.29-.29.29Z"/>
        <path class="cls-14" d="m175.27,140.85c-1.38,0-2.5-1.12-2.5-2.5s1.12-2.5,2.5-2.5,2.5,1.12,2.5,2.5-1.12,2.5-2.5,2.5Zm0-4.42c-1.06,0-1.92.86-1.92,1.92s.86,1.92,1.92,1.92,1.92-.86,1.92-1.92-.86-1.92-1.92-1.92Z"/>
      </g>
      <g>
        <path class="cls-14" d="m178.47,167.62h-.37c-.07,0-.13-.02-.18-.07l-.38-.33c-.06-.05-.1-.13-.1-.21v-.65c0-.15.12-.28.28-.28h1.13c.15,0,.28.12.28.28v.65c0,.08-.04.16-.1.21l-.38.33c-.05.04-.11.07-.18.07Zm-.27-.56h.16l.21-.18v-.24h-.58v.24l.21.18Z"/>
        <path class="cls-14" d="m179.03,168.8h-1.49c-.09,0-.18-.05-.23-.13s-.06-.18-.02-.26l.53-1.18c.04-.1.14-.16.25-.16h.43c.11,0,.21.06.25.16l.53,1.18c.04.09.03.19-.02.27s-.14.13-.23.13Zm-1.06-.56h.63l-.28-.63h-.07l-.28.63Z"/>
        <path class="cls-14" d="m178.28,165.11c-1.51,0-2.98-.99-3.79-2.55-.5.04-.99-.37-1.17-1.01-.09-.32-.08-.65.02-.93.11-.29.31-.5.56-.59,0-.19.03-.39.06-.58.03-.15.17-.25.32-.23.15.03.25.17.23.32-.04.22-.06.44-.06.66,0,.07-.03.17-.08.22-.05.05-.12.11-.2.11-.03,0-.05,0-.07.01-.14.04-.21.18-.24.26-.06.17-.06.38,0,.59.11.38.41.66.65.59.14-.06.33-.01.39.12.7,1.48,2.03,2.43,3.39,2.43s2.69-.95,3.39-2.43c.06-.14.22-.19.36-.14.27.08.57-.2.68-.58.06-.2.06-.42,0-.59-.03-.08-.1-.22-.24-.26-.02,0-.05,0-.07,0-.07,0-.15-.03-.2-.08-.05-.05-.08-.13-.08-.2l.28-.05h-.28c0-.22-.02-.44-.06-.66-.03-.15.08-.29.23-.32.15-.02.3.08.32.23.03.19.05.38.06.58.25.09.45.3.56.59.1.28.11.61.02.93-.18.64-.67,1.05-1.18,1.01-.81,1.56-2.28,2.55-3.79,2.55Z"/>
        <path class="cls-14" d="m183.87,168.8h-11.18c-.15,0-.28-.12-.28-.28v-.62c0-1.79.96-3.19,2.19-3.19h1.3c.09,0,.18.05.23.12.52.78,1.24.94,2.14.94s1.62-.16,2.14-.94c.05-.08.14-.12.23-.12h1.3c1.21,0,2.19,1.43,2.19,3.19v.62c0,.15-.12.28-.28.28Zm-10.9-.56h10.62v-.34c0-1.43-.75-2.64-1.64-2.64h-1.16c-.7.93-1.66,1.06-2.52,1.06s-1.82-.13-2.52-1.06h-1.16c-.89,0-1.64,1.21-1.64,2.64v.34Z"/>
        <path class="cls-14" d="m182.74,159.79h-8.92c-.15,0-.27-.12-.28-.27,0-.07,0-.13,0-.18,0-2.61,2.13-4.74,4.74-4.74s4.74,2.13,4.74,4.74c0,.06,0,.12,0,.18,0,.15-.13.27-.28.27Zm-8.64-.56h8.37c-.06-2.26-1.91-4.08-4.18-4.08s-4.13,1.82-4.18,4.08Z"/>
        <path class="cls-14" d="m177.3,157.48c-.15,0-.28-.12-.28-.28v-2.21c0-.15.12-.28.28-.28s.28.12.28.28v2.21c0,.15-.12.28-.28.28Z"/>
        <path class="cls-14" d="m179.24,157.48c-.15,0-.28-.12-.28-.28v-2.21c0-.15.12-.28.28-.28s.28.12.28.28v2.21c0,.15-.12.28-.28.28Z"/>
      </g>
      <g>
        <path class="cls-14" d="m183.9,69.68h-13.03c-.2,0-.36.16-.36.37v15.64c0,.07.02.14.07.19.05.1.16.17.29.17h13.03c.2,0,.36-.16.36-.36v-15.64c0-.21-.16-.37-.36-.37Zm-12.66.74h12.29v14.9h-12.29v-14.9Z"/>
        <path class="cls-14" d="m177.38,86.05c-.2,0-.37-.17-.37-.37v-15.64c0-.2.17-.37.37-.37s.37.17.37.37v15.64c0,.2-.17.37-.37.37Z"/>
        <path class="cls-14" d="m171.24,85.69v.36h-.37c-.13,0-.25-.07-.29-.17h-.07s0-.19,0-.19c0-.21.16-.37.37-.37s.36.16.36.37Z"/>
        <path class="cls-14" d="m184.26,85.69c0,.2-.16.36-.36.36h-.37v-.36s0-.05.02-.08c.03-.17.18-.29.36-.29s.31.12.34.28c.02.03.02.06.02.09Z"/>
      </g>
    </g>
  </g>
</svg>