<svg xmlns="http://www.w3.org/2000/svg" xmlns:xlink="http://www.w3.org/1999/xlink" viewBox="0 0 337.23 162.35"><defs><style>.cls-1{fill:url(#Dull_Brass);}.cls-2{fill:url(#Dull_Brass-2);}.cls-3{fill:url(#Dull_Brass-3);}.cls-4{fill:url(#Dull_Brass-4);}.cls-5{fill:url(#Dull_Brass-5);}.cls-6{fill:url(#Dull_Brass-6);}.cls-7{fill:url(#Dull_Brass-7);}.cls-8{fill:#939598;}.cls-9{fill:#6d6e71;}.cls-10{fill:#444;}</style><linearGradient id="Dull_Brass" x1="-7.95" y1="-0.85" x2="108.09" y2="47.2" gradientUnits="userSpaceOnUse"><stop offset="0.01" stop-color="#ebc17d"/><stop offset="0.19" stop-color="#dfb77c"/><stop offset="0.6" stop-color="#c08329"/><stop offset="0.87" stop-color="#eabe81"/><stop offset="1" stop-color="#eedcc3"/></linearGradient><linearGradient id="Dull_Brass-2" x1="-6.19" y1="-5.1" x2="109.85" y2="42.94" xlink:href="#Dull_Brass"/><linearGradient id="Dull_Brass-3" x1="-4.71" y1="-8.7" x2="111.34" y2="39.35" xlink:href="#Dull_Brass"/><linearGradient id="Dull_Brass-4" x1="-4.04" y1="-10.29" x2="112" y2="37.75" xlink:href="#Dull_Brass"/><linearGradient id="Dull_Brass-5" x1="-2.67" y1="-13.62" x2="113.37" y2="34.43" xlink:href="#Dull_Brass"/><linearGradient id="Dull_Brass-6" x1="-2.06" y1="-15.08" x2="113.98" y2="32.96" xlink:href="#Dull_Brass"/><linearGradient id="Dull_Brass-7" x1="-0.64" y1="-18.52" x2="115.4" y2="29.53" xlink:href="#Dull_Brass"/></defs><title>details</title><g id="Layer_2" data-name="Layer 2"><g id="Layer_1-2" data-name="Layer 1"><path class="cls-1" d="M4.73.26H8.1a5.09,5.09,0,1,1,0,10.17H4.73Zm1,9.22h2c3.11,0,4.56-2,4.56-4.13S10.88,1.21,7.77,1.21h-2Z"/><path class="cls-2" d="M16.92,9.48h5.44v.95H15.88V.26h6.31v1H16.92V4.67h4.92v1H16.92Z"/><path class="cls-3" d="M28,10.43H27V1.21H23.58V.26h7.85v1H28Z"/><path class="cls-4" d="M32.22,10.43H31L35.44.26h1l4.42,10.17H39.66L38.54,7.76h-5.2Zm1.51-3.62h4.41l-2.2-5.34Z"/><path class="cls-5" d="M43.65,10.43h-1V.26h1Z"/><path class="cls-6" d="M47.8,9.48h4.74v.95H46.77V.26h1Z"/><path class="cls-7" d="M59.12,1.94a2.21,2.21,0,0,0-2-1A1.93,1.93,0,0,0,55,2.79c0,2.74,5.21,1.29,5.21,5a3.16,3.16,0,0,1-3.35,2.95,3.84,3.84,0,0,1-3.2-1.51l.93-.67A2.59,2.59,0,0,0,56.9,9.74a2,2,0,0,0,2.18-1.85c0-2.88-5.21-1.28-5.21-5C53.87.92,55.5,0,57.16,0A3.51,3.51,0,0,1,60,1.24Z"/><path class="cls-8" d="M32.06,44.36h.42c.94,0,1.74-.4,1.74-1.46a1.3,1.3,0,0,0-1.47-1.35,1.66,1.66,0,0,0-1.52.88l-.71-.36a2.36,2.36,0,0,1,2.21-1.26A2.1,2.1,0,0,1,35,42.88a2,2,0,0,1-1.36,1.82l0,0a2,2,0,0,1,1.53,2,2.32,2.32,0,0,1-2.55,2.3,2.46,2.46,0,0,1-2.51-1.61l.86-.26a1.76,1.76,0,0,0,3.39-.45c0-1.21-1-1.62-2-1.62h-.35Z"/><path class="cls-8" d="M40.79,40.94h2.38c1.32,0,2.57.5,2.57,2a1.72,1.72,0,0,1-1.41,1.74v0a1.85,1.85,0,0,1,1.8,2c0,.51-.34,2.2-2.9,2.2H40.79Zm.81,3.49h1.64c.77,0,1.62-.37,1.62-1.39,0-.33-.17-1.36-1.7-1.36H41.6Zm0,3.74h1.56c1.17,0,2.09-.46,2.09-1.51s-.7-1.55-2-1.55H41.6Z"/><path class="cls-8" d="M48.41,46.48a2,2,0,0,0,3.63,1l.57.47a2.74,2.74,0,0,1-2.26,1.12,2.77,2.77,0,0,1-.07-5.54,2.46,2.46,0,0,1,2.52,2.63v.34ZM52,45.87a1.59,1.59,0,0,0-1.71-1.69,1.85,1.85,0,0,0-1.84,1.69Z"/><path class="cls-8" d="M59.69,48.91H59V48h0a2.53,2.53,0,0,1-2,1,2.77,2.77,0,1,1,0-5.54,2.53,2.53,0,0,1,2,1h0V40.4h.74Zm-2.81-.54a2.1,2.1,0,1,0,0-4.19,2.1,2.1,0,0,0,0,4.19Z"/><path class="cls-8" d="M61.67,45.29c0-.47,0-.88-.05-1.65h.74v1h0a1.73,1.73,0,0,1,1.69-1.11,1.84,1.84,0,0,1,.55.07l-.15.73a1.09,1.09,0,0,0-.43-.06,1.65,1.65,0,0,0-1.63,1.69v3h-.74Z"/><path class="cls-8" d="M67.93,49.05a2.77,2.77,0,1,1,2.8-2.77A2.69,2.69,0,0,1,67.93,49.05Zm0-4.87a2.1,2.1,0,1,0,2,2.1A2,2,0,0,0,67.93,44.18Z"/><path class="cls-8" d="M74.88,49.05a2.77,2.77,0,1,1,2.81-2.77A2.69,2.69,0,0,1,74.88,49.05Zm0-4.87a2.1,2.1,0,1,0,2,2.1A2,2,0,0,0,74.88,44.18Z"/><path class="cls-8" d="M79.31,44.82c0-.4,0-.78,0-1.18h.8v.8h0a2,2,0,0,1,1.7-.93,1.68,1.68,0,0,1,1.68,1.09,1.92,1.92,0,0,1,1.73-1.09,1.8,1.8,0,0,1,2,2.06v3.34h-.74V45.84c0-1.07-.3-1.66-1.33-1.66s-1.48,1-1.48,1.93v2.8h-.75V45.84c0-1.07-.3-1.66-1.33-1.66-.18,0-1.48.11-1.48,2v2.7h-.75Z"/><path class="cls-8" d="M92,44.89a1.25,1.25,0,0,0-1.14-.71c-.52,0-1.09.23-1.09.79s.34.68,1,.84l.76.18a1.5,1.5,0,0,1,1.28,1.44c0,1.15-1,1.62-2,1.62a2.3,2.3,0,0,1-2-1l.65-.43a1.58,1.58,0,0,0,1.38.78c.61,0,1.24-.27,1.24-.87s-.45-.71-1-.85l-.72-.17c-.36-.09-1.35-.38-1.35-1.38s1-1.59,1.94-1.59a1.82,1.82,0,0,1,1.76,1Z"/><path class="cls-8" d="M35.37,84.91H30.3V84l3.18-3.23a2.77,2.77,0,0,0,1-1.8A1.4,1.4,0,0,0,33,77.55a1.56,1.56,0,0,0-1.59,1.25l-.85-.09a2.29,2.29,0,0,1,2.39-1.9,2.13,2.13,0,0,1,2.4,2.07,4,4,0,0,1-1.61,2.8l-2.51,2.49h4.19Z"/><path class="cls-8" d="M45.67,83.07l1.79,1.84H46.31l-1.12-1.17a2.92,2.92,0,0,1-2.44,1.38,2.32,2.32,0,0,1-2.5-2.28,2.68,2.68,0,0,1,1.82-2.35,2.87,2.87,0,0,1-.94-1.87,1.84,1.84,0,0,1,2-1.88,1.76,1.76,0,0,1,1.93,1.79c0,1-.93,1.64-1.76,2.07l1.84,1.89,1.09-1.89h.91ZM42.57,81c-1,.58-1.44,1-1.44,1.85a1.56,1.56,0,0,0,1.63,1.52,2.4,2.4,0,0,0,1.92-1.17Zm.57-3.52a1.14,1.14,0,0,0-1.2,1.17,2.44,2.44,0,0,0,.84,1.43c.6-.35,1.46-.73,1.46-1.55A1,1,0,0,0,43.14,77.48Z"/><path class="cls-8" d="M54.46,84.91h-.65V79.35l-1.14,1-.41-.49,1.62-1.33h.58Z"/><path class="cls-8" d="M57.12,85.08l-.52-.17,2.73-6.53.51.18Z"/><path class="cls-8" d="M64.59,84.91H60.54v-.74l2.54-2.59a2.16,2.16,0,0,0,.81-1.44A1.12,1.12,0,0,0,62.66,79a1.24,1.24,0,0,0-1.27,1L60.7,80a1.84,1.84,0,0,1,1.91-1.52,1.72,1.72,0,0,1,1.93,1.66,3.21,3.21,0,0,1-1.29,2.24l-2,2h3.34Z"/><path class="cls-8" d="M69.83,76.94h2.38c1.31,0,2.56.5,2.56,2a1.71,1.71,0,0,1-1.4,1.74v0a1.85,1.85,0,0,1,1.8,2c0,.51-.34,2.2-2.91,2.2H69.83Zm.81,3.49h1.63c.78,0,1.63-.37,1.63-1.39,0-.33-.17-1.36-1.7-1.36H70.64Zm0,3.74H72.2c1.17,0,2.09-.46,2.09-1.51s-.7-1.55-2-1.55H70.64Z"/><path class="cls-8" d="M80.31,81.68v-.13A1.2,1.2,0,0,0,79,80.18a2.37,2.37,0,0,0-1.61.62l-.45-.53a3,3,0,0,1,2.23-.76,1.76,1.76,0,0,1,1.92,1.87v2.35a9.33,9.33,0,0,0,.09,1.18h-.72a5.73,5.73,0,0,1-.07-.85h0a2,2,0,0,1-1.86,1,1.62,1.62,0,0,1-1.81-1.54c0-1.71,2-1.83,3.28-1.83Zm-.38.61c-.76,0-2.46.06-2.46,1.12,0,.69.64,1,1.24,1a1.54,1.54,0,0,0,1.6-1.7v-.38Z"/><path class="cls-8" d="M85.78,80.32H84.26v3.11c0,.79.3.94.76.94a1.61,1.61,0,0,0,.77-.2l0,.69a2.55,2.55,0,0,1-1,.19,1.23,1.23,0,0,1-1.31-1.41V80.32H82.4v-.68h1.11V78.16h.75v1.48h1.52Z"/><path class="cls-8" d="M87.07,76.4h.74v4.09h0a2.13,2.13,0,0,1,1.77-1,1.8,1.8,0,0,1,2,2.06v3.34h-.74V82c0-1.17-.32-1.82-1.43-1.82-.16,0-1.6.11-1.6,2v2.7h-.74Z"/><path class="cls-8" d="M93.69,81.29c0-.47,0-.88,0-1.65h.73v1h0a1.72,1.72,0,0,1,1.68-1.11,1.86,1.86,0,0,1,.56.07l-.15.73a1.09,1.09,0,0,0-.43-.06,1.65,1.65,0,0,0-1.63,1.69v3h-.74Z"/><path class="cls-8" d="M100,85.05a2.77,2.77,0,1,1,2.8-2.77A2.69,2.69,0,0,1,100,85.05Zm0-4.87a2.1,2.1,0,1,0,2,2.1A2,2,0,0,0,100,80.18Z"/><path class="cls-8" d="M106.9,85.05a2.77,2.77,0,1,1,2.8-2.77A2.69,2.69,0,0,1,106.9,85.05Zm0-4.87a2.1,2.1,0,1,0,2,2.1A2,2,0,0,0,106.9,80.18Z"/><path class="cls-8" d="M111.33,80.82c0-.4,0-.78,0-1.18h.8v.8h0a2,2,0,0,1,1.7-.93,1.68,1.68,0,0,1,1.68,1.09,1.92,1.92,0,0,1,1.73-1.09,1.8,1.8,0,0,1,2,2.06v3.34h-.74V81.84c0-1.07-.3-1.66-1.33-1.66s-1.49.95-1.49,1.93v2.8h-.74V81.84c0-1.07-.3-1.66-1.33-1.66-.18,0-1.48.11-1.48,2v2.7h-.75Z"/><path class="cls-8" d="M124,80.89a1.23,1.23,0,0,0-1.13-.71c-.52,0-1.1.23-1.1.79s.35.68,1,.84l.75.18a1.5,1.5,0,0,1,1.29,1.44c0,1.15-1,1.62-2,1.62a2.3,2.3,0,0,1-2-1l.64-.43a1.61,1.61,0,0,0,1.39.78c.61,0,1.24-.27,1.24-.87s-.45-.71-1-.85l-.73-.17c-.36-.09-1.35-.38-1.35-1.38s1-1.59,2-1.59a1.83,1.83,0,0,1,1.76.95Z"/><path class="cls-8" d="M31.66,120.17h3.71v.74H30.85v-8h.81Z"/><path class="cls-8" d="M37,114.16a.55.55,0,0,1-.54-.54.54.54,0,1,1,1.08,0A.55.55,0,0,1,37,114.16Zm.38,6.75h-.75v-5.27h.75Z"/><path class="cls-8" d="M41.79,120.91H41l-2.14-5.27h.89l1.68,4.44h0l1.68-4.44h.84Z"/><path class="cls-8" d="M45.71,114.16a.55.55,0,0,1-.54-.54.54.54,0,1,1,1.08,0A.55.55,0,0,1,45.71,114.16Zm.37,6.75h-.74v-5.27h.74Z"/><path class="cls-8" d="M48.86,115.64a6.12,6.12,0,0,1,0,.85h0a2.12,2.12,0,0,1,1.77-1,1.8,1.8,0,0,1,2,2.06v3.34h-.75V118c0-1.17-.32-1.82-1.42-1.82-.16,0-1.6.11-1.6,2v2.7h-.75V116.8c0-.28,0-.77,0-1.16Z"/><path class="cls-8" d="M55.1,122a2.48,2.48,0,0,0,2,1,1.86,1.86,0,0,0,2-2.07v-1h0a2.26,2.26,0,0,1-2,1,2.67,2.67,0,0,1-2.75-2.68,2.64,2.64,0,0,1,2.68-2.72,2.44,2.44,0,0,1,2,1h0v-.88h.75v5.23a2.53,2.53,0,0,1-2.83,2.75,3.28,3.28,0,0,1-2.54-1.06Zm2.09-1.73a2,2,0,0,0,0-4.06,2,2,0,0,0,0,4.06Z"/><path class="cls-8" d="M66.34,120.91h-.81v-8H68c1.62,0,2.63.7,2.63,2.13a2,2,0,0,1-2,2.06l2.3,3.78h-1l-2.18-3.7H66.34Zm0-4.44h1.44c1.45,0,2-.63,2-1.4s-.5-1.39-2-1.39H66.34Z"/><path class="cls-8" d="M74.73,121.05a2.77,2.77,0,1,1,2.81-2.77A2.69,2.69,0,0,1,74.73,121.05Zm0-4.87a2.1,2.1,0,1,0,2,2.1A2,2,0,0,0,74.73,116.18Z"/><path class="cls-8" d="M81.69,121.05a2.77,2.77,0,1,1,2.8-2.77A2.69,2.69,0,0,1,81.69,121.05Zm0-4.87a2.1,2.1,0,1,0,2,2.1A2,2,0,0,0,81.69,116.18Z"/><path class="cls-8" d="M86.12,116.82c0-.4,0-.78-.05-1.18h.79v.8h0a2,2,0,0,1,1.7-.93,1.68,1.68,0,0,1,1.68,1.09A1.92,1.92,0,0,1,92,115.51a1.8,1.8,0,0,1,2,2.06v3.34h-.74v-3.07c0-1.07-.31-1.66-1.33-1.66s-1.49.95-1.49,1.93v2.8h-.74v-3.07c0-1.07-.3-1.66-1.33-1.66-.18,0-1.49.11-1.49,2v2.7h-.74Z"/><path class="cls-8" d="M244.78,47.43l2.69-6.49h1.24v8h-.81V42h0L245,48.91h-.43L241.68,42h0v6.89h-.81v-8h1.23Z"/><path class="cls-8" d="M253.39,49.05a2.77,2.77,0,1,1,2.81-2.77A2.69,2.69,0,0,1,253.39,49.05Zm0-4.87a2.1,2.1,0,1,0,2,2.1A2,2,0,0,0,253.39,44.18Z"/><path class="cls-8" d="M263.08,48.91h-.74V48h0a2.52,2.52,0,0,1-2.05,1,2.77,2.77,0,1,1,0-5.54,2.52,2.52,0,0,1,2.05,1h0V40.4h.74Zm-2.81-.54a2.1,2.1,0,1,0,0-4.19,2.1,2.1,0,0,0,0,4.19Z"/><path class="cls-8" d="M265.5,46.48a2,2,0,0,0,1.94,1.89,2,2,0,0,0,1.69-.91l.57.47a2.74,2.74,0,0,1-2.26,1.12,2.77,2.77,0,0,1-.07-5.54,2.46,2.46,0,0,1,2.52,2.63v.34Zm3.58-.61a1.59,1.59,0,0,0-1.71-1.69,1.86,1.86,0,0,0-1.85,1.69Z"/><path class="cls-8" d="M271.6,45.29c0-.47,0-.88,0-1.65h.73v1h0A1.73,1.73,0,0,1,274,43.51a1.84,1.84,0,0,1,.55.07l-.15.73a1.06,1.06,0,0,0-.42-.06,1.65,1.65,0,0,0-1.64,1.69v3h-.74Z"/><path class="cls-8" d="M276.45,43.64a8.14,8.14,0,0,1,0,.85h0a2.1,2.1,0,0,1,1.77-1,1.8,1.8,0,0,1,2,2.06v3.34h-.75V46c0-1.17-.32-1.82-1.43-1.82-.15,0-1.6.11-1.6,2v2.7h-.74V44.8c0-.28,0-.77-.05-1.16Z"/><path class="cls-8" d="M286.77,44.4h.11l3.75-3.46h1.16l-4,3.62L292,48.91h-1.2l-3.91-4.11h-.14v4.11H286v-8h.81Z"/><path class="cls-8" d="M293.6,42.16a.55.55,0,0,1-.54-.54.54.54,0,1,1,1.08,0A.55.55,0,0,1,293.6,42.16Zm.37,6.75h-.74V43.64H294Z"/><path class="cls-8" d="M298.77,44.32h-1.52v3.11c0,.79.3.94.76.94a1.61,1.61,0,0,0,.77-.2l0,.69a2.55,2.55,0,0,1-1,.19,1.23,1.23,0,0,1-1.31-1.41V44.32h-1.11v-.68h1.11V42.16h.75v1.48h1.52Z"/><path class="cls-8" d="M303.9,44.88a1.59,1.59,0,0,0-1.32-.7,2.1,2.1,0,0,0,0,4.19,1.58,1.58,0,0,0,1.32-.69l.61.46a2.55,2.55,0,0,1-1.93.91,2.77,2.77,0,1,1,0-5.54,2.55,2.55,0,0,1,1.93.91Z"/><path class="cls-8" d="M305.77,40.4h.74v4.09h0a2.12,2.12,0,0,1,1.77-1,1.8,1.8,0,0,1,2,2.06v3.34h-.74V46c0-1.17-.33-1.82-1.43-1.82-.16,0-1.6.11-1.6,2v2.7h-.74Z"/><path class="cls-8" d="M312.82,46.48a2,2,0,0,0,3.63,1l.57.47a2.74,2.74,0,0,1-2.26,1.12,2.77,2.77,0,0,1-.07-5.54,2.46,2.46,0,0,1,2.52,2.63v.34Zm3.58-.61a1.59,1.59,0,0,0-1.71-1.69,1.86,1.86,0,0,0-1.85,1.69Z"/><path class="cls-8" d="M319.55,43.64a8.14,8.14,0,0,1,0,.85h0a2.1,2.1,0,0,1,1.77-1,1.8,1.8,0,0,1,2,2.06v3.34h-.75V46c0-1.17-.32-1.82-1.43-1.82-.15,0-1.6.11-1.6,2v2.7h-.74V44.8c0-.28,0-.77,0-1.16Z"/><path class="cls-8" d="M243.4,84.91h-.81V77.68h-2.67v-.74h6.15v.74H243.4Z"/><path class="cls-8" d="M246.36,81.29c0-.47,0-.88-.05-1.65h.74v1h0a1.73,1.73,0,0,1,1.69-1.11,1.84,1.84,0,0,1,.55.07l-.15.73a1.06,1.06,0,0,0-.42-.06,1.65,1.65,0,0,0-1.64,1.69v3h-.74Z"/><path class="cls-8" d="M253.68,81.68v-.13a1.2,1.2,0,0,0-1.35-1.37,2.39,2.39,0,0,0-1.62.62l-.45-.53a3,3,0,0,1,2.23-.76,1.77,1.77,0,0,1,1.93,1.87v2.35a7.78,7.78,0,0,0,.09,1.18h-.72a4.64,4.64,0,0,1-.07-.85h0a2,2,0,0,1-1.86,1A1.62,1.62,0,0,1,250,83.51c0-1.71,2-1.83,3.27-1.83Zm-.39.61c-.75,0-2.45.06-2.45,1.12,0,.69.64,1,1.24,1a1.54,1.54,0,0,0,1.6-1.7v-.38Z"/><path class="cls-8" d="M261.68,84.91h-.74V84h0a2.51,2.51,0,0,1-2.05,1,2.77,2.77,0,1,1,0-5.54,2.51,2.51,0,0,1,2.05,1h0V76.4h.74Zm-2.82-.54a2.1,2.1,0,1,0,0-4.19,2.1,2.1,0,0,0,0,4.19Z"/><path class="cls-8" d="M264.12,78.16a.55.55,0,0,1-.54-.54.54.54,0,0,1,1.08,0A.55.55,0,0,1,264.12,78.16Zm.37,6.75h-.74V79.64h.74Z"/><path class="cls-8" d="M269.28,80.32h-1.52v3.11c0,.79.31.94.77.94a1.54,1.54,0,0,0,.76-.2l0,.69a2.55,2.55,0,0,1-1,.19A1.23,1.23,0,0,1,267,83.64V80.32h-1.11v-.68H267V78.16h.74v1.48h1.52Z"/><path class="cls-8" d="M271.12,78.16a.55.55,0,0,1-.54-.54.54.54,0,0,1,1.08,0A.55.55,0,0,1,271.12,78.16Zm.37,6.75h-.74V79.64h.74Z"/><path class="cls-8" d="M276.08,85.05a2.77,2.77,0,1,1,2.81-2.77A2.69,2.69,0,0,1,276.08,85.05Zm0-4.87a2.1,2.1,0,1,0,2,2.1A2,2,0,0,0,276.08,80.18Z"/><path class="cls-8" d="M281.22,79.64a6.12,6.12,0,0,1,0,.85h0a2.12,2.12,0,0,1,1.77-1,1.8,1.8,0,0,1,2,2.06v3.34h-.74V82c0-1.17-.33-1.82-1.43-1.82-.16,0-1.6.11-1.6,2v2.7h-.75V80.8c0-.28,0-.77-.05-1.16Z"/><path class="cls-8" d="M290.43,81.68v-.13a1.2,1.2,0,0,0-1.35-1.37,2.37,2.37,0,0,0-1.61.62l-.45-.53a3,3,0,0,1,2.23-.76,1.76,1.76,0,0,1,1.92,1.87v2.35a9.33,9.33,0,0,0,.09,1.18h-.72a5.73,5.73,0,0,1-.07-.85h0a2,2,0,0,1-1.86,1,1.62,1.62,0,0,1-1.81-1.54c0-1.71,2-1.83,3.28-1.83Zm-.38.61c-.76,0-2.46.06-2.46,1.12,0,.69.64,1,1.24,1a1.54,1.54,0,0,0,1.6-1.7v-.38Z"/><path class="cls-8" d="M294.08,84.91h-.74V76.4h.74Z"/><path class="cls-8" d="M300.65,80.4h.11l3.75-3.46h1.16l-4,3.62,4.24,4.35H304.7l-3.92-4.11h-.13v4.11h-.82v-8h.82Z"/><path class="cls-8" d="M307.48,78.16a.55.55,0,0,1-.54-.54.54.54,0,1,1,1.08,0A.55.55,0,0,1,307.48,78.16Zm.37,6.75h-.75V79.64h.75Z"/><path class="cls-8" d="M312.64,80.32h-1.52v3.11c0,.79.31.94.77.94a1.54,1.54,0,0,0,.76-.2l0,.69a2.55,2.55,0,0,1-1,.19,1.23,1.23,0,0,1-1.31-1.41V80.32h-1.12v-.68h1.12V78.16h.74v1.48h1.52Z"/><path class="cls-8" d="M317.77,80.88a1.57,1.57,0,0,0-1.31-.7,2.1,2.1,0,0,0,0,4.19,1.56,1.56,0,0,0,1.31-.69l.61.46a2.51,2.51,0,0,1-1.92.91,2.77,2.77,0,1,1,0-5.54,2.51,2.51,0,0,1,1.92.91Z"/><path class="cls-8" d="M319.64,76.4h.74v4.09h0a2.1,2.1,0,0,1,1.76-1,1.81,1.81,0,0,1,2,2.06v3.34h-.75V82c0-1.17-.32-1.82-1.43-1.82-.15,0-1.6.11-1.6,2v2.7h-.74Z"/><path class="cls-8" d="M326.7,82.48a2,2,0,0,0,1.93,1.89,2,2,0,0,0,1.69-.91l.58.47a2.76,2.76,0,0,1-2.27,1.12,2.77,2.77,0,0,1-.06-5.54,2.47,2.47,0,0,1,2.52,2.63v.34Zm3.58-.61a1.59,1.59,0,0,0-1.71-1.69,1.86,1.86,0,0,0-1.85,1.69Z"/><path class="cls-8" d="M333.43,79.64a8.14,8.14,0,0,1,0,.85h0a2.12,2.12,0,0,1,1.77-1,1.8,1.8,0,0,1,2,2.06v3.34h-.74V82c0-1.17-.33-1.82-1.43-1.82-.16,0-1.6.11-1.6,2v2.7h-.74V80.8c0-.28,0-.77-.06-1.16Z"/><path class="cls-8" d="M241.66,120.17h3.71v.74h-4.52v-8h.81Z"/><path class="cls-8" d="M249.86,117.68v-.13a1.2,1.2,0,0,0-1.35-1.37,2.37,2.37,0,0,0-1.61.62l-.45-.53a3,3,0,0,1,2.23-.76,1.77,1.77,0,0,1,1.93,1.87v2.35a7.78,7.78,0,0,0,.09,1.18H250a5.77,5.77,0,0,1-.06-.85h0a2,2,0,0,1-1.85,1,1.63,1.63,0,0,1-1.82-1.54c0-1.71,2-1.83,3.28-1.83Zm-.38.61c-.76,0-2.46.06-2.46,1.12,0,.69.65,1,1.24,1a1.54,1.54,0,0,0,1.6-1.7v-.38Z"/><path class="cls-8" d="M256.41,120.91a7.86,7.86,0,0,1,0-.84h0a2.14,2.14,0,0,1-1.77,1,1.8,1.8,0,0,1-2-2.06v-3.35h.74v2.92c0,1.17.33,1.81,1.43,1.81.16,0,1.6-.1,1.6-2v-2.71h.74v4.11c0,.29,0,.78.06,1.16Z"/><path class="cls-8" d="M259.85,115.64a6.12,6.12,0,0,1,0,.85h0a2.12,2.12,0,0,1,1.77-1,1.8,1.8,0,0,1,2,2.06v3.34h-.74V118c0-1.17-.33-1.82-1.43-1.82-.16,0-1.6.11-1.6,2v2.7h-.75V116.8c0-.28,0-.77-.05-1.16Z"/><path class="cls-8" d="M270.94,120.91h-.74V120h0a2.5,2.5,0,0,1-2,1,2.77,2.77,0,1,1,0-5.54,2.5,2.5,0,0,1,2,1h0V112.4h.74Zm-2.81-.54a2.1,2.1,0,1,0,0-4.19,2.1,2.1,0,0,0,0,4.19Z"/><path class="cls-8" d="M272.92,117.29c0-.47,0-.88-.05-1.65h.73v1h0a1.73,1.73,0,0,1,1.69-1.11,1.84,1.84,0,0,1,.55.07l-.15.73a1.09,1.09,0,0,0-.43-.06,1.65,1.65,0,0,0-1.63,1.69v3h-.74Z"/><path class="cls-8" d="M278.82,120l1.61-4.36h.9l-2.64,6.65c-.31.81-.74,1.33-1.65,1.33a2.33,2.33,0,0,1-.69-.08l.08-.72a1.18,1.18,0,0,0,.56.12c.52,0,.79-.35,1-.94l.39-1-2.16-5.34h.93Z"/><path class="cls-8" d="M244.78,155.43l2.69-6.49h1.24v8h-.81V150h0L245,156.91h-.43L241.68,150h0v6.89h-.81v-8h1.23Z"/><path class="cls-8" d="M254.25,153.68v-.13a1.2,1.2,0,0,0-1.35-1.37,2.37,2.37,0,0,0-1.61.62l-.45-.53a3,3,0,0,1,2.23-.76,1.76,1.76,0,0,1,1.92,1.87v2.35a9.33,9.33,0,0,0,.09,1.18h-.72a5.77,5.77,0,0,1-.06-.85h0a2,2,0,0,1-1.86,1,1.62,1.62,0,0,1-1.81-1.54c0-1.71,2-1.83,3.28-1.83Zm-.38.61c-.76,0-2.46.06-2.46,1.12,0,.69.64,1,1.24,1a1.54,1.54,0,0,0,1.6-1.7v-.38Z"/><path class="cls-8" d="M257.54,150.16a.55.55,0,0,1-.55-.54.55.55,0,0,1,1.09,0A.56.56,0,0,1,257.54,150.16Zm.37,6.75h-.75v-5.27h.75Z"/><path class="cls-8" d="M265.23,156.91h-.74V156h0a2.52,2.52,0,0,1-2.05,1,2.77,2.77,0,1,1,0-5.54,2.52,2.52,0,0,1,2.05,1h0V148.4h.74Zm-2.81-.54a2.1,2.1,0,1,0,0-4.19,2.1,2.1,0,0,0,0,4.19Z"/><path class="cls-8" d="M267.71,151.59H267l.76-2.65h.91Z"/><path class="cls-8" d="M271.88,152.89a1.23,1.23,0,0,0-1.13-.71c-.52,0-1.1.23-1.1.79s.35.68,1,.84l.75.18a1.5,1.5,0,0,1,1.29,1.44c0,1.15-1,1.62-2.05,1.62a2.3,2.3,0,0,1-2-1l.64-.43a1.61,1.61,0,0,0,1.39.78c.61,0,1.24-.27,1.24-.87s-.45-.71-1-.85l-.72-.17c-.36-.09-1.35-.38-1.35-1.38s1-1.59,2-1.59a1.83,1.83,0,0,1,1.76,1Z"/><path class="cls-8" d="M278.66,156.91h-.81v-8h2.45c1.62,0,2.63.7,2.63,2.13a2,2,0,0,1-2,2.06l2.29,3.78h-1l-2.18-3.7h-1.35Zm0-4.44h1.44c1.45,0,1.95-.63,1.95-1.4s-.5-1.39-1.95-1.39h-1.44Z"/><path class="cls-8" d="M287.05,157.05a2.77,2.77,0,1,1,2.81-2.77A2.69,2.69,0,0,1,287.05,157.05Zm0-4.87a2.1,2.1,0,1,0,2,2.1A2,2,0,0,0,287.05,152.18Z"/><path class="cls-8" d="M294,157.05a2.77,2.77,0,1,1,2.8-2.77A2.69,2.69,0,0,1,294,157.05Zm0-4.87a2.1,2.1,0,1,0,2,2.1A2,2,0,0,0,294,152.18Z"/><path class="cls-8" d="M298.44,152.82c0-.4,0-.78-.06-1.18h.8v.8h0a2.06,2.06,0,0,1,1.71-.93,1.66,1.66,0,0,1,1.67,1.09,2,2,0,0,1,1.74-1.09,1.8,1.8,0,0,1,2,2.06v3.34h-.74v-3.07c0-1.07-.31-1.66-1.33-1.66s-1.49.95-1.49,1.93v2.8H302v-3.07c0-1.07-.31-1.66-1.33-1.66-.18,0-1.49.11-1.49,2v2.7h-.74Z"/><path class="cls-8" d="M30.48,147.47h2.64a4,4,0,1,1,0,8H30.48Zm.81,7.23h1.57a3.26,3.26,0,1,0,0-6.49H31.29Z"/><path class="cls-8" d="M39.48,148.68a.54.54,0,0,1-.54-.54.54.54,0,0,1,1.08,0A.54.54,0,0,1,39.48,148.68Zm.37,6.76h-.74v-5.27h.74Z"/><path class="cls-8" d="M42.63,150.17a7.86,7.86,0,0,1,0,.84h0a2.11,2.11,0,0,1,1.76-1,1.81,1.81,0,0,1,2,2.06v3.34h-.75v-2.92c0-1.17-.32-1.81-1.43-1.81-.15,0-1.6.1-1.6,2v2.7h-.74v-4.11c0-.28,0-.78-.05-1.16Z"/><path class="cls-8" d="M49,148.68a.54.54,0,0,1-.54-.54.54.54,0,0,1,1.08,0A.54.54,0,0,1,49,148.68Zm.37,6.76h-.74v-5.27h.74Z"/><path class="cls-8" d="M52.15,150.17a7.86,7.86,0,0,1,0,.84h0A2.11,2.11,0,0,1,54,150a1.81,1.81,0,0,1,2,2.06v3.34h-.75v-2.92c0-1.17-.32-1.81-1.43-1.81-.16,0-1.6.1-1.6,2v2.7h-.74v-4.11c0-.28,0-.78-.06-1.16Z"/><path class="cls-8" d="M58.38,156.5a2.5,2.5,0,0,0,2,1,1.86,1.86,0,0,0,2.05-2.07v-1h0a2.27,2.27,0,0,1-2,1,2.68,2.68,0,0,1-2.75-2.68A2.64,2.64,0,0,1,60.39,150a2.44,2.44,0,0,1,2,1h0v-.88h.74v5.23a2.52,2.52,0,0,1-2.82,2.74,3.27,3.27,0,0,1-2.54-1Zm2.1-1.74a2,2,0,0,0,0-4,2,2,0,0,0,0,4Z"/><path class="cls-8" d="M68.68,155.44h-.94l3.46-8H72l3.47,8h-.95l-.87-2.09H69.56Zm1.18-2.84h3.46l-1.72-4.18Z"/><path class="cls-8" d="M76.63,151.82c0-.48,0-.88,0-1.65h.73v1h0A1.74,1.74,0,0,1,79,150a2.29,2.29,0,0,1,.56.06l-.15.74a1.12,1.12,0,0,0-.43-.06,1.65,1.65,0,0,0-1.63,1.69v3h-.74Z"/><path class="cls-8" d="M80.88,153a2,2,0,0,0,1.94,1.89,2,2,0,0,0,1.69-.91l.57.47a2.75,2.75,0,0,1-2.26,1.12,2.77,2.77,0,0,1-.07-5.54,2.46,2.46,0,0,1,2.52,2.63V153Zm3.58-.61a1.59,1.59,0,0,0-1.71-1.69,1.86,1.86,0,0,0-1.85,1.69Z"/><path class="cls-8" d="M90.28,152.21v-.14a1.19,1.19,0,0,0-1.35-1.36,2.37,2.37,0,0,0-1.61.62l-.45-.53A3,3,0,0,1,89.1,150,1.76,1.76,0,0,1,91,151.91v2.35a9.48,9.48,0,0,0,.09,1.18h-.72a5.85,5.85,0,0,1-.07-.85h0a2,2,0,0,1-1.86,1A1.62,1.62,0,0,1,86.63,154c0-1.71,2-1.82,3.28-1.82Zm-.38.61c-.76,0-2.46.05-2.46,1.11,0,.7.64,1,1.24,1a1.54,1.54,0,0,0,1.6-1.7v-.38Z"/><path class="cls-9" d="M21.49,50.46H3.87a.27.27,0,0,1-.26-.27V46.65a.27.27,0,0,1,.53,0v3.28H21.23V46.65a.27.27,0,0,1,.53,0v3.54A.27.27,0,0,1,21.49,50.46Z"/><path class="cls-9" d="M19.77,45.19H5.6a.27.27,0,0,1,0-.53H19.77a.27.27,0,0,1,0,.53Z"/><path class="cls-9" d="M5.94,52.22A.27.27,0,0,1,5.68,52V50.2a.27.27,0,1,1,.53,0V52A.27.27,0,0,1,5.94,52.22Z"/><path class="cls-9" d="M19.68,52.22a.27.27,0,0,1-.26-.27V50.2a.27.27,0,1,1,.53,0V52A.27.27,0,0,1,19.68,52.22Z"/><path class="cls-9" d="M11.34,45.19H7.42a1,1,0,1,1,0-2.08h3.92a1,1,0,1,1,0,2.08ZM7.42,43.64a.51.51,0,1,0,0,1h3.92a.51.51,0,1,0,0-1Z"/><path class="cls-9" d="M18.24,45.19H14.32a1,1,0,0,1,0-2.08h3.92a1,1,0,1,1,0,2.08Zm-3.92-1.55a.51.51,0,1,0,0,1h3.92a.51.51,0,0,0,0-1Z"/><path class="cls-9" d="M3.87,46.92a.27.27,0,0,1-.26-.27,2,2,0,0,1,2-2,.27.27,0,0,1,0,.53,1.46,1.46,0,0,0-1.46,1.46A.27.27,0,0,1,3.87,46.92Z"/><path class="cls-9" d="M21.49,46.92a.27.27,0,0,1-.26-.27,1.47,1.47,0,0,0-1.46-1.46.27.27,0,1,1,0-.53,2,2,0,0,1,2,2A.27.27,0,0,1,21.49,46.92Z"/><path class="cls-9" d="M21.49,46.92a.27.27,0,0,1-.26-.27V40.93H4.14v5.72a.27.27,0,1,1-.53,0v-6a.26.26,0,0,1,.26-.26H21.49a.27.27,0,0,1,.27.26v6A.27.27,0,0,1,21.49,46.92Z"/><path class="cls-9" d="M18.53,118.46H6.24a.23.23,0,0,1-.23-.23v-1.68a.23.23,0,0,1,.23-.23H18.53a.22.22,0,0,1,.22.23v1.68A.22.22,0,0,1,18.53,118.46ZM6.47,118H18.3v-1.22H6.47Z"/><path class="cls-9" d="M6.24,125.33A.23.23,0,0,1,6,125.1v-6.87a.23.23,0,0,1,.23-.23.24.24,0,0,1,.23.23v6.87A.23.23,0,0,1,6.24,125.33Z"/><path class="cls-9" d="M18.53,125.33a.23.23,0,0,1-.23-.23v-6.87a.23.23,0,1,1,.45,0v6.87A.22.22,0,0,1,18.53,125.33Z"/><path class="cls-9" d="M16.48,114.77H8.28a.23.23,0,0,1-.22-.23v-4.92a.22.22,0,0,1,.22-.23h8.2a.23.23,0,0,1,.23.23v4.92A.23.23,0,0,1,16.48,114.77Zm-8-.46h7.74v-4.46H8.51Z"/><path class="cls-9" d="M14,116.64H10.77a.23.23,0,0,1-.23-.23v-.83a.22.22,0,0,1,.23-.22H14a.22.22,0,0,1,.23.22v.83A.23.23,0,0,1,14,116.64Zm-3-.46h2.77v-.37H11Z"/><path class="cls-9" d="M13.05,115.81H11.72a.23.23,0,0,1-.23-.23v-1a.23.23,0,0,1,.23-.23h1.33a.22.22,0,0,1,.22.23v1A.22.22,0,0,1,13.05,115.81Zm-1.11-.45h.88v-.52h-.88Z"/><path class="cls-9" d="M15.32,89.35h-6a.23.23,0,0,1-.22-.27l.84-3.94a.23.23,0,0,1,.44.1L9.57,88.9H15l-.78-3.66a.23.23,0,1,1,.44-.1l.84,3.94a.21.21,0,0,1,0,.19A.25.25,0,0,1,15.32,89.35Z"/><path class="cls-9" d="M12.31,85.57A4.55,4.55,0,0,1,7.76,81V79.86A.23.23,0,0,1,8,79.64h8.63a.22.22,0,0,1,.23.22V81A4.55,4.55,0,0,1,12.31,85.57ZM8.22,80.09V81a4.09,4.09,0,1,0,8.17,0v-.93Z"/><path class="cls-9" d="M16.62,81.25H8a.23.23,0,1,1,0-.45h8.63a.23.23,0,1,1,0,.45Z"/><path class="cls-9" d="M16.21,80a.23.23,0,0,1-.22-.2l-.89-6.49H9.51l-.89,6.49a.22.22,0,0,1-.25.19.23.23,0,0,1-.2-.25l.92-6.69a.23.23,0,0,1,.22-.2h6a.24.24,0,0,1,.23.2l.91,6.69a.23.23,0,0,1-.2.25Z"/><path class="cls-9" d="M12.31,74.44a15.32,15.32,0,0,1-3.25-.27.23.23,0,1,1,.11-.45,15,15,0,0,0,3.14.26,15,15,0,0,0,3.13-.26.23.23,0,0,1,.28.17.23.23,0,0,1-.17.28A15.28,15.28,0,0,1,12.31,74.44Z"/><path class="cls-9" d="M1.36,158.39a.27.27,0,0,1-.27-.27v-4.67a.27.27,0,0,1,.53,0v4.67A.27.27,0,0,1,1.36,158.39Z"/><path class="cls-9" d="M6.68,158.39a.27.27,0,0,1-.26-.27v-4.67a.27.27,0,0,1,.53,0v4.67A.27.27,0,0,1,6.68,158.39Z"/><path class="cls-9" d="M7.24,153.71H.8a.85.85,0,0,1-.62-.28,1.62,1.62,0,0,1-.18-.9v-5.59a.85.85,0,0,1,.29-.63,1.29,1.29,0,0,1,.8-.17,1.29,1.29,0,0,1,.8.17.85.85,0,0,1,.29.63v4.59H7.24a.9.9,0,0,1,.63.29,2,2,0,0,1,0,1.61A.89.89,0,0,1,7.24,153.71ZM.53,152.45v.05a1.78,1.78,0,0,0,0,.59.32.32,0,0,0,.22.1H7.24a.35.35,0,0,0,.24-.12,2.39,2.39,0,0,0,0-.92.32.32,0,0,0-.22-.09H1.92a.26.26,0,0,1-.26-.26v-4.86a.35.35,0,0,0-.12-.24,2.55,2.55,0,0,0-.45,0,1.35,1.35,0,0,0-.47.06.32.32,0,0,0-.09.22Z"/><path class="cls-9" d="M16.36,148.38H5.84a.26.26,0,0,1-.26-.26V146.4a.26.26,0,0,1,.26-.26H16.36a.25.25,0,0,1,.26.26v1.72A.25.25,0,0,1,16.36,148.38ZM6.1,147.86h10v-1.2H6.1Z"/><path class="cls-9" d="M11.1,158.39a.27.27,0,0,1-.26-.27v-10a.26.26,0,0,1,.26-.26.25.25,0,0,1,.26.26v10A.26.26,0,0,1,11.1,158.39Z"/><path class="cls-9" d="M20.84,158.39a.27.27,0,0,1-.26-.27v-4.67a.27.27,0,0,1,.53,0v4.67A.27.27,0,0,1,20.84,158.39Z"/><path class="cls-9" d="M15.52,158.39a.27.27,0,0,1-.27-.27v-4.67a.27.27,0,0,1,.53,0v4.67A.27.27,0,0,1,15.52,158.39Z"/><path class="cls-9" d="M21.4,153.71H15a.89.89,0,0,1-.63-.28,2,2,0,0,1,0-1.61.9.9,0,0,1,.63-.29H20v-4.59a.85.85,0,0,1,.29-.63,1.29,1.29,0,0,1,.8-.17,1.29,1.29,0,0,1,.8.17.85.85,0,0,1,.29.63v5.59a1.54,1.54,0,0,1-.17.9A.89.89,0,0,1,21.4,153.71ZM15,152.06a.31.31,0,0,0-.24.12,2.33,2.33,0,0,0,0,.91.3.3,0,0,0,.22.1H21.4a.35.35,0,0,0,.24-.12,2.86,2.86,0,0,0,0-.57v-5.56a.34.34,0,0,0-.11-.24h0a2.55,2.55,0,0,0-.45,0,1.35,1.35,0,0,0-.47.06.32.32,0,0,0-.1.22v4.86a.26.26,0,0,1-.26.26Z"/><path class="cls-9" d="M227.16,87.21h-15.3a.34.34,0,0,1-.34-.34V77.24a.35.35,0,0,1,.34-.35h15.3a.35.35,0,0,1,.35.35v9.63A.34.34,0,0,1,227.16,87.21Zm-15-.68h14.62v-9H212.2Z"/><path class="cls-9" d="M219.51,87.21a.34.34,0,0,1-.34-.34V77.23a.34.34,0,0,1,.34-.34.35.35,0,0,1,.35.34v9.64A.35.35,0,0,1,219.51,87.21Z"/><path class="cls-9" d="M217.74,81.27a.35.35,0,0,1-.35-.35v-1.5a.35.35,0,0,1,.35-.34.34.34,0,0,1,.34.34v1.5A.35.35,0,0,1,217.74,81.27Z"/><path class="cls-9" d="M221.29,81.27a.35.35,0,0,1-.34-.35v-1.5a.34.34,0,1,1,.68,0v1.5A.35.35,0,0,1,221.29,81.27Z"/><path class="cls-9" d="M227.7,77.58H211.33a.35.35,0,0,1-.35-.35V75a.35.35,0,0,1,.35-.34H227.7A.34.34,0,0,1,228,75v2.19A.34.34,0,0,1,227.7,77.58Zm-16-.69h15.69v-1.5H211.67Z"/><path class="cls-9" d="M224.93,51a.23.23,0,0,1-.23-.23v-12a.23.23,0,1,1,.46,0v12A.23.23,0,0,1,224.93,51Z"/><path class="cls-9" d="M219.84,51a.23.23,0,0,1-.23-.23v-12a.23.23,0,1,1,.46,0v12A.23.23,0,0,1,219.84,51Z"/><path class="cls-9" d="M214.75,51a.23.23,0,0,1-.23-.23v-12a.23.23,0,0,1,.46,0v12A.23.23,0,0,1,214.75,51Z"/><path class="cls-9" d="M230,51H209.66a.23.23,0,0,1-.23-.23v-12a.23.23,0,0,1,.23-.23H230a.23.23,0,0,1,.23.23v12A.23.23,0,0,1,230,51Zm-20.13-.46h19.9V39.06h-19.9Z"/><path class="cls-9" d="M223.6,45.64a.23.23,0,0,1-.23-.23V44.22a.23.23,0,0,1,.23-.23.24.24,0,0,1,.23.23v1.19A.23.23,0,0,1,223.6,45.64Z"/><path class="cls-9" d="M226.27,45.64a.23.23,0,0,1-.23-.23V44.22a.23.23,0,1,1,.45,0v1.19A.22.22,0,0,1,226.27,45.64Z"/><path class="cls-9" d="M213.42,45.64a.23.23,0,0,1-.23-.23V44.22a.23.23,0,0,1,.23-.23.24.24,0,0,1,.23.23v1.19A.23.23,0,0,1,213.42,45.64Z"/><path class="cls-9" d="M219.87,46.37h-5.12a.23.23,0,0,1,0-.46h5.12a.23.23,0,0,1,0,.46Z"/><path class="cls-9" d="M219.87,43.93h-5.12a.23.23,0,1,1,0-.45h5.12a.23.23,0,1,1,0,.45Z"/><path class="cls-9" d="M219.87,41.5h-5.12a.23.23,0,1,1,0-.46h5.12a.23.23,0,0,1,0,.46Z"/><path class="cls-9" d="M217.72,47.2h-.82a.23.23,0,0,1-.23-.23.24.24,0,0,1,.23-.23h.82A.24.24,0,0,1,218,47,.23.23,0,0,1,217.72,47.2Z"/><path class="cls-9" d="M227.44,129.32h-15.2A.28.28,0,0,1,212,129V108.78a.29.29,0,0,1,.28-.28h15.2a.28.28,0,0,1,.28.28V129A.27.27,0,0,1,227.44,129.32Zm-14.92-.56h14.64v-19.7H212.52Z"/><path class="cls-9" d="M219.83,124.65a5,5,0,1,1,5-5A5,5,0,0,1,219.83,124.65Zm0-9.41a4.42,4.42,0,1,0,4.42,4.42A4.42,4.42,0,0,0,219.83,115.24Z"/><path class="cls-9" d="M219.83,123.27a3.61,3.61,0,1,1,3.62-3.61A3.61,3.61,0,0,1,219.83,123.27Zm0-6.66a3,3,0,1,0,3,3A3.06,3.06,0,0,0,219.83,116.61Z"/><path class="cls-9" d="M227.44,112.54h-15.2a.29.29,0,0,1,0-.57h15.2a.29.29,0,0,1,0,.57Z"/><path class="cls-10" d="M228.8,159.72h-18a.33.33,0,0,1-.33-.33v-5.3a.33.33,0,0,1,.66,0v5h17.31v-5a.33.33,0,1,1,.65,0v5.3A.33.33,0,0,1,228.8,159.72Z"/><path class="cls-10" d="M227,151.83H212.6a.33.33,0,1,1,0-.65H227a.33.33,0,1,1,0,.65Z"/><path class="cls-10" d="M213,162.35a.33.33,0,0,1-.33-.33v-2.63a.33.33,0,1,1,.66,0V162A.33.33,0,0,1,213,162.35Z"/><path class="cls-10" d="M227,162.35a.33.33,0,0,1-.33-.33v-2.63a.33.33,0,1,1,.66,0V162A.33.33,0,0,1,227,162.35Z"/><path class="cls-10" d="M222.76,151.84h-5.87a1.5,1.5,0,1,1,0-3h5.87a1.5,1.5,0,0,1,0,3Zm-5.87-2.34a.84.84,0,0,0,0,1.68h5.87a.84.84,0,0,0,0-1.68Z"/><path class="cls-10" d="M210.84,154.42a.33.33,0,0,1-.33-.33c0-1.61.94-2.91,2.09-2.91a.33.33,0,1,1,0,.65c-.78,0-1.43,1-1.43,2.26A.33.33,0,0,1,210.84,154.42Z"/><path class="cls-10" d="M228.8,154.42a.32.32,0,0,1-.32-.33c0-1.22-.66-2.26-1.44-2.26a.33.33,0,0,1,0-.65c1.16,0,2.09,1.3,2.09,2.91A.33.33,0,0,1,228.8,154.42Z"/><path class="cls-10" d="M228.8,154.42a.32.32,0,0,1-.32-.33v-8.64H211.17v8.64a.33.33,0,0,1-.66,0v-9a.33.33,0,0,1,.33-.33h18a.33.33,0,0,1,.33.33v9A.33.33,0,0,1,228.8,154.42Z"/></g></g></svg>